%TF.GenerationSoftware,KiCad,Pcbnew,8.0.1*%
%TF.CreationDate,2024-04-15T18:30:33+02:00*%
%TF.ProjectId,Meanwell IRM Board,4d65616e-7765-46c6-9c20-49524d20426f,rev?*%
%TF.SameCoordinates,Original*%
%TF.FileFunction,Drillmap*%
%TF.FilePolarity,Positive*%
%FSLAX45Y45*%
G04 Gerber Fmt 4.5, Leading zero omitted, Abs format (unit mm)*
G04 Created by KiCad (PCBNEW 8.0.1) date 2024-04-15 18:30:33*
%MOMM*%
%LPD*%
G01*
G04 APERTURE LIST*
%ADD10C,0.050000*%
%ADD11C,0.200000*%
%ADD12C,0.100000*%
%ADD13C,0.150000*%
G04 APERTURE END LIST*
D10*
X9955000Y-4590000D02*
X18785000Y-4590000D01*
X18785000Y-13110000D01*
X9955000Y-13110000D01*
X9955000Y-4590000D01*
D11*
D12*
X18180000Y-8742500D02*
X18280000Y-8842500D01*
X18280000Y-8742500D02*
X18180000Y-8842500D01*
X18180000Y-8996500D02*
X18280000Y-9096500D01*
X18280000Y-8996500D02*
X18180000Y-9096500D01*
X18180000Y-10710000D02*
X18280000Y-10810000D01*
X18280000Y-10710000D02*
X18180000Y-10810000D01*
X18180000Y-10960000D02*
X18280000Y-11060000D01*
X18280000Y-10960000D02*
X18180000Y-11060000D01*
X18220000Y-6220000D02*
X18320000Y-6320000D01*
X18320000Y-6220000D02*
X18220000Y-6320000D01*
X18220000Y-6470000D02*
X18320000Y-6570000D01*
X18320000Y-6470000D02*
X18220000Y-6570000D01*
D13*
X10805000Y-6430000D02*
G75*
G02*
X10655000Y-6430000I-75000J0D01*
G01*
X10655000Y-6430000D02*
G75*
G02*
X10805000Y-6430000I75000J0D01*
G01*
X10805000Y-6930000D02*
G75*
G02*
X10655000Y-6930000I-75000J0D01*
G01*
X10655000Y-6930000D02*
G75*
G02*
X10805000Y-6930000I75000J0D01*
G01*
X10805000Y-7920000D02*
G75*
G02*
X10655000Y-7920000I-75000J0D01*
G01*
X10655000Y-7920000D02*
G75*
G02*
X10805000Y-7920000I75000J0D01*
G01*
X10805000Y-8420000D02*
G75*
G02*
X10655000Y-8420000I-75000J0D01*
G01*
X10655000Y-8420000D02*
G75*
G02*
X10805000Y-8420000I75000J0D01*
G01*
X11390000Y-5405000D02*
G75*
G02*
X11240000Y-5405000I-75000J0D01*
G01*
X11240000Y-5405000D02*
G75*
G02*
X11390000Y-5405000I75000J0D01*
G01*
X11390000Y-5955000D02*
G75*
G02*
X11240000Y-5955000I-75000J0D01*
G01*
X11240000Y-5955000D02*
G75*
G02*
X11390000Y-5955000I75000J0D01*
G01*
X11390000Y-7485000D02*
G75*
G02*
X11240000Y-7485000I-75000J0D01*
G01*
X11240000Y-7485000D02*
G75*
G02*
X11390000Y-7485000I75000J0D01*
G01*
X11390000Y-9430000D02*
G75*
G02*
X11240000Y-9430000I-75000J0D01*
G01*
X11240000Y-9430000D02*
G75*
G02*
X11390000Y-9430000I75000J0D01*
G01*
X11390000Y-9980000D02*
G75*
G02*
X11240000Y-9980000I-75000J0D01*
G01*
X11240000Y-9980000D02*
G75*
G02*
X11390000Y-9980000I75000J0D01*
G01*
X11390000Y-11510000D02*
G75*
G02*
X11240000Y-11510000I-75000J0D01*
G01*
X11240000Y-11510000D02*
G75*
G02*
X11390000Y-11510000I75000J0D01*
G01*
X15890000Y-6685000D02*
G75*
G02*
X15740000Y-6685000I-75000J0D01*
G01*
X15740000Y-6685000D02*
G75*
G02*
X15890000Y-6685000I75000J0D01*
G01*
X15890000Y-7485000D02*
G75*
G02*
X15740000Y-7485000I-75000J0D01*
G01*
X15740000Y-7485000D02*
G75*
G02*
X15890000Y-7485000I75000J0D01*
G01*
X15890000Y-10710000D02*
G75*
G02*
X15740000Y-10710000I-75000J0D01*
G01*
X15740000Y-10710000D02*
G75*
G02*
X15890000Y-10710000I75000J0D01*
G01*
X15890000Y-11510000D02*
G75*
G02*
X15740000Y-11510000I-75000J0D01*
G01*
X15740000Y-11510000D02*
G75*
G02*
X15890000Y-11510000I75000J0D01*
G01*
X17540000Y-5400000D02*
G75*
G02*
X17390000Y-5400000I-75000J0D01*
G01*
X17390000Y-5400000D02*
G75*
G02*
X17540000Y-5400000I75000J0D01*
G01*
X17540000Y-6300000D02*
G75*
G02*
X17390000Y-6300000I-75000J0D01*
G01*
X17390000Y-6300000D02*
G75*
G02*
X17540000Y-6300000I75000J0D01*
G01*
X17540000Y-9425000D02*
G75*
G02*
X17390000Y-9425000I-75000J0D01*
G01*
X17390000Y-9425000D02*
G75*
G02*
X17540000Y-9425000I75000J0D01*
G01*
X17540000Y-10325000D02*
G75*
G02*
X17390000Y-10325000I-75000J0D01*
G01*
X17390000Y-10325000D02*
G75*
G02*
X17540000Y-10325000I75000J0D01*
G01*
D11*
X10213277Y-13423984D02*
X10213277Y-13223984D01*
X10213277Y-13223984D02*
X10260896Y-13223984D01*
X10260896Y-13223984D02*
X10289467Y-13233508D01*
X10289467Y-13233508D02*
X10308515Y-13252555D01*
X10308515Y-13252555D02*
X10318039Y-13271603D01*
X10318039Y-13271603D02*
X10327563Y-13309698D01*
X10327563Y-13309698D02*
X10327563Y-13338269D01*
X10327563Y-13338269D02*
X10318039Y-13376365D01*
X10318039Y-13376365D02*
X10308515Y-13395412D01*
X10308515Y-13395412D02*
X10289467Y-13414460D01*
X10289467Y-13414460D02*
X10260896Y-13423984D01*
X10260896Y-13423984D02*
X10213277Y-13423984D01*
X10413277Y-13423984D02*
X10413277Y-13290650D01*
X10413277Y-13328746D02*
X10422801Y-13309698D01*
X10422801Y-13309698D02*
X10432324Y-13300174D01*
X10432324Y-13300174D02*
X10451372Y-13290650D01*
X10451372Y-13290650D02*
X10470420Y-13290650D01*
X10537086Y-13423984D02*
X10537086Y-13290650D01*
X10537086Y-13223984D02*
X10527563Y-13233508D01*
X10527563Y-13233508D02*
X10537086Y-13243031D01*
X10537086Y-13243031D02*
X10546610Y-13233508D01*
X10546610Y-13233508D02*
X10537086Y-13223984D01*
X10537086Y-13223984D02*
X10537086Y-13243031D01*
X10660896Y-13423984D02*
X10641848Y-13414460D01*
X10641848Y-13414460D02*
X10632324Y-13395412D01*
X10632324Y-13395412D02*
X10632324Y-13223984D01*
X10765658Y-13423984D02*
X10746610Y-13414460D01*
X10746610Y-13414460D02*
X10737086Y-13395412D01*
X10737086Y-13395412D02*
X10737086Y-13223984D01*
X10994229Y-13423984D02*
X10994229Y-13223984D01*
X10994229Y-13223984D02*
X11060896Y-13366841D01*
X11060896Y-13366841D02*
X11127563Y-13223984D01*
X11127563Y-13223984D02*
X11127563Y-13423984D01*
X11308515Y-13423984D02*
X11308515Y-13319222D01*
X11308515Y-13319222D02*
X11298991Y-13300174D01*
X11298991Y-13300174D02*
X11279943Y-13290650D01*
X11279943Y-13290650D02*
X11241848Y-13290650D01*
X11241848Y-13290650D02*
X11222801Y-13300174D01*
X11308515Y-13414460D02*
X11289467Y-13423984D01*
X11289467Y-13423984D02*
X11241848Y-13423984D01*
X11241848Y-13423984D02*
X11222801Y-13414460D01*
X11222801Y-13414460D02*
X11213277Y-13395412D01*
X11213277Y-13395412D02*
X11213277Y-13376365D01*
X11213277Y-13376365D02*
X11222801Y-13357317D01*
X11222801Y-13357317D02*
X11241848Y-13347793D01*
X11241848Y-13347793D02*
X11289467Y-13347793D01*
X11289467Y-13347793D02*
X11308515Y-13338269D01*
X11403753Y-13290650D02*
X11403753Y-13490650D01*
X11403753Y-13300174D02*
X11422801Y-13290650D01*
X11422801Y-13290650D02*
X11460896Y-13290650D01*
X11460896Y-13290650D02*
X11479943Y-13300174D01*
X11479943Y-13300174D02*
X11489467Y-13309698D01*
X11489467Y-13309698D02*
X11498991Y-13328746D01*
X11498991Y-13328746D02*
X11498991Y-13385888D01*
X11498991Y-13385888D02*
X11489467Y-13404936D01*
X11489467Y-13404936D02*
X11479943Y-13414460D01*
X11479943Y-13414460D02*
X11460896Y-13423984D01*
X11460896Y-13423984D02*
X11422801Y-13423984D01*
X11422801Y-13423984D02*
X11403753Y-13414460D01*
X11584705Y-13404936D02*
X11594229Y-13414460D01*
X11594229Y-13414460D02*
X11584705Y-13423984D01*
X11584705Y-13423984D02*
X11575182Y-13414460D01*
X11575182Y-13414460D02*
X11584705Y-13404936D01*
X11584705Y-13404936D02*
X11584705Y-13423984D01*
X11584705Y-13300174D02*
X11594229Y-13309698D01*
X11594229Y-13309698D02*
X11584705Y-13319222D01*
X11584705Y-13319222D02*
X11575182Y-13309698D01*
X11575182Y-13309698D02*
X11584705Y-13300174D01*
X11584705Y-13300174D02*
X11584705Y-13319222D01*
D12*
X9852500Y-13702500D02*
X9952500Y-13802500D01*
X9952500Y-13702500D02*
X9852500Y-13802500D01*
D11*
X10318039Y-13843984D02*
X10203753Y-13843984D01*
X10260896Y-13843984D02*
X10260896Y-13643984D01*
X10260896Y-13643984D02*
X10241848Y-13672555D01*
X10241848Y-13672555D02*
X10222801Y-13691603D01*
X10222801Y-13691603D02*
X10203753Y-13701127D01*
X10403753Y-13824936D02*
X10413277Y-13834460D01*
X10413277Y-13834460D02*
X10403753Y-13843984D01*
X10403753Y-13843984D02*
X10394229Y-13834460D01*
X10394229Y-13834460D02*
X10403753Y-13824936D01*
X10403753Y-13824936D02*
X10403753Y-13843984D01*
X10537086Y-13643984D02*
X10556134Y-13643984D01*
X10556134Y-13643984D02*
X10575182Y-13653508D01*
X10575182Y-13653508D02*
X10584705Y-13663031D01*
X10584705Y-13663031D02*
X10594229Y-13682079D01*
X10594229Y-13682079D02*
X10603753Y-13720174D01*
X10603753Y-13720174D02*
X10603753Y-13767793D01*
X10603753Y-13767793D02*
X10594229Y-13805888D01*
X10594229Y-13805888D02*
X10584705Y-13824936D01*
X10584705Y-13824936D02*
X10575182Y-13834460D01*
X10575182Y-13834460D02*
X10556134Y-13843984D01*
X10556134Y-13843984D02*
X10537086Y-13843984D01*
X10537086Y-13843984D02*
X10518039Y-13834460D01*
X10518039Y-13834460D02*
X10508515Y-13824936D01*
X10508515Y-13824936D02*
X10498991Y-13805888D01*
X10498991Y-13805888D02*
X10489467Y-13767793D01*
X10489467Y-13767793D02*
X10489467Y-13720174D01*
X10489467Y-13720174D02*
X10498991Y-13682079D01*
X10498991Y-13682079D02*
X10508515Y-13663031D01*
X10508515Y-13663031D02*
X10518039Y-13653508D01*
X10518039Y-13653508D02*
X10537086Y-13643984D01*
X10727563Y-13643984D02*
X10746610Y-13643984D01*
X10746610Y-13643984D02*
X10765658Y-13653508D01*
X10765658Y-13653508D02*
X10775182Y-13663031D01*
X10775182Y-13663031D02*
X10784705Y-13682079D01*
X10784705Y-13682079D02*
X10794229Y-13720174D01*
X10794229Y-13720174D02*
X10794229Y-13767793D01*
X10794229Y-13767793D02*
X10784705Y-13805888D01*
X10784705Y-13805888D02*
X10775182Y-13824936D01*
X10775182Y-13824936D02*
X10765658Y-13834460D01*
X10765658Y-13834460D02*
X10746610Y-13843984D01*
X10746610Y-13843984D02*
X10727563Y-13843984D01*
X10727563Y-13843984D02*
X10708515Y-13834460D01*
X10708515Y-13834460D02*
X10698991Y-13824936D01*
X10698991Y-13824936D02*
X10689467Y-13805888D01*
X10689467Y-13805888D02*
X10679944Y-13767793D01*
X10679944Y-13767793D02*
X10679944Y-13720174D01*
X10679944Y-13720174D02*
X10689467Y-13682079D01*
X10689467Y-13682079D02*
X10698991Y-13663031D01*
X10698991Y-13663031D02*
X10708515Y-13653508D01*
X10708515Y-13653508D02*
X10727563Y-13643984D01*
X10918039Y-13643984D02*
X10937086Y-13643984D01*
X10937086Y-13643984D02*
X10956134Y-13653508D01*
X10956134Y-13653508D02*
X10965658Y-13663031D01*
X10965658Y-13663031D02*
X10975182Y-13682079D01*
X10975182Y-13682079D02*
X10984705Y-13720174D01*
X10984705Y-13720174D02*
X10984705Y-13767793D01*
X10984705Y-13767793D02*
X10975182Y-13805888D01*
X10975182Y-13805888D02*
X10965658Y-13824936D01*
X10965658Y-13824936D02*
X10956134Y-13834460D01*
X10956134Y-13834460D02*
X10937086Y-13843984D01*
X10937086Y-13843984D02*
X10918039Y-13843984D01*
X10918039Y-13843984D02*
X10898991Y-13834460D01*
X10898991Y-13834460D02*
X10889467Y-13824936D01*
X10889467Y-13824936D02*
X10879944Y-13805888D01*
X10879944Y-13805888D02*
X10870420Y-13767793D01*
X10870420Y-13767793D02*
X10870420Y-13720174D01*
X10870420Y-13720174D02*
X10879944Y-13682079D01*
X10879944Y-13682079D02*
X10889467Y-13663031D01*
X10889467Y-13663031D02*
X10898991Y-13653508D01*
X10898991Y-13653508D02*
X10918039Y-13643984D01*
X11070420Y-13843984D02*
X11070420Y-13710650D01*
X11070420Y-13729698D02*
X11079944Y-13720174D01*
X11079944Y-13720174D02*
X11098991Y-13710650D01*
X11098991Y-13710650D02*
X11127563Y-13710650D01*
X11127563Y-13710650D02*
X11146610Y-13720174D01*
X11146610Y-13720174D02*
X11156134Y-13739222D01*
X11156134Y-13739222D02*
X11156134Y-13843984D01*
X11156134Y-13739222D02*
X11165658Y-13720174D01*
X11165658Y-13720174D02*
X11184705Y-13710650D01*
X11184705Y-13710650D02*
X11213277Y-13710650D01*
X11213277Y-13710650D02*
X11232324Y-13720174D01*
X11232324Y-13720174D02*
X11241848Y-13739222D01*
X11241848Y-13739222D02*
X11241848Y-13843984D01*
X11337086Y-13843984D02*
X11337086Y-13710650D01*
X11337086Y-13729698D02*
X11346610Y-13720174D01*
X11346610Y-13720174D02*
X11365658Y-13710650D01*
X11365658Y-13710650D02*
X11394229Y-13710650D01*
X11394229Y-13710650D02*
X11413277Y-13720174D01*
X11413277Y-13720174D02*
X11422801Y-13739222D01*
X11422801Y-13739222D02*
X11422801Y-13843984D01*
X11422801Y-13739222D02*
X11432324Y-13720174D01*
X11432324Y-13720174D02*
X11451372Y-13710650D01*
X11451372Y-13710650D02*
X11479943Y-13710650D01*
X11479943Y-13710650D02*
X11498991Y-13720174D01*
X11498991Y-13720174D02*
X11508515Y-13739222D01*
X11508515Y-13739222D02*
X11508515Y-13843984D01*
X11898991Y-13634460D02*
X11727563Y-13891603D01*
X12156134Y-13643984D02*
X12175182Y-13643984D01*
X12175182Y-13643984D02*
X12194229Y-13653508D01*
X12194229Y-13653508D02*
X12203753Y-13663031D01*
X12203753Y-13663031D02*
X12213277Y-13682079D01*
X12213277Y-13682079D02*
X12222801Y-13720174D01*
X12222801Y-13720174D02*
X12222801Y-13767793D01*
X12222801Y-13767793D02*
X12213277Y-13805888D01*
X12213277Y-13805888D02*
X12203753Y-13824936D01*
X12203753Y-13824936D02*
X12194229Y-13834460D01*
X12194229Y-13834460D02*
X12175182Y-13843984D01*
X12175182Y-13843984D02*
X12156134Y-13843984D01*
X12156134Y-13843984D02*
X12137086Y-13834460D01*
X12137086Y-13834460D02*
X12127563Y-13824936D01*
X12127563Y-13824936D02*
X12118039Y-13805888D01*
X12118039Y-13805888D02*
X12108515Y-13767793D01*
X12108515Y-13767793D02*
X12108515Y-13720174D01*
X12108515Y-13720174D02*
X12118039Y-13682079D01*
X12118039Y-13682079D02*
X12127563Y-13663031D01*
X12127563Y-13663031D02*
X12137086Y-13653508D01*
X12137086Y-13653508D02*
X12156134Y-13643984D01*
X12308515Y-13824936D02*
X12318039Y-13834460D01*
X12318039Y-13834460D02*
X12308515Y-13843984D01*
X12308515Y-13843984D02*
X12298991Y-13834460D01*
X12298991Y-13834460D02*
X12308515Y-13824936D01*
X12308515Y-13824936D02*
X12308515Y-13843984D01*
X12441848Y-13643984D02*
X12460896Y-13643984D01*
X12460896Y-13643984D02*
X12479944Y-13653508D01*
X12479944Y-13653508D02*
X12489467Y-13663031D01*
X12489467Y-13663031D02*
X12498991Y-13682079D01*
X12498991Y-13682079D02*
X12508515Y-13720174D01*
X12508515Y-13720174D02*
X12508515Y-13767793D01*
X12508515Y-13767793D02*
X12498991Y-13805888D01*
X12498991Y-13805888D02*
X12489467Y-13824936D01*
X12489467Y-13824936D02*
X12479944Y-13834460D01*
X12479944Y-13834460D02*
X12460896Y-13843984D01*
X12460896Y-13843984D02*
X12441848Y-13843984D01*
X12441848Y-13843984D02*
X12422801Y-13834460D01*
X12422801Y-13834460D02*
X12413277Y-13824936D01*
X12413277Y-13824936D02*
X12403753Y-13805888D01*
X12403753Y-13805888D02*
X12394229Y-13767793D01*
X12394229Y-13767793D02*
X12394229Y-13720174D01*
X12394229Y-13720174D02*
X12403753Y-13682079D01*
X12403753Y-13682079D02*
X12413277Y-13663031D01*
X12413277Y-13663031D02*
X12422801Y-13653508D01*
X12422801Y-13653508D02*
X12441848Y-13643984D01*
X12575182Y-13643984D02*
X12698991Y-13643984D01*
X12698991Y-13643984D02*
X12632325Y-13720174D01*
X12632325Y-13720174D02*
X12660896Y-13720174D01*
X12660896Y-13720174D02*
X12679944Y-13729698D01*
X12679944Y-13729698D02*
X12689467Y-13739222D01*
X12689467Y-13739222D02*
X12698991Y-13758269D01*
X12698991Y-13758269D02*
X12698991Y-13805888D01*
X12698991Y-13805888D02*
X12689467Y-13824936D01*
X12689467Y-13824936D02*
X12679944Y-13834460D01*
X12679944Y-13834460D02*
X12660896Y-13843984D01*
X12660896Y-13843984D02*
X12603753Y-13843984D01*
X12603753Y-13843984D02*
X12584706Y-13834460D01*
X12584706Y-13834460D02*
X12575182Y-13824936D01*
X12794229Y-13843984D02*
X12832325Y-13843984D01*
X12832325Y-13843984D02*
X12851372Y-13834460D01*
X12851372Y-13834460D02*
X12860896Y-13824936D01*
X12860896Y-13824936D02*
X12879944Y-13796365D01*
X12879944Y-13796365D02*
X12889467Y-13758269D01*
X12889467Y-13758269D02*
X12889467Y-13682079D01*
X12889467Y-13682079D02*
X12879944Y-13663031D01*
X12879944Y-13663031D02*
X12870420Y-13653508D01*
X12870420Y-13653508D02*
X12851372Y-13643984D01*
X12851372Y-13643984D02*
X12813277Y-13643984D01*
X12813277Y-13643984D02*
X12794229Y-13653508D01*
X12794229Y-13653508D02*
X12784706Y-13663031D01*
X12784706Y-13663031D02*
X12775182Y-13682079D01*
X12775182Y-13682079D02*
X12775182Y-13729698D01*
X12775182Y-13729698D02*
X12784706Y-13748746D01*
X12784706Y-13748746D02*
X12794229Y-13758269D01*
X12794229Y-13758269D02*
X12813277Y-13767793D01*
X12813277Y-13767793D02*
X12851372Y-13767793D01*
X12851372Y-13767793D02*
X12870420Y-13758269D01*
X12870420Y-13758269D02*
X12879944Y-13748746D01*
X12879944Y-13748746D02*
X12889467Y-13729698D01*
X13060896Y-13710650D02*
X13060896Y-13843984D01*
X13013277Y-13634460D02*
X12965658Y-13777317D01*
X12965658Y-13777317D02*
X13089467Y-13777317D01*
X13156134Y-13643984D02*
X13156134Y-13682079D01*
X13232325Y-13643984D02*
X13232325Y-13682079D01*
X13527563Y-13920174D02*
X13518039Y-13910650D01*
X13518039Y-13910650D02*
X13498991Y-13882079D01*
X13498991Y-13882079D02*
X13489468Y-13863031D01*
X13489468Y-13863031D02*
X13479944Y-13834460D01*
X13479944Y-13834460D02*
X13470420Y-13786841D01*
X13470420Y-13786841D02*
X13470420Y-13748746D01*
X13470420Y-13748746D02*
X13479944Y-13701127D01*
X13479944Y-13701127D02*
X13489468Y-13672555D01*
X13489468Y-13672555D02*
X13498991Y-13653508D01*
X13498991Y-13653508D02*
X13518039Y-13624936D01*
X13518039Y-13624936D02*
X13527563Y-13615412D01*
X13689468Y-13643984D02*
X13651372Y-13643984D01*
X13651372Y-13643984D02*
X13632325Y-13653508D01*
X13632325Y-13653508D02*
X13622801Y-13663031D01*
X13622801Y-13663031D02*
X13603753Y-13691603D01*
X13603753Y-13691603D02*
X13594229Y-13729698D01*
X13594229Y-13729698D02*
X13594229Y-13805888D01*
X13594229Y-13805888D02*
X13603753Y-13824936D01*
X13603753Y-13824936D02*
X13613277Y-13834460D01*
X13613277Y-13834460D02*
X13632325Y-13843984D01*
X13632325Y-13843984D02*
X13670420Y-13843984D01*
X13670420Y-13843984D02*
X13689468Y-13834460D01*
X13689468Y-13834460D02*
X13698991Y-13824936D01*
X13698991Y-13824936D02*
X13708515Y-13805888D01*
X13708515Y-13805888D02*
X13708515Y-13758269D01*
X13708515Y-13758269D02*
X13698991Y-13739222D01*
X13698991Y-13739222D02*
X13689468Y-13729698D01*
X13689468Y-13729698D02*
X13670420Y-13720174D01*
X13670420Y-13720174D02*
X13632325Y-13720174D01*
X13632325Y-13720174D02*
X13613277Y-13729698D01*
X13613277Y-13729698D02*
X13603753Y-13739222D01*
X13603753Y-13739222D02*
X13594229Y-13758269D01*
X13946610Y-13843984D02*
X13946610Y-13643984D01*
X14032325Y-13843984D02*
X14032325Y-13739222D01*
X14032325Y-13739222D02*
X14022801Y-13720174D01*
X14022801Y-13720174D02*
X14003753Y-13710650D01*
X14003753Y-13710650D02*
X13975182Y-13710650D01*
X13975182Y-13710650D02*
X13956134Y-13720174D01*
X13956134Y-13720174D02*
X13946610Y-13729698D01*
X14156134Y-13843984D02*
X14137087Y-13834460D01*
X14137087Y-13834460D02*
X14127563Y-13824936D01*
X14127563Y-13824936D02*
X14118039Y-13805888D01*
X14118039Y-13805888D02*
X14118039Y-13748746D01*
X14118039Y-13748746D02*
X14127563Y-13729698D01*
X14127563Y-13729698D02*
X14137087Y-13720174D01*
X14137087Y-13720174D02*
X14156134Y-13710650D01*
X14156134Y-13710650D02*
X14184706Y-13710650D01*
X14184706Y-13710650D02*
X14203753Y-13720174D01*
X14203753Y-13720174D02*
X14213277Y-13729698D01*
X14213277Y-13729698D02*
X14222801Y-13748746D01*
X14222801Y-13748746D02*
X14222801Y-13805888D01*
X14222801Y-13805888D02*
X14213277Y-13824936D01*
X14213277Y-13824936D02*
X14203753Y-13834460D01*
X14203753Y-13834460D02*
X14184706Y-13843984D01*
X14184706Y-13843984D02*
X14156134Y-13843984D01*
X14337087Y-13843984D02*
X14318039Y-13834460D01*
X14318039Y-13834460D02*
X14308515Y-13815412D01*
X14308515Y-13815412D02*
X14308515Y-13643984D01*
X14489468Y-13834460D02*
X14470420Y-13843984D01*
X14470420Y-13843984D02*
X14432325Y-13843984D01*
X14432325Y-13843984D02*
X14413277Y-13834460D01*
X14413277Y-13834460D02*
X14403753Y-13815412D01*
X14403753Y-13815412D02*
X14403753Y-13739222D01*
X14403753Y-13739222D02*
X14413277Y-13720174D01*
X14413277Y-13720174D02*
X14432325Y-13710650D01*
X14432325Y-13710650D02*
X14470420Y-13710650D01*
X14470420Y-13710650D02*
X14489468Y-13720174D01*
X14489468Y-13720174D02*
X14498991Y-13739222D01*
X14498991Y-13739222D02*
X14498991Y-13758269D01*
X14498991Y-13758269D02*
X14403753Y-13777317D01*
X14575182Y-13834460D02*
X14594230Y-13843984D01*
X14594230Y-13843984D02*
X14632325Y-13843984D01*
X14632325Y-13843984D02*
X14651372Y-13834460D01*
X14651372Y-13834460D02*
X14660896Y-13815412D01*
X14660896Y-13815412D02*
X14660896Y-13805888D01*
X14660896Y-13805888D02*
X14651372Y-13786841D01*
X14651372Y-13786841D02*
X14632325Y-13777317D01*
X14632325Y-13777317D02*
X14603753Y-13777317D01*
X14603753Y-13777317D02*
X14584706Y-13767793D01*
X14584706Y-13767793D02*
X14575182Y-13748746D01*
X14575182Y-13748746D02*
X14575182Y-13739222D01*
X14575182Y-13739222D02*
X14584706Y-13720174D01*
X14584706Y-13720174D02*
X14603753Y-13710650D01*
X14603753Y-13710650D02*
X14632325Y-13710650D01*
X14632325Y-13710650D02*
X14651372Y-13720174D01*
X14727563Y-13920174D02*
X14737087Y-13910650D01*
X14737087Y-13910650D02*
X14756134Y-13882079D01*
X14756134Y-13882079D02*
X14765658Y-13863031D01*
X14765658Y-13863031D02*
X14775182Y-13834460D01*
X14775182Y-13834460D02*
X14784706Y-13786841D01*
X14784706Y-13786841D02*
X14784706Y-13748746D01*
X14784706Y-13748746D02*
X14775182Y-13701127D01*
X14775182Y-13701127D02*
X14765658Y-13672555D01*
X14765658Y-13672555D02*
X14756134Y-13653508D01*
X14756134Y-13653508D02*
X14737087Y-13624936D01*
X14737087Y-13624936D02*
X14727563Y-13615412D01*
D13*
X9952500Y-14016500D02*
G75*
G02*
X9802500Y-14016500I-75000J0D01*
G01*
X9802500Y-14016500D02*
G75*
G02*
X9952500Y-14016500I75000J0D01*
G01*
D11*
X10318039Y-14107984D02*
X10203753Y-14107984D01*
X10260896Y-14107984D02*
X10260896Y-13907984D01*
X10260896Y-13907984D02*
X10241848Y-13936555D01*
X10241848Y-13936555D02*
X10222801Y-13955603D01*
X10222801Y-13955603D02*
X10203753Y-13965127D01*
X10403753Y-14088936D02*
X10413277Y-14098460D01*
X10413277Y-14098460D02*
X10403753Y-14107984D01*
X10403753Y-14107984D02*
X10394229Y-14098460D01*
X10394229Y-14098460D02*
X10403753Y-14088936D01*
X10403753Y-14088936D02*
X10403753Y-14107984D01*
X10594229Y-13907984D02*
X10498991Y-13907984D01*
X10498991Y-13907984D02*
X10489467Y-14003222D01*
X10489467Y-14003222D02*
X10498991Y-13993698D01*
X10498991Y-13993698D02*
X10518039Y-13984174D01*
X10518039Y-13984174D02*
X10565658Y-13984174D01*
X10565658Y-13984174D02*
X10584705Y-13993698D01*
X10584705Y-13993698D02*
X10594229Y-14003222D01*
X10594229Y-14003222D02*
X10603753Y-14022269D01*
X10603753Y-14022269D02*
X10603753Y-14069888D01*
X10603753Y-14069888D02*
X10594229Y-14088936D01*
X10594229Y-14088936D02*
X10584705Y-14098460D01*
X10584705Y-14098460D02*
X10565658Y-14107984D01*
X10565658Y-14107984D02*
X10518039Y-14107984D01*
X10518039Y-14107984D02*
X10498991Y-14098460D01*
X10498991Y-14098460D02*
X10489467Y-14088936D01*
X10727563Y-13907984D02*
X10746610Y-13907984D01*
X10746610Y-13907984D02*
X10765658Y-13917508D01*
X10765658Y-13917508D02*
X10775182Y-13927031D01*
X10775182Y-13927031D02*
X10784705Y-13946079D01*
X10784705Y-13946079D02*
X10794229Y-13984174D01*
X10794229Y-13984174D02*
X10794229Y-14031793D01*
X10794229Y-14031793D02*
X10784705Y-14069888D01*
X10784705Y-14069888D02*
X10775182Y-14088936D01*
X10775182Y-14088936D02*
X10765658Y-14098460D01*
X10765658Y-14098460D02*
X10746610Y-14107984D01*
X10746610Y-14107984D02*
X10727563Y-14107984D01*
X10727563Y-14107984D02*
X10708515Y-14098460D01*
X10708515Y-14098460D02*
X10698991Y-14088936D01*
X10698991Y-14088936D02*
X10689467Y-14069888D01*
X10689467Y-14069888D02*
X10679944Y-14031793D01*
X10679944Y-14031793D02*
X10679944Y-13984174D01*
X10679944Y-13984174D02*
X10689467Y-13946079D01*
X10689467Y-13946079D02*
X10698991Y-13927031D01*
X10698991Y-13927031D02*
X10708515Y-13917508D01*
X10708515Y-13917508D02*
X10727563Y-13907984D01*
X10918039Y-13907984D02*
X10937086Y-13907984D01*
X10937086Y-13907984D02*
X10956134Y-13917508D01*
X10956134Y-13917508D02*
X10965658Y-13927031D01*
X10965658Y-13927031D02*
X10975182Y-13946079D01*
X10975182Y-13946079D02*
X10984705Y-13984174D01*
X10984705Y-13984174D02*
X10984705Y-14031793D01*
X10984705Y-14031793D02*
X10975182Y-14069888D01*
X10975182Y-14069888D02*
X10965658Y-14088936D01*
X10965658Y-14088936D02*
X10956134Y-14098460D01*
X10956134Y-14098460D02*
X10937086Y-14107984D01*
X10937086Y-14107984D02*
X10918039Y-14107984D01*
X10918039Y-14107984D02*
X10898991Y-14098460D01*
X10898991Y-14098460D02*
X10889467Y-14088936D01*
X10889467Y-14088936D02*
X10879944Y-14069888D01*
X10879944Y-14069888D02*
X10870420Y-14031793D01*
X10870420Y-14031793D02*
X10870420Y-13984174D01*
X10870420Y-13984174D02*
X10879944Y-13946079D01*
X10879944Y-13946079D02*
X10889467Y-13927031D01*
X10889467Y-13927031D02*
X10898991Y-13917508D01*
X10898991Y-13917508D02*
X10918039Y-13907984D01*
X11070420Y-14107984D02*
X11070420Y-13974650D01*
X11070420Y-13993698D02*
X11079944Y-13984174D01*
X11079944Y-13984174D02*
X11098991Y-13974650D01*
X11098991Y-13974650D02*
X11127563Y-13974650D01*
X11127563Y-13974650D02*
X11146610Y-13984174D01*
X11146610Y-13984174D02*
X11156134Y-14003222D01*
X11156134Y-14003222D02*
X11156134Y-14107984D01*
X11156134Y-14003222D02*
X11165658Y-13984174D01*
X11165658Y-13984174D02*
X11184705Y-13974650D01*
X11184705Y-13974650D02*
X11213277Y-13974650D01*
X11213277Y-13974650D02*
X11232324Y-13984174D01*
X11232324Y-13984174D02*
X11241848Y-14003222D01*
X11241848Y-14003222D02*
X11241848Y-14107984D01*
X11337086Y-14107984D02*
X11337086Y-13974650D01*
X11337086Y-13993698D02*
X11346610Y-13984174D01*
X11346610Y-13984174D02*
X11365658Y-13974650D01*
X11365658Y-13974650D02*
X11394229Y-13974650D01*
X11394229Y-13974650D02*
X11413277Y-13984174D01*
X11413277Y-13984174D02*
X11422801Y-14003222D01*
X11422801Y-14003222D02*
X11422801Y-14107984D01*
X11422801Y-14003222D02*
X11432324Y-13984174D01*
X11432324Y-13984174D02*
X11451372Y-13974650D01*
X11451372Y-13974650D02*
X11479943Y-13974650D01*
X11479943Y-13974650D02*
X11498991Y-13984174D01*
X11498991Y-13984174D02*
X11508515Y-14003222D01*
X11508515Y-14003222D02*
X11508515Y-14107984D01*
X11898991Y-13898460D02*
X11727563Y-14155603D01*
X12156134Y-13907984D02*
X12175182Y-13907984D01*
X12175182Y-13907984D02*
X12194229Y-13917508D01*
X12194229Y-13917508D02*
X12203753Y-13927031D01*
X12203753Y-13927031D02*
X12213277Y-13946079D01*
X12213277Y-13946079D02*
X12222801Y-13984174D01*
X12222801Y-13984174D02*
X12222801Y-14031793D01*
X12222801Y-14031793D02*
X12213277Y-14069888D01*
X12213277Y-14069888D02*
X12203753Y-14088936D01*
X12203753Y-14088936D02*
X12194229Y-14098460D01*
X12194229Y-14098460D02*
X12175182Y-14107984D01*
X12175182Y-14107984D02*
X12156134Y-14107984D01*
X12156134Y-14107984D02*
X12137086Y-14098460D01*
X12137086Y-14098460D02*
X12127563Y-14088936D01*
X12127563Y-14088936D02*
X12118039Y-14069888D01*
X12118039Y-14069888D02*
X12108515Y-14031793D01*
X12108515Y-14031793D02*
X12108515Y-13984174D01*
X12108515Y-13984174D02*
X12118039Y-13946079D01*
X12118039Y-13946079D02*
X12127563Y-13927031D01*
X12127563Y-13927031D02*
X12137086Y-13917508D01*
X12137086Y-13917508D02*
X12156134Y-13907984D01*
X12308515Y-14088936D02*
X12318039Y-14098460D01*
X12318039Y-14098460D02*
X12308515Y-14107984D01*
X12308515Y-14107984D02*
X12298991Y-14098460D01*
X12298991Y-14098460D02*
X12308515Y-14088936D01*
X12308515Y-14088936D02*
X12308515Y-14107984D01*
X12441848Y-13907984D02*
X12460896Y-13907984D01*
X12460896Y-13907984D02*
X12479944Y-13917508D01*
X12479944Y-13917508D02*
X12489467Y-13927031D01*
X12489467Y-13927031D02*
X12498991Y-13946079D01*
X12498991Y-13946079D02*
X12508515Y-13984174D01*
X12508515Y-13984174D02*
X12508515Y-14031793D01*
X12508515Y-14031793D02*
X12498991Y-14069888D01*
X12498991Y-14069888D02*
X12489467Y-14088936D01*
X12489467Y-14088936D02*
X12479944Y-14098460D01*
X12479944Y-14098460D02*
X12460896Y-14107984D01*
X12460896Y-14107984D02*
X12441848Y-14107984D01*
X12441848Y-14107984D02*
X12422801Y-14098460D01*
X12422801Y-14098460D02*
X12413277Y-14088936D01*
X12413277Y-14088936D02*
X12403753Y-14069888D01*
X12403753Y-14069888D02*
X12394229Y-14031793D01*
X12394229Y-14031793D02*
X12394229Y-13984174D01*
X12394229Y-13984174D02*
X12403753Y-13946079D01*
X12403753Y-13946079D02*
X12413277Y-13927031D01*
X12413277Y-13927031D02*
X12422801Y-13917508D01*
X12422801Y-13917508D02*
X12441848Y-13907984D01*
X12689467Y-13907984D02*
X12594229Y-13907984D01*
X12594229Y-13907984D02*
X12584706Y-14003222D01*
X12584706Y-14003222D02*
X12594229Y-13993698D01*
X12594229Y-13993698D02*
X12613277Y-13984174D01*
X12613277Y-13984174D02*
X12660896Y-13984174D01*
X12660896Y-13984174D02*
X12679944Y-13993698D01*
X12679944Y-13993698D02*
X12689467Y-14003222D01*
X12689467Y-14003222D02*
X12698991Y-14022269D01*
X12698991Y-14022269D02*
X12698991Y-14069888D01*
X12698991Y-14069888D02*
X12689467Y-14088936D01*
X12689467Y-14088936D02*
X12679944Y-14098460D01*
X12679944Y-14098460D02*
X12660896Y-14107984D01*
X12660896Y-14107984D02*
X12613277Y-14107984D01*
X12613277Y-14107984D02*
X12594229Y-14098460D01*
X12594229Y-14098460D02*
X12584706Y-14088936D01*
X12794229Y-14107984D02*
X12832325Y-14107984D01*
X12832325Y-14107984D02*
X12851372Y-14098460D01*
X12851372Y-14098460D02*
X12860896Y-14088936D01*
X12860896Y-14088936D02*
X12879944Y-14060365D01*
X12879944Y-14060365D02*
X12889467Y-14022269D01*
X12889467Y-14022269D02*
X12889467Y-13946079D01*
X12889467Y-13946079D02*
X12879944Y-13927031D01*
X12879944Y-13927031D02*
X12870420Y-13917508D01*
X12870420Y-13917508D02*
X12851372Y-13907984D01*
X12851372Y-13907984D02*
X12813277Y-13907984D01*
X12813277Y-13907984D02*
X12794229Y-13917508D01*
X12794229Y-13917508D02*
X12784706Y-13927031D01*
X12784706Y-13927031D02*
X12775182Y-13946079D01*
X12775182Y-13946079D02*
X12775182Y-13993698D01*
X12775182Y-13993698D02*
X12784706Y-14012746D01*
X12784706Y-14012746D02*
X12794229Y-14022269D01*
X12794229Y-14022269D02*
X12813277Y-14031793D01*
X12813277Y-14031793D02*
X12851372Y-14031793D01*
X12851372Y-14031793D02*
X12870420Y-14022269D01*
X12870420Y-14022269D02*
X12879944Y-14012746D01*
X12879944Y-14012746D02*
X12889467Y-13993698D01*
X13079944Y-14107984D02*
X12965658Y-14107984D01*
X13022801Y-14107984D02*
X13022801Y-13907984D01*
X13022801Y-13907984D02*
X13003753Y-13936555D01*
X13003753Y-13936555D02*
X12984706Y-13955603D01*
X12984706Y-13955603D02*
X12965658Y-13965127D01*
X13156134Y-13907984D02*
X13156134Y-13946079D01*
X13232325Y-13907984D02*
X13232325Y-13946079D01*
X13527563Y-14184174D02*
X13518039Y-14174650D01*
X13518039Y-14174650D02*
X13498991Y-14146079D01*
X13498991Y-14146079D02*
X13489468Y-14127031D01*
X13489468Y-14127031D02*
X13479944Y-14098460D01*
X13479944Y-14098460D02*
X13470420Y-14050841D01*
X13470420Y-14050841D02*
X13470420Y-14012746D01*
X13470420Y-14012746D02*
X13479944Y-13965127D01*
X13479944Y-13965127D02*
X13489468Y-13936555D01*
X13489468Y-13936555D02*
X13498991Y-13917508D01*
X13498991Y-13917508D02*
X13518039Y-13888936D01*
X13518039Y-13888936D02*
X13527563Y-13879412D01*
X13708515Y-14107984D02*
X13594229Y-14107984D01*
X13651372Y-14107984D02*
X13651372Y-13907984D01*
X13651372Y-13907984D02*
X13632325Y-13936555D01*
X13632325Y-13936555D02*
X13613277Y-13955603D01*
X13613277Y-13955603D02*
X13594229Y-13965127D01*
X13822801Y-13993698D02*
X13803753Y-13984174D01*
X13803753Y-13984174D02*
X13794229Y-13974650D01*
X13794229Y-13974650D02*
X13784706Y-13955603D01*
X13784706Y-13955603D02*
X13784706Y-13946079D01*
X13784706Y-13946079D02*
X13794229Y-13927031D01*
X13794229Y-13927031D02*
X13803753Y-13917508D01*
X13803753Y-13917508D02*
X13822801Y-13907984D01*
X13822801Y-13907984D02*
X13860896Y-13907984D01*
X13860896Y-13907984D02*
X13879944Y-13917508D01*
X13879944Y-13917508D02*
X13889468Y-13927031D01*
X13889468Y-13927031D02*
X13898991Y-13946079D01*
X13898991Y-13946079D02*
X13898991Y-13955603D01*
X13898991Y-13955603D02*
X13889468Y-13974650D01*
X13889468Y-13974650D02*
X13879944Y-13984174D01*
X13879944Y-13984174D02*
X13860896Y-13993698D01*
X13860896Y-13993698D02*
X13822801Y-13993698D01*
X13822801Y-13993698D02*
X13803753Y-14003222D01*
X13803753Y-14003222D02*
X13794229Y-14012746D01*
X13794229Y-14012746D02*
X13784706Y-14031793D01*
X13784706Y-14031793D02*
X13784706Y-14069888D01*
X13784706Y-14069888D02*
X13794229Y-14088936D01*
X13794229Y-14088936D02*
X13803753Y-14098460D01*
X13803753Y-14098460D02*
X13822801Y-14107984D01*
X13822801Y-14107984D02*
X13860896Y-14107984D01*
X13860896Y-14107984D02*
X13879944Y-14098460D01*
X13879944Y-14098460D02*
X13889468Y-14088936D01*
X13889468Y-14088936D02*
X13898991Y-14069888D01*
X13898991Y-14069888D02*
X13898991Y-14031793D01*
X13898991Y-14031793D02*
X13889468Y-14012746D01*
X13889468Y-14012746D02*
X13879944Y-14003222D01*
X13879944Y-14003222D02*
X13860896Y-13993698D01*
X14137087Y-14107984D02*
X14137087Y-13907984D01*
X14222801Y-14107984D02*
X14222801Y-14003222D01*
X14222801Y-14003222D02*
X14213277Y-13984174D01*
X14213277Y-13984174D02*
X14194230Y-13974650D01*
X14194230Y-13974650D02*
X14165658Y-13974650D01*
X14165658Y-13974650D02*
X14146610Y-13984174D01*
X14146610Y-13984174D02*
X14137087Y-13993698D01*
X14346610Y-14107984D02*
X14327563Y-14098460D01*
X14327563Y-14098460D02*
X14318039Y-14088936D01*
X14318039Y-14088936D02*
X14308515Y-14069888D01*
X14308515Y-14069888D02*
X14308515Y-14012746D01*
X14308515Y-14012746D02*
X14318039Y-13993698D01*
X14318039Y-13993698D02*
X14327563Y-13984174D01*
X14327563Y-13984174D02*
X14346610Y-13974650D01*
X14346610Y-13974650D02*
X14375182Y-13974650D01*
X14375182Y-13974650D02*
X14394230Y-13984174D01*
X14394230Y-13984174D02*
X14403753Y-13993698D01*
X14403753Y-13993698D02*
X14413277Y-14012746D01*
X14413277Y-14012746D02*
X14413277Y-14069888D01*
X14413277Y-14069888D02*
X14403753Y-14088936D01*
X14403753Y-14088936D02*
X14394230Y-14098460D01*
X14394230Y-14098460D02*
X14375182Y-14107984D01*
X14375182Y-14107984D02*
X14346610Y-14107984D01*
X14527563Y-14107984D02*
X14508515Y-14098460D01*
X14508515Y-14098460D02*
X14498991Y-14079412D01*
X14498991Y-14079412D02*
X14498991Y-13907984D01*
X14679944Y-14098460D02*
X14660896Y-14107984D01*
X14660896Y-14107984D02*
X14622801Y-14107984D01*
X14622801Y-14107984D02*
X14603753Y-14098460D01*
X14603753Y-14098460D02*
X14594230Y-14079412D01*
X14594230Y-14079412D02*
X14594230Y-14003222D01*
X14594230Y-14003222D02*
X14603753Y-13984174D01*
X14603753Y-13984174D02*
X14622801Y-13974650D01*
X14622801Y-13974650D02*
X14660896Y-13974650D01*
X14660896Y-13974650D02*
X14679944Y-13984174D01*
X14679944Y-13984174D02*
X14689468Y-14003222D01*
X14689468Y-14003222D02*
X14689468Y-14022269D01*
X14689468Y-14022269D02*
X14594230Y-14041317D01*
X14765658Y-14098460D02*
X14784706Y-14107984D01*
X14784706Y-14107984D02*
X14822801Y-14107984D01*
X14822801Y-14107984D02*
X14841849Y-14098460D01*
X14841849Y-14098460D02*
X14851372Y-14079412D01*
X14851372Y-14079412D02*
X14851372Y-14069888D01*
X14851372Y-14069888D02*
X14841849Y-14050841D01*
X14841849Y-14050841D02*
X14822801Y-14041317D01*
X14822801Y-14041317D02*
X14794230Y-14041317D01*
X14794230Y-14041317D02*
X14775182Y-14031793D01*
X14775182Y-14031793D02*
X14765658Y-14012746D01*
X14765658Y-14012746D02*
X14765658Y-14003222D01*
X14765658Y-14003222D02*
X14775182Y-13984174D01*
X14775182Y-13984174D02*
X14794230Y-13974650D01*
X14794230Y-13974650D02*
X14822801Y-13974650D01*
X14822801Y-13974650D02*
X14841849Y-13984174D01*
X14918039Y-14184174D02*
X14927563Y-14174650D01*
X14927563Y-14174650D02*
X14946611Y-14146079D01*
X14946611Y-14146079D02*
X14956134Y-14127031D01*
X14956134Y-14127031D02*
X14965658Y-14098460D01*
X14965658Y-14098460D02*
X14975182Y-14050841D01*
X14975182Y-14050841D02*
X14975182Y-14012746D01*
X14975182Y-14012746D02*
X14965658Y-13965127D01*
X14965658Y-13965127D02*
X14956134Y-13936555D01*
X14956134Y-13936555D02*
X14946611Y-13917508D01*
X14946611Y-13917508D02*
X14927563Y-13888936D01*
X14927563Y-13888936D02*
X14918039Y-13879412D01*
M02*
