M48
; DRILL file {KiCad 8.0.1} date 2024-04-15T18:30:33+0200
; FORMAT={-:-/ absolute / inch / decimal}
; #@! TF.CreationDate,2024-04-15T18:30:33+02:00
; #@! TF.GenerationSoftware,Kicad,Pcbnew,8.0.1
; #@! TF.FileFunction,Plated,1,2,PTH
FMAT,2
INCH
; #@! TA.AperFunction,Plated,PTH,ComponentDrill
T1C0.0394
; #@! TA.AperFunction,Plated,PTH,ComponentDrill
T2C0.0591
%
G90
G05
T1
X7.1772Y-3.4616
X7.1772Y-3.5616
X7.1772Y-4.2362
X7.1772Y-4.3346
X7.1929Y-2.4685
X7.1929Y-2.5669
T2
X4.2244Y-2.5315
X4.2244Y-2.7283
X4.2244Y-3.1181
X4.2244Y-3.315
X4.4547Y-2.128
X4.4547Y-2.3445
X4.4547Y-2.9469
X4.4547Y-3.7126
X4.4547Y-3.9291
X4.4547Y-4.5315
X6.2264Y-2.6319
X6.2264Y-2.9469
X6.2264Y-4.2165
X6.2264Y-4.5315
X6.876Y-2.126
X6.876Y-2.4803
X6.876Y-3.7106
X6.876Y-4.065
M30
