%TF.GenerationSoftware,KiCad,Pcbnew,8.0.1*%
%TF.CreationDate,2024-04-15T18:30:33+02:00*%
%TF.ProjectId,Meanwell IRM Board,4d65616e-7765-46c6-9c20-49524d20426f,rev?*%
%TF.SameCoordinates,Original*%
%TF.FileFunction,Drillmap*%
%TF.FilePolarity,Positive*%
%FSLAX45Y45*%
G04 Gerber Fmt 4.5, Leading zero omitted, Abs format (unit mm)*
G04 Created by KiCad (PCBNEW 8.0.1) date 2024-04-15 18:30:33*
%MOMM*%
%LPD*%
G01*
G04 APERTURE LIST*
%ADD10C,0.050000*%
%ADD11C,0.200000*%
%ADD12C,0.350000*%
G04 APERTURE END LIST*
D10*
X9955000Y-4590000D02*
X18785000Y-4590000D01*
X18785000Y-13110000D01*
X9955000Y-13110000D01*
X9955000Y-4590000D01*
D11*
D12*
X10160000Y-4795000D02*
X10510000Y-5145000D01*
X10510000Y-4795000D02*
X10160000Y-5145000D01*
X10160000Y-12555000D02*
X10510000Y-12905000D01*
X10510000Y-12555000D02*
X10160000Y-12905000D01*
X18230000Y-4795000D02*
X18580000Y-5145000D01*
X18580000Y-4795000D02*
X18230000Y-5145000D01*
X18230000Y-12555000D02*
X18580000Y-12905000D01*
X18580000Y-12555000D02*
X18230000Y-12905000D01*
D11*
X10213277Y-13423984D02*
X10213277Y-13223984D01*
X10213277Y-13223984D02*
X10260896Y-13223984D01*
X10260896Y-13223984D02*
X10289467Y-13233508D01*
X10289467Y-13233508D02*
X10308515Y-13252555D01*
X10308515Y-13252555D02*
X10318039Y-13271603D01*
X10318039Y-13271603D02*
X10327563Y-13309698D01*
X10327563Y-13309698D02*
X10327563Y-13338269D01*
X10327563Y-13338269D02*
X10318039Y-13376365D01*
X10318039Y-13376365D02*
X10308515Y-13395412D01*
X10308515Y-13395412D02*
X10289467Y-13414460D01*
X10289467Y-13414460D02*
X10260896Y-13423984D01*
X10260896Y-13423984D02*
X10213277Y-13423984D01*
X10413277Y-13423984D02*
X10413277Y-13290650D01*
X10413277Y-13328746D02*
X10422801Y-13309698D01*
X10422801Y-13309698D02*
X10432324Y-13300174D01*
X10432324Y-13300174D02*
X10451372Y-13290650D01*
X10451372Y-13290650D02*
X10470420Y-13290650D01*
X10537086Y-13423984D02*
X10537086Y-13290650D01*
X10537086Y-13223984D02*
X10527563Y-13233508D01*
X10527563Y-13233508D02*
X10537086Y-13243031D01*
X10537086Y-13243031D02*
X10546610Y-13233508D01*
X10546610Y-13233508D02*
X10537086Y-13223984D01*
X10537086Y-13223984D02*
X10537086Y-13243031D01*
X10660896Y-13423984D02*
X10641848Y-13414460D01*
X10641848Y-13414460D02*
X10632324Y-13395412D01*
X10632324Y-13395412D02*
X10632324Y-13223984D01*
X10765658Y-13423984D02*
X10746610Y-13414460D01*
X10746610Y-13414460D02*
X10737086Y-13395412D01*
X10737086Y-13395412D02*
X10737086Y-13223984D01*
X10994229Y-13423984D02*
X10994229Y-13223984D01*
X10994229Y-13223984D02*
X11060896Y-13366841D01*
X11060896Y-13366841D02*
X11127563Y-13223984D01*
X11127563Y-13223984D02*
X11127563Y-13423984D01*
X11308515Y-13423984D02*
X11308515Y-13319222D01*
X11308515Y-13319222D02*
X11298991Y-13300174D01*
X11298991Y-13300174D02*
X11279943Y-13290650D01*
X11279943Y-13290650D02*
X11241848Y-13290650D01*
X11241848Y-13290650D02*
X11222801Y-13300174D01*
X11308515Y-13414460D02*
X11289467Y-13423984D01*
X11289467Y-13423984D02*
X11241848Y-13423984D01*
X11241848Y-13423984D02*
X11222801Y-13414460D01*
X11222801Y-13414460D02*
X11213277Y-13395412D01*
X11213277Y-13395412D02*
X11213277Y-13376365D01*
X11213277Y-13376365D02*
X11222801Y-13357317D01*
X11222801Y-13357317D02*
X11241848Y-13347793D01*
X11241848Y-13347793D02*
X11289467Y-13347793D01*
X11289467Y-13347793D02*
X11308515Y-13338269D01*
X11403753Y-13290650D02*
X11403753Y-13490650D01*
X11403753Y-13300174D02*
X11422801Y-13290650D01*
X11422801Y-13290650D02*
X11460896Y-13290650D01*
X11460896Y-13290650D02*
X11479943Y-13300174D01*
X11479943Y-13300174D02*
X11489467Y-13309698D01*
X11489467Y-13309698D02*
X11498991Y-13328746D01*
X11498991Y-13328746D02*
X11498991Y-13385888D01*
X11498991Y-13385888D02*
X11489467Y-13404936D01*
X11489467Y-13404936D02*
X11479943Y-13414460D01*
X11479943Y-13414460D02*
X11460896Y-13423984D01*
X11460896Y-13423984D02*
X11422801Y-13423984D01*
X11422801Y-13423984D02*
X11403753Y-13414460D01*
X11584705Y-13404936D02*
X11594229Y-13414460D01*
X11594229Y-13414460D02*
X11584705Y-13423984D01*
X11584705Y-13423984D02*
X11575182Y-13414460D01*
X11575182Y-13414460D02*
X11584705Y-13404936D01*
X11584705Y-13404936D02*
X11584705Y-13423984D01*
X11584705Y-13300174D02*
X11594229Y-13309698D01*
X11594229Y-13309698D02*
X11584705Y-13319222D01*
X11584705Y-13319222D02*
X11575182Y-13309698D01*
X11575182Y-13309698D02*
X11584705Y-13300174D01*
X11584705Y-13300174D02*
X11584705Y-13319222D01*
X9752500Y-13652500D02*
X9952500Y-13852500D01*
X9952500Y-13652500D02*
X9752500Y-13852500D01*
X10194229Y-13643984D02*
X10318039Y-13643984D01*
X10318039Y-13643984D02*
X10251372Y-13720174D01*
X10251372Y-13720174D02*
X10279944Y-13720174D01*
X10279944Y-13720174D02*
X10298991Y-13729698D01*
X10298991Y-13729698D02*
X10308515Y-13739222D01*
X10308515Y-13739222D02*
X10318039Y-13758269D01*
X10318039Y-13758269D02*
X10318039Y-13805888D01*
X10318039Y-13805888D02*
X10308515Y-13824936D01*
X10308515Y-13824936D02*
X10298991Y-13834460D01*
X10298991Y-13834460D02*
X10279944Y-13843984D01*
X10279944Y-13843984D02*
X10222801Y-13843984D01*
X10222801Y-13843984D02*
X10203753Y-13834460D01*
X10203753Y-13834460D02*
X10194229Y-13824936D01*
X10403753Y-13824936D02*
X10413277Y-13834460D01*
X10413277Y-13834460D02*
X10403753Y-13843984D01*
X10403753Y-13843984D02*
X10394229Y-13834460D01*
X10394229Y-13834460D02*
X10403753Y-13824936D01*
X10403753Y-13824936D02*
X10403753Y-13843984D01*
X10594229Y-13643984D02*
X10498991Y-13643984D01*
X10498991Y-13643984D02*
X10489467Y-13739222D01*
X10489467Y-13739222D02*
X10498991Y-13729698D01*
X10498991Y-13729698D02*
X10518039Y-13720174D01*
X10518039Y-13720174D02*
X10565658Y-13720174D01*
X10565658Y-13720174D02*
X10584705Y-13729698D01*
X10584705Y-13729698D02*
X10594229Y-13739222D01*
X10594229Y-13739222D02*
X10603753Y-13758269D01*
X10603753Y-13758269D02*
X10603753Y-13805888D01*
X10603753Y-13805888D02*
X10594229Y-13824936D01*
X10594229Y-13824936D02*
X10584705Y-13834460D01*
X10584705Y-13834460D02*
X10565658Y-13843984D01*
X10565658Y-13843984D02*
X10518039Y-13843984D01*
X10518039Y-13843984D02*
X10498991Y-13834460D01*
X10498991Y-13834460D02*
X10489467Y-13824936D01*
X10727563Y-13643984D02*
X10746610Y-13643984D01*
X10746610Y-13643984D02*
X10765658Y-13653508D01*
X10765658Y-13653508D02*
X10775182Y-13663031D01*
X10775182Y-13663031D02*
X10784705Y-13682079D01*
X10784705Y-13682079D02*
X10794229Y-13720174D01*
X10794229Y-13720174D02*
X10794229Y-13767793D01*
X10794229Y-13767793D02*
X10784705Y-13805888D01*
X10784705Y-13805888D02*
X10775182Y-13824936D01*
X10775182Y-13824936D02*
X10765658Y-13834460D01*
X10765658Y-13834460D02*
X10746610Y-13843984D01*
X10746610Y-13843984D02*
X10727563Y-13843984D01*
X10727563Y-13843984D02*
X10708515Y-13834460D01*
X10708515Y-13834460D02*
X10698991Y-13824936D01*
X10698991Y-13824936D02*
X10689467Y-13805888D01*
X10689467Y-13805888D02*
X10679944Y-13767793D01*
X10679944Y-13767793D02*
X10679944Y-13720174D01*
X10679944Y-13720174D02*
X10689467Y-13682079D01*
X10689467Y-13682079D02*
X10698991Y-13663031D01*
X10698991Y-13663031D02*
X10708515Y-13653508D01*
X10708515Y-13653508D02*
X10727563Y-13643984D01*
X10918039Y-13643984D02*
X10937086Y-13643984D01*
X10937086Y-13643984D02*
X10956134Y-13653508D01*
X10956134Y-13653508D02*
X10965658Y-13663031D01*
X10965658Y-13663031D02*
X10975182Y-13682079D01*
X10975182Y-13682079D02*
X10984705Y-13720174D01*
X10984705Y-13720174D02*
X10984705Y-13767793D01*
X10984705Y-13767793D02*
X10975182Y-13805888D01*
X10975182Y-13805888D02*
X10965658Y-13824936D01*
X10965658Y-13824936D02*
X10956134Y-13834460D01*
X10956134Y-13834460D02*
X10937086Y-13843984D01*
X10937086Y-13843984D02*
X10918039Y-13843984D01*
X10918039Y-13843984D02*
X10898991Y-13834460D01*
X10898991Y-13834460D02*
X10889467Y-13824936D01*
X10889467Y-13824936D02*
X10879944Y-13805888D01*
X10879944Y-13805888D02*
X10870420Y-13767793D01*
X10870420Y-13767793D02*
X10870420Y-13720174D01*
X10870420Y-13720174D02*
X10879944Y-13682079D01*
X10879944Y-13682079D02*
X10889467Y-13663031D01*
X10889467Y-13663031D02*
X10898991Y-13653508D01*
X10898991Y-13653508D02*
X10918039Y-13643984D01*
X11070420Y-13843984D02*
X11070420Y-13710650D01*
X11070420Y-13729698D02*
X11079944Y-13720174D01*
X11079944Y-13720174D02*
X11098991Y-13710650D01*
X11098991Y-13710650D02*
X11127563Y-13710650D01*
X11127563Y-13710650D02*
X11146610Y-13720174D01*
X11146610Y-13720174D02*
X11156134Y-13739222D01*
X11156134Y-13739222D02*
X11156134Y-13843984D01*
X11156134Y-13739222D02*
X11165658Y-13720174D01*
X11165658Y-13720174D02*
X11184705Y-13710650D01*
X11184705Y-13710650D02*
X11213277Y-13710650D01*
X11213277Y-13710650D02*
X11232324Y-13720174D01*
X11232324Y-13720174D02*
X11241848Y-13739222D01*
X11241848Y-13739222D02*
X11241848Y-13843984D01*
X11337086Y-13843984D02*
X11337086Y-13710650D01*
X11337086Y-13729698D02*
X11346610Y-13720174D01*
X11346610Y-13720174D02*
X11365658Y-13710650D01*
X11365658Y-13710650D02*
X11394229Y-13710650D01*
X11394229Y-13710650D02*
X11413277Y-13720174D01*
X11413277Y-13720174D02*
X11422801Y-13739222D01*
X11422801Y-13739222D02*
X11422801Y-13843984D01*
X11422801Y-13739222D02*
X11432324Y-13720174D01*
X11432324Y-13720174D02*
X11451372Y-13710650D01*
X11451372Y-13710650D02*
X11479943Y-13710650D01*
X11479943Y-13710650D02*
X11498991Y-13720174D01*
X11498991Y-13720174D02*
X11508515Y-13739222D01*
X11508515Y-13739222D02*
X11508515Y-13843984D01*
X11898991Y-13634460D02*
X11727563Y-13891603D01*
X12156134Y-13643984D02*
X12175182Y-13643984D01*
X12175182Y-13643984D02*
X12194229Y-13653508D01*
X12194229Y-13653508D02*
X12203753Y-13663031D01*
X12203753Y-13663031D02*
X12213277Y-13682079D01*
X12213277Y-13682079D02*
X12222801Y-13720174D01*
X12222801Y-13720174D02*
X12222801Y-13767793D01*
X12222801Y-13767793D02*
X12213277Y-13805888D01*
X12213277Y-13805888D02*
X12203753Y-13824936D01*
X12203753Y-13824936D02*
X12194229Y-13834460D01*
X12194229Y-13834460D02*
X12175182Y-13843984D01*
X12175182Y-13843984D02*
X12156134Y-13843984D01*
X12156134Y-13843984D02*
X12137086Y-13834460D01*
X12137086Y-13834460D02*
X12127563Y-13824936D01*
X12127563Y-13824936D02*
X12118039Y-13805888D01*
X12118039Y-13805888D02*
X12108515Y-13767793D01*
X12108515Y-13767793D02*
X12108515Y-13720174D01*
X12108515Y-13720174D02*
X12118039Y-13682079D01*
X12118039Y-13682079D02*
X12127563Y-13663031D01*
X12127563Y-13663031D02*
X12137086Y-13653508D01*
X12137086Y-13653508D02*
X12156134Y-13643984D01*
X12308515Y-13824936D02*
X12318039Y-13834460D01*
X12318039Y-13834460D02*
X12308515Y-13843984D01*
X12308515Y-13843984D02*
X12298991Y-13834460D01*
X12298991Y-13834460D02*
X12308515Y-13824936D01*
X12308515Y-13824936D02*
X12308515Y-13843984D01*
X12508515Y-13843984D02*
X12394229Y-13843984D01*
X12451372Y-13843984D02*
X12451372Y-13643984D01*
X12451372Y-13643984D02*
X12432325Y-13672555D01*
X12432325Y-13672555D02*
X12413277Y-13691603D01*
X12413277Y-13691603D02*
X12394229Y-13701127D01*
X12575182Y-13643984D02*
X12698991Y-13643984D01*
X12698991Y-13643984D02*
X12632325Y-13720174D01*
X12632325Y-13720174D02*
X12660896Y-13720174D01*
X12660896Y-13720174D02*
X12679944Y-13729698D01*
X12679944Y-13729698D02*
X12689467Y-13739222D01*
X12689467Y-13739222D02*
X12698991Y-13758269D01*
X12698991Y-13758269D02*
X12698991Y-13805888D01*
X12698991Y-13805888D02*
X12689467Y-13824936D01*
X12689467Y-13824936D02*
X12679944Y-13834460D01*
X12679944Y-13834460D02*
X12660896Y-13843984D01*
X12660896Y-13843984D02*
X12603753Y-13843984D01*
X12603753Y-13843984D02*
X12584706Y-13834460D01*
X12584706Y-13834460D02*
X12575182Y-13824936D01*
X12765658Y-13643984D02*
X12898991Y-13643984D01*
X12898991Y-13643984D02*
X12813277Y-13843984D01*
X13003753Y-13729698D02*
X12984706Y-13720174D01*
X12984706Y-13720174D02*
X12975182Y-13710650D01*
X12975182Y-13710650D02*
X12965658Y-13691603D01*
X12965658Y-13691603D02*
X12965658Y-13682079D01*
X12965658Y-13682079D02*
X12975182Y-13663031D01*
X12975182Y-13663031D02*
X12984706Y-13653508D01*
X12984706Y-13653508D02*
X13003753Y-13643984D01*
X13003753Y-13643984D02*
X13041848Y-13643984D01*
X13041848Y-13643984D02*
X13060896Y-13653508D01*
X13060896Y-13653508D02*
X13070420Y-13663031D01*
X13070420Y-13663031D02*
X13079944Y-13682079D01*
X13079944Y-13682079D02*
X13079944Y-13691603D01*
X13079944Y-13691603D02*
X13070420Y-13710650D01*
X13070420Y-13710650D02*
X13060896Y-13720174D01*
X13060896Y-13720174D02*
X13041848Y-13729698D01*
X13041848Y-13729698D02*
X13003753Y-13729698D01*
X13003753Y-13729698D02*
X12984706Y-13739222D01*
X12984706Y-13739222D02*
X12975182Y-13748746D01*
X12975182Y-13748746D02*
X12965658Y-13767793D01*
X12965658Y-13767793D02*
X12965658Y-13805888D01*
X12965658Y-13805888D02*
X12975182Y-13824936D01*
X12975182Y-13824936D02*
X12984706Y-13834460D01*
X12984706Y-13834460D02*
X13003753Y-13843984D01*
X13003753Y-13843984D02*
X13041848Y-13843984D01*
X13041848Y-13843984D02*
X13060896Y-13834460D01*
X13060896Y-13834460D02*
X13070420Y-13824936D01*
X13070420Y-13824936D02*
X13079944Y-13805888D01*
X13079944Y-13805888D02*
X13079944Y-13767793D01*
X13079944Y-13767793D02*
X13070420Y-13748746D01*
X13070420Y-13748746D02*
X13060896Y-13739222D01*
X13060896Y-13739222D02*
X13041848Y-13729698D01*
X13156134Y-13643984D02*
X13156134Y-13682079D01*
X13232325Y-13643984D02*
X13232325Y-13682079D01*
X13527563Y-13920174D02*
X13518039Y-13910650D01*
X13518039Y-13910650D02*
X13498991Y-13882079D01*
X13498991Y-13882079D02*
X13489468Y-13863031D01*
X13489468Y-13863031D02*
X13479944Y-13834460D01*
X13479944Y-13834460D02*
X13470420Y-13786841D01*
X13470420Y-13786841D02*
X13470420Y-13748746D01*
X13470420Y-13748746D02*
X13479944Y-13701127D01*
X13479944Y-13701127D02*
X13489468Y-13672555D01*
X13489468Y-13672555D02*
X13498991Y-13653508D01*
X13498991Y-13653508D02*
X13518039Y-13624936D01*
X13518039Y-13624936D02*
X13527563Y-13615412D01*
X13689468Y-13710650D02*
X13689468Y-13843984D01*
X13641848Y-13634460D02*
X13594229Y-13777317D01*
X13594229Y-13777317D02*
X13718039Y-13777317D01*
X13946610Y-13843984D02*
X13946610Y-13643984D01*
X14032325Y-13843984D02*
X14032325Y-13739222D01*
X14032325Y-13739222D02*
X14022801Y-13720174D01*
X14022801Y-13720174D02*
X14003753Y-13710650D01*
X14003753Y-13710650D02*
X13975182Y-13710650D01*
X13975182Y-13710650D02*
X13956134Y-13720174D01*
X13956134Y-13720174D02*
X13946610Y-13729698D01*
X14156134Y-13843984D02*
X14137087Y-13834460D01*
X14137087Y-13834460D02*
X14127563Y-13824936D01*
X14127563Y-13824936D02*
X14118039Y-13805888D01*
X14118039Y-13805888D02*
X14118039Y-13748746D01*
X14118039Y-13748746D02*
X14127563Y-13729698D01*
X14127563Y-13729698D02*
X14137087Y-13720174D01*
X14137087Y-13720174D02*
X14156134Y-13710650D01*
X14156134Y-13710650D02*
X14184706Y-13710650D01*
X14184706Y-13710650D02*
X14203753Y-13720174D01*
X14203753Y-13720174D02*
X14213277Y-13729698D01*
X14213277Y-13729698D02*
X14222801Y-13748746D01*
X14222801Y-13748746D02*
X14222801Y-13805888D01*
X14222801Y-13805888D02*
X14213277Y-13824936D01*
X14213277Y-13824936D02*
X14203753Y-13834460D01*
X14203753Y-13834460D02*
X14184706Y-13843984D01*
X14184706Y-13843984D02*
X14156134Y-13843984D01*
X14337087Y-13843984D02*
X14318039Y-13834460D01*
X14318039Y-13834460D02*
X14308515Y-13815412D01*
X14308515Y-13815412D02*
X14308515Y-13643984D01*
X14489468Y-13834460D02*
X14470420Y-13843984D01*
X14470420Y-13843984D02*
X14432325Y-13843984D01*
X14432325Y-13843984D02*
X14413277Y-13834460D01*
X14413277Y-13834460D02*
X14403753Y-13815412D01*
X14403753Y-13815412D02*
X14403753Y-13739222D01*
X14403753Y-13739222D02*
X14413277Y-13720174D01*
X14413277Y-13720174D02*
X14432325Y-13710650D01*
X14432325Y-13710650D02*
X14470420Y-13710650D01*
X14470420Y-13710650D02*
X14489468Y-13720174D01*
X14489468Y-13720174D02*
X14498991Y-13739222D01*
X14498991Y-13739222D02*
X14498991Y-13758269D01*
X14498991Y-13758269D02*
X14403753Y-13777317D01*
X14575182Y-13834460D02*
X14594230Y-13843984D01*
X14594230Y-13843984D02*
X14632325Y-13843984D01*
X14632325Y-13843984D02*
X14651372Y-13834460D01*
X14651372Y-13834460D02*
X14660896Y-13815412D01*
X14660896Y-13815412D02*
X14660896Y-13805888D01*
X14660896Y-13805888D02*
X14651372Y-13786841D01*
X14651372Y-13786841D02*
X14632325Y-13777317D01*
X14632325Y-13777317D02*
X14603753Y-13777317D01*
X14603753Y-13777317D02*
X14584706Y-13767793D01*
X14584706Y-13767793D02*
X14575182Y-13748746D01*
X14575182Y-13748746D02*
X14575182Y-13739222D01*
X14575182Y-13739222D02*
X14584706Y-13720174D01*
X14584706Y-13720174D02*
X14603753Y-13710650D01*
X14603753Y-13710650D02*
X14632325Y-13710650D01*
X14632325Y-13710650D02*
X14651372Y-13720174D01*
X14727563Y-13920174D02*
X14737087Y-13910650D01*
X14737087Y-13910650D02*
X14756134Y-13882079D01*
X14756134Y-13882079D02*
X14765658Y-13863031D01*
X14765658Y-13863031D02*
X14775182Y-13834460D01*
X14775182Y-13834460D02*
X14784706Y-13786841D01*
X14784706Y-13786841D02*
X14784706Y-13748746D01*
X14784706Y-13748746D02*
X14775182Y-13701127D01*
X14775182Y-13701127D02*
X14765658Y-13672555D01*
X14765658Y-13672555D02*
X14756134Y-13653508D01*
X14756134Y-13653508D02*
X14737087Y-13624936D01*
X14737087Y-13624936D02*
X14727563Y-13615412D01*
X15089468Y-13920174D02*
X15079944Y-13910650D01*
X15079944Y-13910650D02*
X15060896Y-13882079D01*
X15060896Y-13882079D02*
X15051372Y-13863031D01*
X15051372Y-13863031D02*
X15041849Y-13834460D01*
X15041849Y-13834460D02*
X15032325Y-13786841D01*
X15032325Y-13786841D02*
X15032325Y-13748746D01*
X15032325Y-13748746D02*
X15041849Y-13701127D01*
X15041849Y-13701127D02*
X15051372Y-13672555D01*
X15051372Y-13672555D02*
X15060896Y-13653508D01*
X15060896Y-13653508D02*
X15079944Y-13624936D01*
X15079944Y-13624936D02*
X15089468Y-13615412D01*
X15165658Y-13710650D02*
X15165658Y-13843984D01*
X15165658Y-13729698D02*
X15175182Y-13720174D01*
X15175182Y-13720174D02*
X15194230Y-13710650D01*
X15194230Y-13710650D02*
X15222801Y-13710650D01*
X15222801Y-13710650D02*
X15241849Y-13720174D01*
X15241849Y-13720174D02*
X15251372Y-13739222D01*
X15251372Y-13739222D02*
X15251372Y-13843984D01*
X15375182Y-13843984D02*
X15356134Y-13834460D01*
X15356134Y-13834460D02*
X15346611Y-13824936D01*
X15346611Y-13824936D02*
X15337087Y-13805888D01*
X15337087Y-13805888D02*
X15337087Y-13748746D01*
X15337087Y-13748746D02*
X15346611Y-13729698D01*
X15346611Y-13729698D02*
X15356134Y-13720174D01*
X15356134Y-13720174D02*
X15375182Y-13710650D01*
X15375182Y-13710650D02*
X15403753Y-13710650D01*
X15403753Y-13710650D02*
X15422801Y-13720174D01*
X15422801Y-13720174D02*
X15432325Y-13729698D01*
X15432325Y-13729698D02*
X15441849Y-13748746D01*
X15441849Y-13748746D02*
X15441849Y-13805888D01*
X15441849Y-13805888D02*
X15432325Y-13824936D01*
X15432325Y-13824936D02*
X15422801Y-13834460D01*
X15422801Y-13834460D02*
X15403753Y-13843984D01*
X15403753Y-13843984D02*
X15375182Y-13843984D01*
X15498992Y-13710650D02*
X15575182Y-13710650D01*
X15527563Y-13643984D02*
X15527563Y-13815412D01*
X15527563Y-13815412D02*
X15537087Y-13834460D01*
X15537087Y-13834460D02*
X15556134Y-13843984D01*
X15556134Y-13843984D02*
X15575182Y-13843984D01*
X15794230Y-13710650D02*
X15794230Y-13910650D01*
X15794230Y-13720174D02*
X15813277Y-13710650D01*
X15813277Y-13710650D02*
X15851373Y-13710650D01*
X15851373Y-13710650D02*
X15870420Y-13720174D01*
X15870420Y-13720174D02*
X15879944Y-13729698D01*
X15879944Y-13729698D02*
X15889468Y-13748746D01*
X15889468Y-13748746D02*
X15889468Y-13805888D01*
X15889468Y-13805888D02*
X15879944Y-13824936D01*
X15879944Y-13824936D02*
X15870420Y-13834460D01*
X15870420Y-13834460D02*
X15851373Y-13843984D01*
X15851373Y-13843984D02*
X15813277Y-13843984D01*
X15813277Y-13843984D02*
X15794230Y-13834460D01*
X16003753Y-13843984D02*
X15984706Y-13834460D01*
X15984706Y-13834460D02*
X15975182Y-13815412D01*
X15975182Y-13815412D02*
X15975182Y-13643984D01*
X16165658Y-13843984D02*
X16165658Y-13739222D01*
X16165658Y-13739222D02*
X16156134Y-13720174D01*
X16156134Y-13720174D02*
X16137087Y-13710650D01*
X16137087Y-13710650D02*
X16098992Y-13710650D01*
X16098992Y-13710650D02*
X16079944Y-13720174D01*
X16165658Y-13834460D02*
X16146611Y-13843984D01*
X16146611Y-13843984D02*
X16098992Y-13843984D01*
X16098992Y-13843984D02*
X16079944Y-13834460D01*
X16079944Y-13834460D02*
X16070420Y-13815412D01*
X16070420Y-13815412D02*
X16070420Y-13796365D01*
X16070420Y-13796365D02*
X16079944Y-13777317D01*
X16079944Y-13777317D02*
X16098992Y-13767793D01*
X16098992Y-13767793D02*
X16146611Y-13767793D01*
X16146611Y-13767793D02*
X16165658Y-13758269D01*
X16232325Y-13710650D02*
X16308515Y-13710650D01*
X16260896Y-13643984D02*
X16260896Y-13815412D01*
X16260896Y-13815412D02*
X16270420Y-13834460D01*
X16270420Y-13834460D02*
X16289468Y-13843984D01*
X16289468Y-13843984D02*
X16308515Y-13843984D01*
X16451373Y-13834460D02*
X16432325Y-13843984D01*
X16432325Y-13843984D02*
X16394230Y-13843984D01*
X16394230Y-13843984D02*
X16375182Y-13834460D01*
X16375182Y-13834460D02*
X16365658Y-13815412D01*
X16365658Y-13815412D02*
X16365658Y-13739222D01*
X16365658Y-13739222D02*
X16375182Y-13720174D01*
X16375182Y-13720174D02*
X16394230Y-13710650D01*
X16394230Y-13710650D02*
X16432325Y-13710650D01*
X16432325Y-13710650D02*
X16451373Y-13720174D01*
X16451373Y-13720174D02*
X16460896Y-13739222D01*
X16460896Y-13739222D02*
X16460896Y-13758269D01*
X16460896Y-13758269D02*
X16365658Y-13777317D01*
X16632325Y-13843984D02*
X16632325Y-13643984D01*
X16632325Y-13834460D02*
X16613277Y-13843984D01*
X16613277Y-13843984D02*
X16575182Y-13843984D01*
X16575182Y-13843984D02*
X16556134Y-13834460D01*
X16556134Y-13834460D02*
X16546611Y-13824936D01*
X16546611Y-13824936D02*
X16537087Y-13805888D01*
X16537087Y-13805888D02*
X16537087Y-13748746D01*
X16537087Y-13748746D02*
X16546611Y-13729698D01*
X16546611Y-13729698D02*
X16556134Y-13720174D01*
X16556134Y-13720174D02*
X16575182Y-13710650D01*
X16575182Y-13710650D02*
X16613277Y-13710650D01*
X16613277Y-13710650D02*
X16632325Y-13720174D01*
X16708515Y-13920174D02*
X16718039Y-13910650D01*
X16718039Y-13910650D02*
X16737087Y-13882079D01*
X16737087Y-13882079D02*
X16746611Y-13863031D01*
X16746611Y-13863031D02*
X16756134Y-13834460D01*
X16756134Y-13834460D02*
X16765658Y-13786841D01*
X16765658Y-13786841D02*
X16765658Y-13748746D01*
X16765658Y-13748746D02*
X16756134Y-13701127D01*
X16756134Y-13701127D02*
X16746611Y-13672555D01*
X16746611Y-13672555D02*
X16737087Y-13653508D01*
X16737087Y-13653508D02*
X16718039Y-13624936D01*
X16718039Y-13624936D02*
X16708515Y-13615412D01*
M02*
