%TF.GenerationSoftware,KiCad,Pcbnew,8.0.1*%
%TF.CreationDate,2024-04-15T18:30:32+02:00*%
%TF.ProjectId,Meanwell IRM Board,4d65616e-7765-46c6-9c20-49524d20426f,rev?*%
%TF.SameCoordinates,Original*%
%TF.FileFunction,Legend,Top*%
%TF.FilePolarity,Positive*%
%FSLAX46Y46*%
G04 Gerber Fmt 4.6, Leading zero omitted, Abs format (unit mm)*
G04 Created by KiCad (PCBNEW 8.0.1) date 2024-04-15 18:30:32*
%MOMM*%
%LPD*%
G01*
G04 APERTURE LIST*
%ADD10C,0.150000*%
%ADD11C,0.300000*%
%ADD12C,0.200000*%
%ADD13C,0.120000*%
G04 APERTURE END LIST*
D10*
X185280149Y-99640477D02*
X185318245Y-99678573D01*
X185318245Y-99678573D02*
X185356340Y-99792858D01*
X185356340Y-99792858D02*
X185356340Y-99869049D01*
X185356340Y-99869049D02*
X185318245Y-99983335D01*
X185318245Y-99983335D02*
X185242054Y-100059525D01*
X185242054Y-100059525D02*
X185165864Y-100097620D01*
X185165864Y-100097620D02*
X185013483Y-100135716D01*
X185013483Y-100135716D02*
X184899197Y-100135716D01*
X184899197Y-100135716D02*
X184746816Y-100097620D01*
X184746816Y-100097620D02*
X184670625Y-100059525D01*
X184670625Y-100059525D02*
X184594435Y-99983335D01*
X184594435Y-99983335D02*
X184556340Y-99869049D01*
X184556340Y-99869049D02*
X184556340Y-99792858D01*
X184556340Y-99792858D02*
X184594435Y-99678573D01*
X184594435Y-99678573D02*
X184632530Y-99640477D01*
X185356340Y-99183335D02*
X185318245Y-99259525D01*
X185318245Y-99259525D02*
X185280149Y-99297620D01*
X185280149Y-99297620D02*
X185203959Y-99335716D01*
X185203959Y-99335716D02*
X184975387Y-99335716D01*
X184975387Y-99335716D02*
X184899197Y-99297620D01*
X184899197Y-99297620D02*
X184861102Y-99259525D01*
X184861102Y-99259525D02*
X184823006Y-99183335D01*
X184823006Y-99183335D02*
X184823006Y-99069049D01*
X184823006Y-99069049D02*
X184861102Y-98992858D01*
X184861102Y-98992858D02*
X184899197Y-98954763D01*
X184899197Y-98954763D02*
X184975387Y-98916668D01*
X184975387Y-98916668D02*
X185203959Y-98916668D01*
X185203959Y-98916668D02*
X185280149Y-98954763D01*
X185280149Y-98954763D02*
X185318245Y-98992858D01*
X185318245Y-98992858D02*
X185356340Y-99069049D01*
X185356340Y-99069049D02*
X185356340Y-99183335D01*
X184823006Y-98573810D02*
X185356340Y-98573810D01*
X184899197Y-98573810D02*
X184861102Y-98535715D01*
X184861102Y-98535715D02*
X184823006Y-98459525D01*
X184823006Y-98459525D02*
X184823006Y-98345239D01*
X184823006Y-98345239D02*
X184861102Y-98269048D01*
X184861102Y-98269048D02*
X184937292Y-98230953D01*
X184937292Y-98230953D02*
X185356340Y-98230953D01*
X184823006Y-97850000D02*
X185356340Y-97850000D01*
X184899197Y-97850000D02*
X184861102Y-97811905D01*
X184861102Y-97811905D02*
X184823006Y-97735715D01*
X184823006Y-97735715D02*
X184823006Y-97621429D01*
X184823006Y-97621429D02*
X184861102Y-97545238D01*
X184861102Y-97545238D02*
X184937292Y-97507143D01*
X184937292Y-97507143D02*
X185356340Y-97507143D01*
X185318245Y-96821428D02*
X185356340Y-96897619D01*
X185356340Y-96897619D02*
X185356340Y-97050000D01*
X185356340Y-97050000D02*
X185318245Y-97126190D01*
X185318245Y-97126190D02*
X185242054Y-97164286D01*
X185242054Y-97164286D02*
X184937292Y-97164286D01*
X184937292Y-97164286D02*
X184861102Y-97126190D01*
X184861102Y-97126190D02*
X184823006Y-97050000D01*
X184823006Y-97050000D02*
X184823006Y-96897619D01*
X184823006Y-96897619D02*
X184861102Y-96821428D01*
X184861102Y-96821428D02*
X184937292Y-96783333D01*
X184937292Y-96783333D02*
X185013483Y-96783333D01*
X185013483Y-96783333D02*
X185089673Y-97164286D01*
X185318245Y-96097619D02*
X185356340Y-96173810D01*
X185356340Y-96173810D02*
X185356340Y-96326191D01*
X185356340Y-96326191D02*
X185318245Y-96402381D01*
X185318245Y-96402381D02*
X185280149Y-96440476D01*
X185280149Y-96440476D02*
X185203959Y-96478572D01*
X185203959Y-96478572D02*
X184975387Y-96478572D01*
X184975387Y-96478572D02*
X184899197Y-96440476D01*
X184899197Y-96440476D02*
X184861102Y-96402381D01*
X184861102Y-96402381D02*
X184823006Y-96326191D01*
X184823006Y-96326191D02*
X184823006Y-96173810D01*
X184823006Y-96173810D02*
X184861102Y-96097619D01*
X184823006Y-95869048D02*
X184823006Y-95564286D01*
X184556340Y-95754762D02*
X185242054Y-95754762D01*
X185242054Y-95754762D02*
X185318245Y-95716667D01*
X185318245Y-95716667D02*
X185356340Y-95640477D01*
X185356340Y-95640477D02*
X185356340Y-95564286D01*
X185318245Y-95335715D02*
X185356340Y-95259524D01*
X185356340Y-95259524D02*
X185356340Y-95107143D01*
X185356340Y-95107143D02*
X185318245Y-95030953D01*
X185318245Y-95030953D02*
X185242054Y-94992857D01*
X185242054Y-94992857D02*
X185203959Y-94992857D01*
X185203959Y-94992857D02*
X185127768Y-95030953D01*
X185127768Y-95030953D02*
X185089673Y-95107143D01*
X185089673Y-95107143D02*
X185089673Y-95221429D01*
X185089673Y-95221429D02*
X185051578Y-95297619D01*
X185051578Y-95297619D02*
X184975387Y-95335715D01*
X184975387Y-95335715D02*
X184937292Y-95335715D01*
X184937292Y-95335715D02*
X184861102Y-95297619D01*
X184861102Y-95297619D02*
X184823006Y-95221429D01*
X184823006Y-95221429D02*
X184823006Y-95107143D01*
X184823006Y-95107143D02*
X184861102Y-95030953D01*
X184556340Y-94154762D02*
X185356340Y-93888095D01*
X185356340Y-93888095D02*
X184556340Y-93621429D01*
X185051578Y-93354762D02*
X185051578Y-92745239D01*
X185356340Y-91640477D02*
X185318245Y-91716667D01*
X185318245Y-91716667D02*
X185280149Y-91754762D01*
X185280149Y-91754762D02*
X185203959Y-91792858D01*
X185203959Y-91792858D02*
X184975387Y-91792858D01*
X184975387Y-91792858D02*
X184899197Y-91754762D01*
X184899197Y-91754762D02*
X184861102Y-91716667D01*
X184861102Y-91716667D02*
X184823006Y-91640477D01*
X184823006Y-91640477D02*
X184823006Y-91526191D01*
X184823006Y-91526191D02*
X184861102Y-91450000D01*
X184861102Y-91450000D02*
X184899197Y-91411905D01*
X184899197Y-91411905D02*
X184975387Y-91373810D01*
X184975387Y-91373810D02*
X185203959Y-91373810D01*
X185203959Y-91373810D02*
X185280149Y-91411905D01*
X185280149Y-91411905D02*
X185318245Y-91450000D01*
X185318245Y-91450000D02*
X185356340Y-91526191D01*
X185356340Y-91526191D02*
X185356340Y-91640477D01*
X184823006Y-91145238D02*
X184823006Y-90840476D01*
X185356340Y-91030952D02*
X184670625Y-91030952D01*
X184670625Y-91030952D02*
X184594435Y-90992857D01*
X184594435Y-90992857D02*
X184556340Y-90916667D01*
X184556340Y-90916667D02*
X184556340Y-90840476D01*
X185356340Y-89964285D02*
X184556340Y-89964285D01*
X184556340Y-89964285D02*
X184556340Y-89659523D01*
X184556340Y-89659523D02*
X184594435Y-89583333D01*
X184594435Y-89583333D02*
X184632530Y-89545238D01*
X184632530Y-89545238D02*
X184708721Y-89507142D01*
X184708721Y-89507142D02*
X184823006Y-89507142D01*
X184823006Y-89507142D02*
X184899197Y-89545238D01*
X184899197Y-89545238D02*
X184937292Y-89583333D01*
X184937292Y-89583333D02*
X184975387Y-89659523D01*
X184975387Y-89659523D02*
X184975387Y-89964285D01*
X185318245Y-89202381D02*
X185356340Y-89088095D01*
X185356340Y-89088095D02*
X185356340Y-88897619D01*
X185356340Y-88897619D02*
X185318245Y-88821428D01*
X185318245Y-88821428D02*
X185280149Y-88783333D01*
X185280149Y-88783333D02*
X185203959Y-88745238D01*
X185203959Y-88745238D02*
X185127768Y-88745238D01*
X185127768Y-88745238D02*
X185051578Y-88783333D01*
X185051578Y-88783333D02*
X185013483Y-88821428D01*
X185013483Y-88821428D02*
X184975387Y-88897619D01*
X184975387Y-88897619D02*
X184937292Y-89050000D01*
X184937292Y-89050000D02*
X184899197Y-89126190D01*
X184899197Y-89126190D02*
X184861102Y-89164285D01*
X184861102Y-89164285D02*
X184784911Y-89202381D01*
X184784911Y-89202381D02*
X184708721Y-89202381D01*
X184708721Y-89202381D02*
X184632530Y-89164285D01*
X184632530Y-89164285D02*
X184594435Y-89126190D01*
X184594435Y-89126190D02*
X184556340Y-89050000D01*
X184556340Y-89050000D02*
X184556340Y-88859523D01*
X184556340Y-88859523D02*
X184594435Y-88745238D01*
X185356340Y-87983333D02*
X185356340Y-88440476D01*
X185356340Y-88211904D02*
X184556340Y-88211904D01*
X184556340Y-88211904D02*
X184670625Y-88288095D01*
X184670625Y-88288095D02*
X184746816Y-88364285D01*
X184746816Y-88364285D02*
X184784911Y-88440476D01*
X184823006Y-87107142D02*
X185356340Y-86954761D01*
X185356340Y-86954761D02*
X184975387Y-86802380D01*
X184975387Y-86802380D02*
X185356340Y-86649999D01*
X185356340Y-86649999D02*
X184823006Y-86497618D01*
X185356340Y-86192856D02*
X184823006Y-86192856D01*
X184556340Y-86192856D02*
X184594435Y-86230952D01*
X184594435Y-86230952D02*
X184632530Y-86192856D01*
X184632530Y-86192856D02*
X184594435Y-86154761D01*
X184594435Y-86154761D02*
X184556340Y-86192856D01*
X184556340Y-86192856D02*
X184632530Y-86192856D01*
X184823006Y-85926190D02*
X184823006Y-85621428D01*
X184556340Y-85811904D02*
X185242054Y-85811904D01*
X185242054Y-85811904D02*
X185318245Y-85773809D01*
X185318245Y-85773809D02*
X185356340Y-85697619D01*
X185356340Y-85697619D02*
X185356340Y-85621428D01*
X185356340Y-85354761D02*
X184556340Y-85354761D01*
X185356340Y-85011904D02*
X184937292Y-85011904D01*
X184937292Y-85011904D02*
X184861102Y-85049999D01*
X184861102Y-85049999D02*
X184823006Y-85126190D01*
X184823006Y-85126190D02*
X184823006Y-85240476D01*
X184823006Y-85240476D02*
X184861102Y-85316666D01*
X184861102Y-85316666D02*
X184899197Y-85354761D01*
X184556340Y-84135713D02*
X185356340Y-83869046D01*
X185356340Y-83869046D02*
X184556340Y-83602380D01*
X185051578Y-83335713D02*
X185051578Y-82726190D01*
X185356340Y-83030951D02*
X184746816Y-83030951D01*
X185356340Y-81621428D02*
X185318245Y-81697618D01*
X185318245Y-81697618D02*
X185280149Y-81735713D01*
X185280149Y-81735713D02*
X185203959Y-81773809D01*
X185203959Y-81773809D02*
X184975387Y-81773809D01*
X184975387Y-81773809D02*
X184899197Y-81735713D01*
X184899197Y-81735713D02*
X184861102Y-81697618D01*
X184861102Y-81697618D02*
X184823006Y-81621428D01*
X184823006Y-81621428D02*
X184823006Y-81507142D01*
X184823006Y-81507142D02*
X184861102Y-81430951D01*
X184861102Y-81430951D02*
X184899197Y-81392856D01*
X184899197Y-81392856D02*
X184975387Y-81354761D01*
X184975387Y-81354761D02*
X185203959Y-81354761D01*
X185203959Y-81354761D02*
X185280149Y-81392856D01*
X185280149Y-81392856D02*
X185318245Y-81430951D01*
X185318245Y-81430951D02*
X185356340Y-81507142D01*
X185356340Y-81507142D02*
X185356340Y-81621428D01*
X184823006Y-81126189D02*
X184823006Y-80821427D01*
X185356340Y-81011903D02*
X184670625Y-81011903D01*
X184670625Y-81011903D02*
X184594435Y-80973808D01*
X184594435Y-80973808D02*
X184556340Y-80897618D01*
X184556340Y-80897618D02*
X184556340Y-80821427D01*
X185356340Y-79945236D02*
X184556340Y-79945236D01*
X184556340Y-79945236D02*
X184556340Y-79640474D01*
X184556340Y-79640474D02*
X184594435Y-79564284D01*
X184594435Y-79564284D02*
X184632530Y-79526189D01*
X184632530Y-79526189D02*
X184708721Y-79488093D01*
X184708721Y-79488093D02*
X184823006Y-79488093D01*
X184823006Y-79488093D02*
X184899197Y-79526189D01*
X184899197Y-79526189D02*
X184937292Y-79564284D01*
X184937292Y-79564284D02*
X184975387Y-79640474D01*
X184975387Y-79640474D02*
X184975387Y-79945236D01*
X185318245Y-79183332D02*
X185356340Y-79069046D01*
X185356340Y-79069046D02*
X185356340Y-78878570D01*
X185356340Y-78878570D02*
X185318245Y-78802379D01*
X185318245Y-78802379D02*
X185280149Y-78764284D01*
X185280149Y-78764284D02*
X185203959Y-78726189D01*
X185203959Y-78726189D02*
X185127768Y-78726189D01*
X185127768Y-78726189D02*
X185051578Y-78764284D01*
X185051578Y-78764284D02*
X185013483Y-78802379D01*
X185013483Y-78802379D02*
X184975387Y-78878570D01*
X184975387Y-78878570D02*
X184937292Y-79030951D01*
X184937292Y-79030951D02*
X184899197Y-79107141D01*
X184899197Y-79107141D02*
X184861102Y-79145236D01*
X184861102Y-79145236D02*
X184784911Y-79183332D01*
X184784911Y-79183332D02*
X184708721Y-79183332D01*
X184708721Y-79183332D02*
X184632530Y-79145236D01*
X184632530Y-79145236D02*
X184594435Y-79107141D01*
X184594435Y-79107141D02*
X184556340Y-79030951D01*
X184556340Y-79030951D02*
X184556340Y-78840474D01*
X184556340Y-78840474D02*
X184594435Y-78726189D01*
X184632530Y-78421427D02*
X184594435Y-78383331D01*
X184594435Y-78383331D02*
X184556340Y-78307141D01*
X184556340Y-78307141D02*
X184556340Y-78116665D01*
X184556340Y-78116665D02*
X184594435Y-78040474D01*
X184594435Y-78040474D02*
X184632530Y-78002379D01*
X184632530Y-78002379D02*
X184708721Y-77964284D01*
X184708721Y-77964284D02*
X184784911Y-77964284D01*
X184784911Y-77964284D02*
X184899197Y-78002379D01*
X184899197Y-78002379D02*
X185356340Y-78459522D01*
X185356340Y-78459522D02*
X185356340Y-77964284D01*
X186110961Y-95830954D02*
X186110961Y-95526192D01*
X186644295Y-95716668D02*
X185958580Y-95716668D01*
X185958580Y-95716668D02*
X185882390Y-95678573D01*
X185882390Y-95678573D02*
X185844295Y-95602383D01*
X185844295Y-95602383D02*
X185844295Y-95526192D01*
X186644295Y-95145240D02*
X186606200Y-95221430D01*
X186606200Y-95221430D02*
X186568104Y-95259525D01*
X186568104Y-95259525D02*
X186491914Y-95297621D01*
X186491914Y-95297621D02*
X186263342Y-95297621D01*
X186263342Y-95297621D02*
X186187152Y-95259525D01*
X186187152Y-95259525D02*
X186149057Y-95221430D01*
X186149057Y-95221430D02*
X186110961Y-95145240D01*
X186110961Y-95145240D02*
X186110961Y-95030954D01*
X186110961Y-95030954D02*
X186149057Y-94954763D01*
X186149057Y-94954763D02*
X186187152Y-94916668D01*
X186187152Y-94916668D02*
X186263342Y-94878573D01*
X186263342Y-94878573D02*
X186491914Y-94878573D01*
X186491914Y-94878573D02*
X186568104Y-94916668D01*
X186568104Y-94916668D02*
X186606200Y-94954763D01*
X186606200Y-94954763D02*
X186644295Y-95030954D01*
X186644295Y-95030954D02*
X186644295Y-95145240D01*
X186644295Y-94535715D02*
X186110961Y-94535715D01*
X186263342Y-94535715D02*
X186187152Y-94497620D01*
X186187152Y-94497620D02*
X186149057Y-94459525D01*
X186149057Y-94459525D02*
X186110961Y-94383334D01*
X186110961Y-94383334D02*
X186110961Y-94307144D01*
X186644295Y-93088096D02*
X185844295Y-93088096D01*
X186606200Y-93088096D02*
X186644295Y-93164287D01*
X186644295Y-93164287D02*
X186644295Y-93316668D01*
X186644295Y-93316668D02*
X186606200Y-93392858D01*
X186606200Y-93392858D02*
X186568104Y-93430953D01*
X186568104Y-93430953D02*
X186491914Y-93469049D01*
X186491914Y-93469049D02*
X186263342Y-93469049D01*
X186263342Y-93469049D02*
X186187152Y-93430953D01*
X186187152Y-93430953D02*
X186149057Y-93392858D01*
X186149057Y-93392858D02*
X186110961Y-93316668D01*
X186110961Y-93316668D02*
X186110961Y-93164287D01*
X186110961Y-93164287D02*
X186149057Y-93088096D01*
X186644295Y-92592858D02*
X186606200Y-92669048D01*
X186606200Y-92669048D02*
X186568104Y-92707143D01*
X186568104Y-92707143D02*
X186491914Y-92745239D01*
X186491914Y-92745239D02*
X186263342Y-92745239D01*
X186263342Y-92745239D02*
X186187152Y-92707143D01*
X186187152Y-92707143D02*
X186149057Y-92669048D01*
X186149057Y-92669048D02*
X186110961Y-92592858D01*
X186110961Y-92592858D02*
X186110961Y-92478572D01*
X186110961Y-92478572D02*
X186149057Y-92402381D01*
X186149057Y-92402381D02*
X186187152Y-92364286D01*
X186187152Y-92364286D02*
X186263342Y-92326191D01*
X186263342Y-92326191D02*
X186491914Y-92326191D01*
X186491914Y-92326191D02*
X186568104Y-92364286D01*
X186568104Y-92364286D02*
X186606200Y-92402381D01*
X186606200Y-92402381D02*
X186644295Y-92478572D01*
X186644295Y-92478572D02*
X186644295Y-92592858D01*
X186110961Y-91640476D02*
X186644295Y-91640476D01*
X186110961Y-91983333D02*
X186530009Y-91983333D01*
X186530009Y-91983333D02*
X186606200Y-91945238D01*
X186606200Y-91945238D02*
X186644295Y-91869048D01*
X186644295Y-91869048D02*
X186644295Y-91754762D01*
X186644295Y-91754762D02*
X186606200Y-91678571D01*
X186606200Y-91678571D02*
X186568104Y-91640476D01*
X186644295Y-91259523D02*
X185844295Y-91259523D01*
X186149057Y-91259523D02*
X186110961Y-91183333D01*
X186110961Y-91183333D02*
X186110961Y-91030952D01*
X186110961Y-91030952D02*
X186149057Y-90954761D01*
X186149057Y-90954761D02*
X186187152Y-90916666D01*
X186187152Y-90916666D02*
X186263342Y-90878571D01*
X186263342Y-90878571D02*
X186491914Y-90878571D01*
X186491914Y-90878571D02*
X186568104Y-90916666D01*
X186568104Y-90916666D02*
X186606200Y-90954761D01*
X186606200Y-90954761D02*
X186644295Y-91030952D01*
X186644295Y-91030952D02*
X186644295Y-91183333D01*
X186644295Y-91183333D02*
X186606200Y-91259523D01*
X186644295Y-90421428D02*
X186606200Y-90497618D01*
X186606200Y-90497618D02*
X186530009Y-90535713D01*
X186530009Y-90535713D02*
X185844295Y-90535713D01*
X186606200Y-89811903D02*
X186644295Y-89888094D01*
X186644295Y-89888094D02*
X186644295Y-90040475D01*
X186644295Y-90040475D02*
X186606200Y-90116665D01*
X186606200Y-90116665D02*
X186530009Y-90154761D01*
X186530009Y-90154761D02*
X186225247Y-90154761D01*
X186225247Y-90154761D02*
X186149057Y-90116665D01*
X186149057Y-90116665D02*
X186110961Y-90040475D01*
X186110961Y-90040475D02*
X186110961Y-89888094D01*
X186110961Y-89888094D02*
X186149057Y-89811903D01*
X186149057Y-89811903D02*
X186225247Y-89773808D01*
X186225247Y-89773808D02*
X186301438Y-89773808D01*
X186301438Y-89773808D02*
X186377628Y-90154761D01*
X186110961Y-88935713D02*
X186110961Y-88630951D01*
X185844295Y-88821427D02*
X186530009Y-88821427D01*
X186530009Y-88821427D02*
X186606200Y-88783332D01*
X186606200Y-88783332D02*
X186644295Y-88707142D01*
X186644295Y-88707142D02*
X186644295Y-88630951D01*
X186644295Y-88364284D02*
X185844295Y-88364284D01*
X186644295Y-88021427D02*
X186225247Y-88021427D01*
X186225247Y-88021427D02*
X186149057Y-88059522D01*
X186149057Y-88059522D02*
X186110961Y-88135713D01*
X186110961Y-88135713D02*
X186110961Y-88249999D01*
X186110961Y-88249999D02*
X186149057Y-88326189D01*
X186149057Y-88326189D02*
X186187152Y-88364284D01*
X186606200Y-87335712D02*
X186644295Y-87411903D01*
X186644295Y-87411903D02*
X186644295Y-87564284D01*
X186644295Y-87564284D02*
X186606200Y-87640474D01*
X186606200Y-87640474D02*
X186530009Y-87678570D01*
X186530009Y-87678570D02*
X186225247Y-87678570D01*
X186225247Y-87678570D02*
X186149057Y-87640474D01*
X186149057Y-87640474D02*
X186110961Y-87564284D01*
X186110961Y-87564284D02*
X186110961Y-87411903D01*
X186110961Y-87411903D02*
X186149057Y-87335712D01*
X186149057Y-87335712D02*
X186225247Y-87297617D01*
X186225247Y-87297617D02*
X186301438Y-87297617D01*
X186301438Y-87297617D02*
X186377628Y-87678570D01*
X186110961Y-86421427D02*
X186644295Y-86230951D01*
X186644295Y-86230951D02*
X186110961Y-86040474D01*
X186644295Y-85621427D02*
X186606200Y-85697617D01*
X186606200Y-85697617D02*
X186568104Y-85735712D01*
X186568104Y-85735712D02*
X186491914Y-85773808D01*
X186491914Y-85773808D02*
X186263342Y-85773808D01*
X186263342Y-85773808D02*
X186187152Y-85735712D01*
X186187152Y-85735712D02*
X186149057Y-85697617D01*
X186149057Y-85697617D02*
X186110961Y-85621427D01*
X186110961Y-85621427D02*
X186110961Y-85507141D01*
X186110961Y-85507141D02*
X186149057Y-85430950D01*
X186149057Y-85430950D02*
X186187152Y-85392855D01*
X186187152Y-85392855D02*
X186263342Y-85354760D01*
X186263342Y-85354760D02*
X186491914Y-85354760D01*
X186491914Y-85354760D02*
X186568104Y-85392855D01*
X186568104Y-85392855D02*
X186606200Y-85430950D01*
X186606200Y-85430950D02*
X186644295Y-85507141D01*
X186644295Y-85507141D02*
X186644295Y-85621427D01*
X186644295Y-84897617D02*
X186606200Y-84973807D01*
X186606200Y-84973807D02*
X186530009Y-85011902D01*
X186530009Y-85011902D02*
X185844295Y-85011902D01*
X186110961Y-84707140D02*
X186110961Y-84402378D01*
X185844295Y-84592854D02*
X186530009Y-84592854D01*
X186530009Y-84592854D02*
X186606200Y-84554759D01*
X186606200Y-84554759D02*
X186644295Y-84478569D01*
X186644295Y-84478569D02*
X186644295Y-84402378D01*
X186644295Y-83792854D02*
X186225247Y-83792854D01*
X186225247Y-83792854D02*
X186149057Y-83830949D01*
X186149057Y-83830949D02*
X186110961Y-83907140D01*
X186110961Y-83907140D02*
X186110961Y-84059521D01*
X186110961Y-84059521D02*
X186149057Y-84135711D01*
X186606200Y-83792854D02*
X186644295Y-83869045D01*
X186644295Y-83869045D02*
X186644295Y-84059521D01*
X186644295Y-84059521D02*
X186606200Y-84135711D01*
X186606200Y-84135711D02*
X186530009Y-84173807D01*
X186530009Y-84173807D02*
X186453819Y-84173807D01*
X186453819Y-84173807D02*
X186377628Y-84135711D01*
X186377628Y-84135711D02*
X186339533Y-84059521D01*
X186339533Y-84059521D02*
X186339533Y-83869045D01*
X186339533Y-83869045D02*
X186301438Y-83792854D01*
X186110961Y-83069044D02*
X186758580Y-83069044D01*
X186758580Y-83069044D02*
X186834771Y-83107139D01*
X186834771Y-83107139D02*
X186872866Y-83145235D01*
X186872866Y-83145235D02*
X186910961Y-83221425D01*
X186910961Y-83221425D02*
X186910961Y-83335711D01*
X186910961Y-83335711D02*
X186872866Y-83411901D01*
X186606200Y-83069044D02*
X186644295Y-83145235D01*
X186644295Y-83145235D02*
X186644295Y-83297616D01*
X186644295Y-83297616D02*
X186606200Y-83373806D01*
X186606200Y-83373806D02*
X186568104Y-83411901D01*
X186568104Y-83411901D02*
X186491914Y-83449997D01*
X186491914Y-83449997D02*
X186263342Y-83449997D01*
X186263342Y-83449997D02*
X186187152Y-83411901D01*
X186187152Y-83411901D02*
X186149057Y-83373806D01*
X186149057Y-83373806D02*
X186110961Y-83297616D01*
X186110961Y-83297616D02*
X186110961Y-83145235D01*
X186110961Y-83145235D02*
X186149057Y-83069044D01*
X186606200Y-82383329D02*
X186644295Y-82459520D01*
X186644295Y-82459520D02*
X186644295Y-82611901D01*
X186644295Y-82611901D02*
X186606200Y-82688091D01*
X186606200Y-82688091D02*
X186530009Y-82726187D01*
X186530009Y-82726187D02*
X186225247Y-82726187D01*
X186225247Y-82726187D02*
X186149057Y-82688091D01*
X186149057Y-82688091D02*
X186110961Y-82611901D01*
X186110961Y-82611901D02*
X186110961Y-82459520D01*
X186110961Y-82459520D02*
X186149057Y-82383329D01*
X186149057Y-82383329D02*
X186225247Y-82345234D01*
X186225247Y-82345234D02*
X186301438Y-82345234D01*
X186301438Y-82345234D02*
X186377628Y-82726187D01*
D11*
G36*
X127658786Y-47160905D02*
G01*
X127716829Y-47273619D01*
X127717302Y-47309705D01*
X127061989Y-47442732D01*
X127061403Y-47281884D01*
X127118635Y-47163932D01*
X127230970Y-47106084D01*
X127541310Y-47103904D01*
X127658786Y-47160905D01*
G37*
G36*
X129433001Y-48101750D02*
G01*
X129359083Y-48139815D01*
X128953609Y-48142127D01*
X128835947Y-48085035D01*
X128777905Y-47972323D01*
X128776327Y-47851998D01*
X128832921Y-47735361D01*
X128945175Y-47677555D01*
X129367244Y-47675148D01*
X129371463Y-47676555D01*
X129393348Y-47675000D01*
X129419489Y-47674851D01*
X129424466Y-47672789D01*
X129429844Y-47672407D01*
X129431850Y-47671639D01*
X129433001Y-48101750D01*
G37*
G36*
X135087358Y-47160905D02*
G01*
X135145401Y-47273619D01*
X135145874Y-47309705D01*
X134490561Y-47442732D01*
X134489975Y-47281884D01*
X134547207Y-47163932D01*
X134659542Y-47106084D01*
X134969882Y-47103904D01*
X135087358Y-47160905D01*
G37*
G36*
X148706407Y-47160905D02*
G01*
X148764450Y-47273619D01*
X148764923Y-47309705D01*
X148109610Y-47442732D01*
X148109024Y-47281884D01*
X148166256Y-47163932D01*
X148278591Y-47106084D01*
X148588931Y-47103904D01*
X148706407Y-47160905D01*
G37*
G36*
X154925799Y-47465132D02*
G01*
X154979121Y-47516612D01*
X155050037Y-47654324D01*
X155052007Y-47869589D01*
X154985647Y-48006352D01*
X154925156Y-48069009D01*
X154787783Y-48139750D01*
X154206684Y-48141867D01*
X154205618Y-47391403D01*
X154691787Y-47389389D01*
X154925799Y-47465132D01*
G37*
G36*
X154821227Y-46503740D02*
G01*
X154883883Y-46564231D01*
X154954927Y-46702191D01*
X154956505Y-46822514D01*
X154890409Y-46958733D01*
X154829919Y-47021388D01*
X154692514Y-47092147D01*
X154205196Y-47094165D01*
X154204265Y-46439027D01*
X154683765Y-46437041D01*
X154821227Y-46503740D01*
G37*
G36*
X156725989Y-47170406D02*
G01*
X156788645Y-47230897D01*
X156859424Y-47368342D01*
X156861826Y-47868982D01*
X156795171Y-48006352D01*
X156734680Y-48069009D01*
X156596969Y-48139924D01*
X156381703Y-48141894D01*
X156244940Y-48075534D01*
X156182285Y-48015043D01*
X156111506Y-47877599D01*
X156109104Y-47376959D01*
X156175759Y-47239588D01*
X156236249Y-47176933D01*
X156373961Y-47106017D01*
X156589227Y-47104047D01*
X156725989Y-47170406D01*
G37*
G36*
X158575861Y-48101750D02*
G01*
X158501943Y-48139815D01*
X158096469Y-48142127D01*
X157978807Y-48085035D01*
X157920765Y-47972323D01*
X157919187Y-47851998D01*
X157975781Y-47735361D01*
X158088035Y-47677555D01*
X158510104Y-47675148D01*
X158514323Y-47676555D01*
X158536208Y-47675000D01*
X158562349Y-47674851D01*
X158567326Y-47672789D01*
X158572704Y-47672407D01*
X158574710Y-47671639D01*
X158575861Y-48101750D01*
G37*
G36*
X161622392Y-47143245D02*
G01*
X161623753Y-48101610D01*
X161549481Y-48139857D01*
X161239141Y-48142037D01*
X161102083Y-48075534D01*
X161039428Y-48015043D01*
X160968649Y-47877599D01*
X160966247Y-47376959D01*
X161032902Y-47239588D01*
X161093392Y-47176933D01*
X161230973Y-47106084D01*
X161541313Y-47103904D01*
X161622392Y-47143245D01*
G37*
G36*
X141583130Y-46503740D02*
G01*
X141645786Y-46564231D01*
X141716702Y-46701943D01*
X141718672Y-46917208D01*
X141652312Y-47053971D01*
X141591821Y-47116628D01*
X141454448Y-47187369D01*
X141202147Y-47188289D01*
X141196498Y-47187292D01*
X141191827Y-47188326D01*
X140871996Y-47189491D01*
X140870930Y-46439101D01*
X141445598Y-46437007D01*
X141583130Y-46503740D01*
G37*
G36*
X162143402Y-48661860D02*
G01*
X124351336Y-48661860D01*
X124351336Y-46289638D01*
X124573558Y-46289638D01*
X124576440Y-48318902D01*
X124598838Y-48372974D01*
X124640222Y-48414358D01*
X124694294Y-48436756D01*
X124752822Y-48436756D01*
X124806894Y-48414358D01*
X124848278Y-48372974D01*
X124870676Y-48318902D01*
X124873558Y-48289638D01*
X124871668Y-46958881D01*
X125254418Y-47775233D01*
X125261965Y-47795987D01*
X125266439Y-47800873D01*
X125269285Y-47806942D01*
X125286090Y-47822332D01*
X125301492Y-47839150D01*
X125307535Y-47841970D01*
X125312448Y-47846469D01*
X125333868Y-47854258D01*
X125354530Y-47863900D01*
X125361187Y-47864192D01*
X125367450Y-47866470D01*
X125390225Y-47865468D01*
X125413000Y-47866470D01*
X125419262Y-47864192D01*
X125425921Y-47863900D01*
X125446582Y-47854258D01*
X125468003Y-47846469D01*
X125472916Y-47841969D01*
X125478958Y-47839150D01*
X125494353Y-47822337D01*
X125511166Y-47806942D01*
X125516134Y-47798553D01*
X125518485Y-47795987D01*
X125519804Y-47792357D01*
X125526152Y-47781642D01*
X125907842Y-46959887D01*
X125909773Y-48318902D01*
X125932171Y-48372974D01*
X125973555Y-48414358D01*
X126027627Y-48436756D01*
X126086155Y-48436756D01*
X126140227Y-48414358D01*
X126181611Y-48372974D01*
X126204009Y-48318902D01*
X126206891Y-48289638D01*
X126205944Y-47623127D01*
X126764034Y-47623127D01*
X126765448Y-47630197D01*
X126766724Y-47980623D01*
X126765212Y-47985161D01*
X126766823Y-48007844D01*
X126766916Y-48033187D01*
X126768978Y-48038165D01*
X126769360Y-48043541D01*
X126779870Y-48071005D01*
X126873986Y-48253770D01*
X126878958Y-48268684D01*
X126885625Y-48276371D01*
X126890773Y-48286368D01*
X126904982Y-48298691D01*
X126917304Y-48312899D01*
X126932109Y-48322218D01*
X126934988Y-48324715D01*
X126937299Y-48325485D01*
X126942190Y-48328564D01*
X127113966Y-48411912D01*
X127116412Y-48414358D01*
X127134142Y-48421702D01*
X127160130Y-48434312D01*
X127165505Y-48434693D01*
X127170484Y-48436756D01*
X127199748Y-48439638D01*
X127557923Y-48437121D01*
X127561939Y-48438460D01*
X127583283Y-48436943D01*
X127609965Y-48436756D01*
X127614942Y-48434694D01*
X127620320Y-48434312D01*
X127647783Y-48423802D01*
X127863145Y-48312899D01*
X127901492Y-48268684D01*
X127919999Y-48213161D01*
X127915851Y-48154781D01*
X127889676Y-48102432D01*
X127845461Y-48064085D01*
X127789939Y-48045578D01*
X127731559Y-48049726D01*
X127704095Y-48060236D01*
X127549478Y-48139857D01*
X127239138Y-48142037D01*
X127121661Y-48085035D01*
X127063921Y-47972908D01*
X127063340Y-47813447D01*
X128478320Y-47813447D01*
X128480531Y-47982060D01*
X128479498Y-47985161D01*
X128480815Y-48003700D01*
X128481202Y-48033187D01*
X128483264Y-48038165D01*
X128483646Y-48043541D01*
X128494156Y-48071005D01*
X128588272Y-48253770D01*
X128593244Y-48268684D01*
X128599911Y-48276371D01*
X128605059Y-48286368D01*
X128619268Y-48298691D01*
X128631590Y-48312899D01*
X128646395Y-48322218D01*
X128649274Y-48324715D01*
X128651585Y-48325485D01*
X128656476Y-48328564D01*
X128828252Y-48411912D01*
X128830698Y-48414358D01*
X128848428Y-48421702D01*
X128874416Y-48434312D01*
X128879791Y-48434693D01*
X128884770Y-48436756D01*
X128914034Y-48439638D01*
X129367244Y-48437053D01*
X129371463Y-48438460D01*
X129393348Y-48436905D01*
X129419489Y-48436756D01*
X129424466Y-48434694D01*
X129429844Y-48434312D01*
X129457307Y-48423802D01*
X129489982Y-48406975D01*
X129497365Y-48414358D01*
X129551437Y-48436756D01*
X129609965Y-48436756D01*
X129664037Y-48414358D01*
X129705421Y-48372974D01*
X129727819Y-48318902D01*
X129730701Y-48289638D01*
X129728465Y-47454427D01*
X129729523Y-47451256D01*
X129728415Y-47435669D01*
X129727960Y-47265469D01*
X129729523Y-47260781D01*
X129727885Y-47237739D01*
X129727819Y-47212755D01*
X129725756Y-47207776D01*
X129725375Y-47202401D01*
X129714865Y-47174938D01*
X129620751Y-46992177D01*
X129615778Y-46977258D01*
X129609107Y-46969566D01*
X129603962Y-46959575D01*
X129600191Y-46956304D01*
X130383082Y-46956304D01*
X130385964Y-48318902D01*
X130408362Y-48372974D01*
X130449746Y-48414358D01*
X130503818Y-48436756D01*
X130562346Y-48436756D01*
X130616418Y-48414358D01*
X130657802Y-48372974D01*
X130680200Y-48318902D01*
X130683082Y-48289638D01*
X130680797Y-47209705D01*
X130712437Y-47176933D01*
X130850149Y-47106017D01*
X131065415Y-47104047D01*
X131182596Y-47160905D01*
X131240307Y-47272975D01*
X131243107Y-48318902D01*
X131265505Y-48372974D01*
X131306889Y-48414358D01*
X131360961Y-48436756D01*
X131419489Y-48436756D01*
X131473561Y-48414358D01*
X131514945Y-48372974D01*
X131537343Y-48318902D01*
X131540225Y-48289638D01*
X131537484Y-47265469D01*
X131539047Y-47260781D01*
X131537409Y-47237739D01*
X131537343Y-47212755D01*
X131535280Y-47207776D01*
X131534899Y-47202401D01*
X131524389Y-47174938D01*
X131430275Y-46992177D01*
X131425302Y-46977258D01*
X131418631Y-46969566D01*
X131418124Y-46968582D01*
X132002633Y-46968582D01*
X132007901Y-46997512D01*
X132386219Y-48311497D01*
X132386332Y-48320694D01*
X132394057Y-48338719D01*
X132399664Y-48358192D01*
X132405616Y-48365690D01*
X132409387Y-48374487D01*
X132423654Y-48388411D01*
X132436055Y-48404031D01*
X132444422Y-48408679D01*
X132451273Y-48415365D01*
X132469788Y-48422771D01*
X132487216Y-48432453D01*
X132496724Y-48433545D01*
X132505615Y-48437102D01*
X132525553Y-48436858D01*
X132545360Y-48439135D01*
X132554565Y-48436504D01*
X132564138Y-48436388D01*
X132582463Y-48428533D01*
X132601636Y-48423056D01*
X132609134Y-48417103D01*
X132617931Y-48413333D01*
X132631855Y-48399065D01*
X132647475Y-48386665D01*
X132652123Y-48378297D01*
X132658809Y-48371447D01*
X132672353Y-48345347D01*
X132913618Y-47737373D01*
X133151136Y-48326496D01*
X133152172Y-48335504D01*
X133161638Y-48352544D01*
X133169260Y-48371448D01*
X133175946Y-48378299D01*
X133180594Y-48386665D01*
X133196209Y-48399061D01*
X133210138Y-48413334D01*
X133218936Y-48417104D01*
X133226433Y-48423056D01*
X133245602Y-48428533D01*
X133263931Y-48436388D01*
X133273503Y-48436504D01*
X133282709Y-48439135D01*
X133302515Y-48436858D01*
X133322454Y-48437102D01*
X133331345Y-48433545D01*
X133340853Y-48432453D01*
X133358276Y-48422773D01*
X133376796Y-48415366D01*
X133383648Y-48408678D01*
X133392014Y-48404031D01*
X133404408Y-48388418D01*
X133418683Y-48374488D01*
X133422454Y-48365687D01*
X133428405Y-48358192D01*
X133439216Y-48330846D01*
X133639864Y-47623127D01*
X134192606Y-47623127D01*
X134194020Y-47630197D01*
X134195296Y-47980623D01*
X134193784Y-47985161D01*
X134195395Y-48007844D01*
X134195488Y-48033187D01*
X134197550Y-48038165D01*
X134197932Y-48043541D01*
X134208442Y-48071005D01*
X134302558Y-48253770D01*
X134307530Y-48268684D01*
X134314197Y-48276371D01*
X134319345Y-48286368D01*
X134333554Y-48298691D01*
X134345876Y-48312899D01*
X134360681Y-48322218D01*
X134363560Y-48324715D01*
X134365871Y-48325485D01*
X134370762Y-48328564D01*
X134542538Y-48411912D01*
X134544984Y-48414358D01*
X134562714Y-48421702D01*
X134588702Y-48434312D01*
X134594077Y-48434693D01*
X134599056Y-48436756D01*
X134628320Y-48439638D01*
X134986495Y-48437121D01*
X134990511Y-48438460D01*
X135011855Y-48436943D01*
X135038537Y-48436756D01*
X135043514Y-48434694D01*
X135048892Y-48434312D01*
X135076355Y-48423802D01*
X135291717Y-48312899D01*
X135330064Y-48268684D01*
X135348571Y-48213161D01*
X135344423Y-48154781D01*
X135318248Y-48102432D01*
X135274033Y-48064085D01*
X135218511Y-48045578D01*
X135160131Y-48049726D01*
X135132667Y-48060236D01*
X134978050Y-48139857D01*
X134667710Y-48142037D01*
X134550233Y-48085035D01*
X134492493Y-47972908D01*
X134491665Y-47745770D01*
X135310190Y-47579613D01*
X135324251Y-47579613D01*
X135337764Y-47574015D01*
X135352535Y-47571017D01*
X135364746Y-47562838D01*
X135378323Y-47557215D01*
X135388825Y-47546712D01*
X135401164Y-47538449D01*
X135409314Y-47526223D01*
X135419707Y-47515831D01*
X135425390Y-47502110D01*
X135433629Y-47489753D01*
X135436480Y-47475336D01*
X135442105Y-47461759D01*
X135444987Y-47432495D01*
X135444985Y-47432347D01*
X135444987Y-47432338D01*
X135444984Y-47432326D01*
X135442775Y-47263881D01*
X135443809Y-47260781D01*
X135442491Y-47242241D01*
X135442105Y-47212755D01*
X135440042Y-47207776D01*
X135439661Y-47202401D01*
X135429151Y-47174938D01*
X135335037Y-46992177D01*
X135330064Y-46977258D01*
X135323393Y-46969566D01*
X135318248Y-46959575D01*
X135304043Y-46947255D01*
X135291717Y-46933043D01*
X135276906Y-46923720D01*
X135274033Y-46921228D01*
X135271725Y-46920458D01*
X135266831Y-46917378D01*
X135095053Y-46834028D01*
X135092609Y-46831584D01*
X135074884Y-46824242D01*
X135048892Y-46811630D01*
X135043514Y-46811247D01*
X135038537Y-46809186D01*
X135009273Y-46806304D01*
X134651097Y-46808820D01*
X134647082Y-46807482D01*
X134625737Y-46808998D01*
X134599056Y-46809186D01*
X134594077Y-46811248D01*
X134588702Y-46811630D01*
X134561238Y-46822140D01*
X134378477Y-46916254D01*
X134363560Y-46921227D01*
X134355869Y-46927896D01*
X134345876Y-46933043D01*
X134333554Y-46947250D01*
X134319345Y-46959574D01*
X134310022Y-46974383D01*
X134307530Y-46977258D01*
X134306760Y-46979565D01*
X134303680Y-46984460D01*
X134220330Y-47156238D01*
X134217886Y-47158683D01*
X134210542Y-47176412D01*
X134197932Y-47202401D01*
X134197550Y-47207776D01*
X134195488Y-47212755D01*
X134192606Y-47242019D01*
X134193969Y-47616236D01*
X134192606Y-47623127D01*
X133639864Y-47623127D01*
X133825436Y-46968582D01*
X133818754Y-46910438D01*
X133790332Y-46859277D01*
X133744493Y-46822886D01*
X133688217Y-46806807D01*
X133630073Y-46813489D01*
X133578912Y-46841911D01*
X133542521Y-46887750D01*
X133531710Y-46915096D01*
X133271943Y-47831335D01*
X133060802Y-47307635D01*
X133060785Y-47306201D01*
X133051328Y-47284135D01*
X133039762Y-47255448D01*
X133038462Y-47254115D01*
X133037730Y-47252408D01*
X133018070Y-47233221D01*
X132998884Y-47213562D01*
X132997176Y-47212829D01*
X132995844Y-47211530D01*
X132970336Y-47201326D01*
X132945091Y-47190507D01*
X132943230Y-47190484D01*
X132941502Y-47189793D01*
X132914035Y-47190128D01*
X132886568Y-47189793D01*
X132884839Y-47190484D01*
X132882979Y-47190507D01*
X132857733Y-47201326D01*
X132832226Y-47211530D01*
X132830893Y-47212829D01*
X132829186Y-47213562D01*
X132809999Y-47233221D01*
X132790340Y-47252408D01*
X132789607Y-47254115D01*
X132788308Y-47255448D01*
X132774764Y-47281548D01*
X132556955Y-47830410D01*
X132285548Y-46887750D01*
X132249157Y-46841911D01*
X132197996Y-46813489D01*
X132139852Y-46806807D01*
X132083576Y-46822886D01*
X132037737Y-46859277D01*
X132009315Y-46910438D01*
X132002633Y-46968582D01*
X131418124Y-46968582D01*
X131413486Y-46959575D01*
X131399281Y-46947255D01*
X131386955Y-46933043D01*
X131372144Y-46923720D01*
X131369271Y-46921228D01*
X131366963Y-46920458D01*
X131362069Y-46917378D01*
X131190291Y-46834028D01*
X131187847Y-46831584D01*
X131170122Y-46824242D01*
X131144130Y-46811630D01*
X131138752Y-46811247D01*
X131133775Y-46809186D01*
X131104511Y-46806304D01*
X130841250Y-46808712D01*
X130837558Y-46807482D01*
X130817129Y-46808933D01*
X130789532Y-46809186D01*
X130784553Y-46811248D01*
X130779178Y-46811630D01*
X130751714Y-46822140D01*
X130656173Y-46871339D01*
X130616418Y-46831584D01*
X130562346Y-46809186D01*
X130503818Y-46809186D01*
X130449746Y-46831584D01*
X130408362Y-46872968D01*
X130385964Y-46927040D01*
X130383082Y-46956304D01*
X129600191Y-46956304D01*
X129589757Y-46947255D01*
X129577431Y-46933043D01*
X129562620Y-46923720D01*
X129559747Y-46921228D01*
X129557439Y-46920458D01*
X129552545Y-46917378D01*
X129380767Y-46834028D01*
X129378323Y-46831584D01*
X129360598Y-46824242D01*
X129334606Y-46811630D01*
X129329228Y-46811247D01*
X129324251Y-46809186D01*
X129294987Y-46806304D01*
X128936811Y-46808820D01*
X128932796Y-46807482D01*
X128911451Y-46808998D01*
X128884770Y-46809186D01*
X128879791Y-46811248D01*
X128874416Y-46811630D01*
X128846952Y-46822140D01*
X128631590Y-46933043D01*
X128593244Y-46977258D01*
X128574736Y-47032780D01*
X128578884Y-47091161D01*
X128605059Y-47143510D01*
X128649274Y-47181856D01*
X128704796Y-47200364D01*
X128763177Y-47196216D01*
X128790640Y-47185706D01*
X128945256Y-47106084D01*
X129255596Y-47103904D01*
X129373072Y-47160905D01*
X129430783Y-47272975D01*
X129430965Y-47340894D01*
X129359083Y-47377910D01*
X128937014Y-47380317D01*
X128932796Y-47378911D01*
X128910911Y-47380465D01*
X128884770Y-47380615D01*
X128879791Y-47382677D01*
X128874416Y-47383059D01*
X128846952Y-47393569D01*
X128664190Y-47487684D01*
X128649274Y-47492656D01*
X128641583Y-47499325D01*
X128631590Y-47504472D01*
X128619268Y-47518679D01*
X128605059Y-47531003D01*
X128595736Y-47545812D01*
X128593244Y-47548687D01*
X128592474Y-47550994D01*
X128589394Y-47555889D01*
X128506044Y-47727666D01*
X128503600Y-47730111D01*
X128496258Y-47747835D01*
X128483646Y-47773828D01*
X128483263Y-47779205D01*
X128481202Y-47784183D01*
X128478320Y-47813447D01*
X127063340Y-47813447D01*
X127063093Y-47745770D01*
X127881618Y-47579613D01*
X127895679Y-47579613D01*
X127909192Y-47574015D01*
X127923963Y-47571017D01*
X127936174Y-47562838D01*
X127949751Y-47557215D01*
X127960253Y-47546712D01*
X127972592Y-47538449D01*
X127980742Y-47526223D01*
X127991135Y-47515831D01*
X127996818Y-47502110D01*
X128005057Y-47489753D01*
X128007908Y-47475336D01*
X128013533Y-47461759D01*
X128016415Y-47432495D01*
X128016413Y-47432347D01*
X128016415Y-47432338D01*
X128016412Y-47432326D01*
X128014203Y-47263881D01*
X128015237Y-47260781D01*
X128013919Y-47242241D01*
X128013533Y-47212755D01*
X128011470Y-47207776D01*
X128011089Y-47202401D01*
X128000579Y-47174938D01*
X127906465Y-46992177D01*
X127901492Y-46977258D01*
X127894821Y-46969566D01*
X127889676Y-46959575D01*
X127875471Y-46947255D01*
X127863145Y-46933043D01*
X127848334Y-46923720D01*
X127845461Y-46921228D01*
X127843153Y-46920458D01*
X127838259Y-46917378D01*
X127666481Y-46834028D01*
X127664037Y-46831584D01*
X127646312Y-46824242D01*
X127620320Y-46811630D01*
X127614942Y-46811247D01*
X127609965Y-46809186D01*
X127580701Y-46806304D01*
X127222525Y-46808820D01*
X127218510Y-46807482D01*
X127197165Y-46808998D01*
X127170484Y-46809186D01*
X127165505Y-46811248D01*
X127160130Y-46811630D01*
X127132666Y-46822140D01*
X126949905Y-46916254D01*
X126934988Y-46921227D01*
X126927297Y-46927896D01*
X126917304Y-46933043D01*
X126904982Y-46947250D01*
X126890773Y-46959574D01*
X126881450Y-46974383D01*
X126878958Y-46977258D01*
X126878188Y-46979565D01*
X126875108Y-46984460D01*
X126791758Y-47156238D01*
X126789314Y-47158683D01*
X126781970Y-47176412D01*
X126769360Y-47202401D01*
X126768978Y-47207776D01*
X126766916Y-47212755D01*
X126764034Y-47242019D01*
X126765397Y-47616236D01*
X126764034Y-47623127D01*
X126205944Y-47623127D01*
X126204053Y-46291850D01*
X126204150Y-46289638D01*
X136002130Y-46289638D01*
X136004924Y-47980311D01*
X136003308Y-47985161D01*
X136004971Y-48008570D01*
X136005012Y-48033187D01*
X136007074Y-48038165D01*
X136007456Y-48043541D01*
X136017966Y-48071005D01*
X136112082Y-48253770D01*
X136117054Y-48268684D01*
X136123721Y-48276371D01*
X136128869Y-48286368D01*
X136143078Y-48298691D01*
X136155400Y-48312899D01*
X136170205Y-48322218D01*
X136173084Y-48324715D01*
X136175395Y-48325485D01*
X136180286Y-48328564D01*
X136398226Y-48434312D01*
X136456606Y-48438460D01*
X136512128Y-48419953D01*
X136556343Y-48381606D01*
X136582518Y-48329257D01*
X136586666Y-48270877D01*
X136568159Y-48215354D01*
X136529812Y-48171139D01*
X136504926Y-48155474D01*
X136359757Y-48085035D01*
X136302078Y-47973028D01*
X136299296Y-46289638D01*
X137049749Y-46289638D01*
X137052543Y-47980311D01*
X137050927Y-47985161D01*
X137052590Y-48008570D01*
X137052631Y-48033187D01*
X137054693Y-48038165D01*
X137055075Y-48043541D01*
X137065585Y-48071005D01*
X137159701Y-48253770D01*
X137164673Y-48268684D01*
X137171340Y-48276371D01*
X137176488Y-48286368D01*
X137190697Y-48298691D01*
X137203019Y-48312899D01*
X137217824Y-48322218D01*
X137220703Y-48324715D01*
X137223014Y-48325485D01*
X137227905Y-48328564D01*
X137445845Y-48434312D01*
X137504225Y-48438460D01*
X137559747Y-48419953D01*
X137603962Y-48381606D01*
X137630137Y-48329257D01*
X137634285Y-48270877D01*
X137615778Y-48215354D01*
X137577431Y-48171139D01*
X137552545Y-48155474D01*
X137407376Y-48085035D01*
X137349697Y-47973028D01*
X137346915Y-46289638D01*
X139621178Y-46289638D01*
X139624060Y-48318902D01*
X139646458Y-48372974D01*
X139687842Y-48414358D01*
X139741914Y-48436756D01*
X139800442Y-48436756D01*
X139854514Y-48414358D01*
X139895898Y-48372974D01*
X139918296Y-48318902D01*
X139921178Y-48289638D01*
X139918338Y-46289638D01*
X140573559Y-46289638D01*
X140576441Y-48318902D01*
X140598839Y-48372974D01*
X140640223Y-48414358D01*
X140694295Y-48436756D01*
X140752823Y-48436756D01*
X140806895Y-48414358D01*
X140848279Y-48372974D01*
X140870677Y-48318902D01*
X140873559Y-48289638D01*
X140872418Y-47486714D01*
X141120863Y-47485809D01*
X141762674Y-48397978D01*
X141812031Y-48429431D01*
X141869667Y-48439602D01*
X141926808Y-48426943D01*
X141974756Y-48393380D01*
X142006210Y-48344022D01*
X142016380Y-48286387D01*
X142003721Y-48229245D01*
X141989301Y-48203618D01*
X141483589Y-47484879D01*
X141489385Y-47484467D01*
X141514728Y-47484375D01*
X141519705Y-47482313D01*
X141525083Y-47481931D01*
X141552546Y-47471421D01*
X141741647Y-47374041D01*
X141759276Y-47366739D01*
X141765084Y-47361971D01*
X141767908Y-47360518D01*
X141770505Y-47357523D01*
X141782007Y-47348084D01*
X141876693Y-47250008D01*
X141889677Y-47238748D01*
X141893635Y-47232459D01*
X141895900Y-47230114D01*
X141897416Y-47226452D01*
X141905342Y-47213862D01*
X141988690Y-47042085D01*
X141991136Y-47039640D01*
X141998480Y-47021909D01*
X142011090Y-46995922D01*
X142011471Y-46990546D01*
X142013534Y-46985568D01*
X142016416Y-46956304D01*
X142014007Y-46693044D01*
X142015238Y-46689352D01*
X142013786Y-46668923D01*
X142013534Y-46641326D01*
X142011471Y-46636347D01*
X142011090Y-46630972D01*
X142000580Y-46603508D01*
X141903201Y-46414409D01*
X141895899Y-46396779D01*
X141891130Y-46390968D01*
X141889677Y-46388146D01*
X141886683Y-46385549D01*
X141877244Y-46374048D01*
X141789814Y-46289638D01*
X142573559Y-46289638D01*
X142576441Y-48318902D01*
X142598839Y-48372974D01*
X142640223Y-48414358D01*
X142694295Y-48436756D01*
X142752823Y-48436756D01*
X142806895Y-48414358D01*
X142848279Y-48372974D01*
X142870677Y-48318902D01*
X142873559Y-48289638D01*
X142871669Y-46958881D01*
X143254419Y-47775233D01*
X143261966Y-47795987D01*
X143266440Y-47800873D01*
X143269286Y-47806942D01*
X143286091Y-47822332D01*
X143301493Y-47839150D01*
X143307536Y-47841970D01*
X143312449Y-47846469D01*
X143333869Y-47854258D01*
X143354531Y-47863900D01*
X143361188Y-47864192D01*
X143367451Y-47866470D01*
X143390226Y-47865468D01*
X143413001Y-47866470D01*
X143419263Y-47864192D01*
X143425922Y-47863900D01*
X143446583Y-47854258D01*
X143468004Y-47846469D01*
X143472917Y-47841969D01*
X143478959Y-47839150D01*
X143494354Y-47822337D01*
X143511167Y-47806942D01*
X143516135Y-47798553D01*
X143518486Y-47795987D01*
X143519805Y-47792357D01*
X143526153Y-47781642D01*
X143907843Y-46959887D01*
X143909774Y-48318902D01*
X143932172Y-48372974D01*
X143973556Y-48414358D01*
X144027628Y-48436756D01*
X144086156Y-48436756D01*
X144140228Y-48414358D01*
X144181612Y-48372974D01*
X144204010Y-48318902D01*
X144206892Y-48289638D01*
X144204092Y-46318902D01*
X146100251Y-46318902D01*
X146122649Y-46372974D01*
X146164033Y-46414358D01*
X146218105Y-46436756D01*
X146247369Y-46439638D01*
X146669008Y-46438601D01*
X146671679Y-48318902D01*
X146694077Y-48372974D01*
X146735461Y-48414358D01*
X146789533Y-48436756D01*
X146848061Y-48436756D01*
X146902133Y-48414358D01*
X146943517Y-48372974D01*
X146965915Y-48318902D01*
X146968797Y-48289638D01*
X146967850Y-47623127D01*
X147811655Y-47623127D01*
X147813069Y-47630197D01*
X147814345Y-47980623D01*
X147812833Y-47985161D01*
X147814444Y-48007844D01*
X147814537Y-48033187D01*
X147816599Y-48038165D01*
X147816981Y-48043541D01*
X147827491Y-48071005D01*
X147921607Y-48253770D01*
X147926579Y-48268684D01*
X147933246Y-48276371D01*
X147938394Y-48286368D01*
X147952603Y-48298691D01*
X147964925Y-48312899D01*
X147979730Y-48322218D01*
X147982609Y-48324715D01*
X147984920Y-48325485D01*
X147989811Y-48328564D01*
X148161587Y-48411912D01*
X148164033Y-48414358D01*
X148181763Y-48421702D01*
X148207751Y-48434312D01*
X148213126Y-48434693D01*
X148218105Y-48436756D01*
X148247369Y-48439638D01*
X148605544Y-48437121D01*
X148609560Y-48438460D01*
X148630904Y-48436943D01*
X148657586Y-48436756D01*
X148662563Y-48434694D01*
X148667941Y-48434312D01*
X148695404Y-48423802D01*
X148910766Y-48312899D01*
X148949113Y-48268684D01*
X148967620Y-48213161D01*
X148963472Y-48154781D01*
X148937297Y-48102432D01*
X148893082Y-48064085D01*
X148837560Y-48045578D01*
X148779180Y-48049726D01*
X148751716Y-48060236D01*
X148597099Y-48139857D01*
X148286759Y-48142037D01*
X148169282Y-48085035D01*
X148111542Y-47972908D01*
X148110714Y-47745770D01*
X148929239Y-47579613D01*
X148943300Y-47579613D01*
X148956813Y-47574015D01*
X148971584Y-47571017D01*
X148983795Y-47562838D01*
X148997372Y-47557215D01*
X149007874Y-47546712D01*
X149020213Y-47538449D01*
X149028363Y-47526223D01*
X149038756Y-47515831D01*
X149044439Y-47502110D01*
X149052678Y-47489753D01*
X149055529Y-47475336D01*
X149061154Y-47461759D01*
X149064036Y-47432495D01*
X149064034Y-47432347D01*
X149064036Y-47432338D01*
X149064033Y-47432326D01*
X149061824Y-47263881D01*
X149062858Y-47260781D01*
X149061540Y-47242241D01*
X149061537Y-47242019D01*
X149525941Y-47242019D01*
X149527672Y-47316833D01*
X149527119Y-47318495D01*
X149527997Y-47330859D01*
X149528823Y-47366521D01*
X149530884Y-47371498D01*
X149531267Y-47376876D01*
X149541777Y-47404339D01*
X149635893Y-47587103D01*
X149640865Y-47602017D01*
X149647532Y-47609704D01*
X149652680Y-47619701D01*
X149666889Y-47632024D01*
X149679211Y-47646232D01*
X149694016Y-47655551D01*
X149696895Y-47658048D01*
X149699206Y-47658818D01*
X149704097Y-47661897D01*
X149875873Y-47745245D01*
X149878319Y-47747691D01*
X149896049Y-47755035D01*
X149922037Y-47767645D01*
X149927412Y-47768026D01*
X149932391Y-47770089D01*
X149961655Y-47772971D01*
X150208273Y-47770714D01*
X150325455Y-47827572D01*
X150383830Y-47940930D01*
X150384427Y-47966709D01*
X150328481Y-48082009D01*
X150216147Y-48139857D01*
X149905807Y-48142037D01*
X149715560Y-48049726D01*
X149657179Y-48045578D01*
X149601657Y-48064086D01*
X149557442Y-48102432D01*
X149531267Y-48154781D01*
X149527119Y-48213162D01*
X149545627Y-48268684D01*
X149583973Y-48312899D01*
X149608859Y-48328564D01*
X149780635Y-48411912D01*
X149783081Y-48414358D01*
X149800811Y-48421702D01*
X149826799Y-48434312D01*
X149832174Y-48434693D01*
X149837153Y-48436756D01*
X149866417Y-48439638D01*
X150224591Y-48437121D01*
X150228607Y-48438460D01*
X150249951Y-48436943D01*
X150276633Y-48436756D01*
X150281611Y-48434693D01*
X150286987Y-48434312D01*
X150314451Y-48423802D01*
X150497216Y-48329685D01*
X150512130Y-48324714D01*
X150519817Y-48318046D01*
X150529814Y-48312899D01*
X150542140Y-48298686D01*
X150556345Y-48286367D01*
X150565663Y-48271563D01*
X150568161Y-48268684D01*
X150568931Y-48266372D01*
X150572010Y-48261482D01*
X150655359Y-48089703D01*
X150657804Y-48087259D01*
X150665147Y-48069529D01*
X150677758Y-48043541D01*
X150678139Y-48038165D01*
X150680202Y-48033187D01*
X150683084Y-48003923D01*
X150681352Y-47929108D01*
X150681906Y-47927447D01*
X150681027Y-47915082D01*
X150680202Y-47879421D01*
X150678139Y-47874442D01*
X150677758Y-47869067D01*
X150667248Y-47841603D01*
X150573133Y-47658842D01*
X150568161Y-47643925D01*
X150561491Y-47636234D01*
X150556345Y-47626241D01*
X150542137Y-47613919D01*
X150529814Y-47599710D01*
X150515004Y-47590387D01*
X150512130Y-47587895D01*
X150509822Y-47587125D01*
X150504928Y-47584045D01*
X150333149Y-47500695D01*
X150330705Y-47498251D01*
X150312975Y-47490907D01*
X150286987Y-47478297D01*
X150281611Y-47477915D01*
X150276633Y-47475853D01*
X150247369Y-47472971D01*
X150000750Y-47475227D01*
X149883569Y-47418369D01*
X149825194Y-47305011D01*
X149824597Y-47279232D01*
X149880542Y-47163932D01*
X149993008Y-47106017D01*
X150208273Y-47104047D01*
X150398228Y-47196216D01*
X150456608Y-47200364D01*
X150512131Y-47181857D01*
X150556346Y-47143510D01*
X150582520Y-47091161D01*
X150586668Y-47032780D01*
X150570931Y-46985568D01*
X150957395Y-46985568D01*
X150979793Y-47039640D01*
X151021177Y-47081024D01*
X151075249Y-47103422D01*
X151104513Y-47106304D01*
X151241576Y-47105804D01*
X151243021Y-47980311D01*
X151241405Y-47985161D01*
X151243068Y-48008570D01*
X151243109Y-48033187D01*
X151245171Y-48038165D01*
X151245553Y-48043541D01*
X151256063Y-48071005D01*
X151350179Y-48253770D01*
X151355151Y-48268684D01*
X151361818Y-48276371D01*
X151366966Y-48286368D01*
X151381175Y-48298691D01*
X151393497Y-48312899D01*
X151408302Y-48322218D01*
X151411181Y-48324715D01*
X151413492Y-48325485D01*
X151418383Y-48328564D01*
X151590159Y-48411912D01*
X151592605Y-48414358D01*
X151610335Y-48421702D01*
X151636323Y-48434312D01*
X151641698Y-48434693D01*
X151646677Y-48436756D01*
X151675941Y-48439638D01*
X151895681Y-48436756D01*
X151949753Y-48414358D01*
X151991137Y-48372974D01*
X152013535Y-48318902D01*
X152013535Y-48260374D01*
X151991137Y-48206302D01*
X151949753Y-48164918D01*
X151895681Y-48142520D01*
X151866417Y-48139638D01*
X151714492Y-48141630D01*
X151597854Y-48085035D01*
X151540175Y-47973028D01*
X151538740Y-47104722D01*
X151895681Y-47103422D01*
X151949753Y-47081024D01*
X151991137Y-47039640D01*
X152013535Y-46985568D01*
X152013535Y-46927040D01*
X151991137Y-46872968D01*
X151949753Y-46831584D01*
X151895681Y-46809186D01*
X151866417Y-46806304D01*
X151538249Y-46807499D01*
X151537393Y-46289638D01*
X153906894Y-46289638D01*
X153909776Y-48318902D01*
X153932174Y-48372974D01*
X153973558Y-48414358D01*
X154027630Y-48436756D01*
X154056894Y-48439638D01*
X154795499Y-48436947D01*
X154800037Y-48438460D01*
X154822720Y-48436848D01*
X154848063Y-48436756D01*
X154853040Y-48434694D01*
X154858418Y-48434312D01*
X154885881Y-48423802D01*
X155074982Y-48326422D01*
X155092611Y-48319120D01*
X155098419Y-48314352D01*
X155101243Y-48312899D01*
X155103840Y-48309904D01*
X155115342Y-48300465D01*
X155210028Y-48202389D01*
X155223012Y-48191129D01*
X155226970Y-48184840D01*
X155229235Y-48182495D01*
X155230751Y-48178833D01*
X155238677Y-48166243D01*
X155322025Y-47994466D01*
X155324471Y-47992021D01*
X155331815Y-47974290D01*
X155344425Y-47948303D01*
X155344806Y-47942927D01*
X155346869Y-47937949D01*
X155349751Y-47908685D01*
X155347342Y-47645425D01*
X155348573Y-47641733D01*
X155347121Y-47621304D01*
X155346869Y-47593707D01*
X155344806Y-47588728D01*
X155344425Y-47583353D01*
X155333915Y-47555889D01*
X155236536Y-47366790D01*
X155229234Y-47349160D01*
X155224465Y-47343349D01*
X155223012Y-47340527D01*
X155220018Y-47337930D01*
X155219466Y-47337257D01*
X155811656Y-47337257D01*
X155814286Y-47885565D01*
X155812834Y-47889923D01*
X155814414Y-47912164D01*
X155814538Y-47937949D01*
X155816599Y-47942926D01*
X155816982Y-47948304D01*
X155827492Y-47975767D01*
X155924871Y-48164866D01*
X155932173Y-48182496D01*
X155936941Y-48188306D01*
X155938395Y-48191129D01*
X155941388Y-48193725D01*
X155950827Y-48205226D01*
X156048905Y-48299917D01*
X156060164Y-48312899D01*
X156066449Y-48316855D01*
X156068796Y-48319121D01*
X156072458Y-48320637D01*
X156085050Y-48328564D01*
X156256826Y-48411912D01*
X156259272Y-48414358D01*
X156277002Y-48421702D01*
X156302990Y-48434312D01*
X156308365Y-48434693D01*
X156313344Y-48436756D01*
X156342608Y-48439638D01*
X156605868Y-48437229D01*
X156609561Y-48438460D01*
X156629990Y-48437008D01*
X156657587Y-48436756D01*
X156662564Y-48434694D01*
X156667942Y-48434312D01*
X156695405Y-48423802D01*
X156884506Y-48326422D01*
X156902135Y-48319120D01*
X156907943Y-48314352D01*
X156910767Y-48312899D01*
X156913364Y-48309904D01*
X156924866Y-48300465D01*
X157019552Y-48202389D01*
X157032536Y-48191129D01*
X157036494Y-48184840D01*
X157038759Y-48182495D01*
X157040275Y-48178833D01*
X157048201Y-48166243D01*
X157131549Y-47994466D01*
X157133995Y-47992021D01*
X157141339Y-47974290D01*
X157153949Y-47948303D01*
X157154330Y-47942927D01*
X157156393Y-47937949D01*
X157159275Y-47908685D01*
X157158818Y-47813447D01*
X157621180Y-47813447D01*
X157623391Y-47982060D01*
X157622358Y-47985161D01*
X157623675Y-48003700D01*
X157624062Y-48033187D01*
X157626124Y-48038165D01*
X157626506Y-48043541D01*
X157637016Y-48071005D01*
X157731132Y-48253770D01*
X157736104Y-48268684D01*
X157742771Y-48276371D01*
X157747919Y-48286368D01*
X157762128Y-48298691D01*
X157774450Y-48312899D01*
X157789255Y-48322218D01*
X157792134Y-48324715D01*
X157794445Y-48325485D01*
X157799336Y-48328564D01*
X157971112Y-48411912D01*
X157973558Y-48414358D01*
X157991288Y-48421702D01*
X158017276Y-48434312D01*
X158022651Y-48434693D01*
X158027630Y-48436756D01*
X158056894Y-48439638D01*
X158510104Y-48437053D01*
X158514323Y-48438460D01*
X158536208Y-48436905D01*
X158562349Y-48436756D01*
X158567326Y-48434694D01*
X158572704Y-48434312D01*
X158600167Y-48423802D01*
X158632842Y-48406975D01*
X158640225Y-48414358D01*
X158694297Y-48436756D01*
X158752825Y-48436756D01*
X158806897Y-48414358D01*
X158848281Y-48372974D01*
X158870679Y-48318902D01*
X158873561Y-48289638D01*
X158871325Y-47454427D01*
X158872383Y-47451256D01*
X158871275Y-47435669D01*
X158870820Y-47265469D01*
X158872383Y-47260781D01*
X158870745Y-47237739D01*
X158870679Y-47212755D01*
X158868616Y-47207776D01*
X158868235Y-47202401D01*
X158857725Y-47174938D01*
X158763611Y-46992177D01*
X158758638Y-46977258D01*
X158751967Y-46969566D01*
X158746822Y-46959575D01*
X158743051Y-46956304D01*
X159525942Y-46956304D01*
X159528824Y-48318902D01*
X159551222Y-48372974D01*
X159592606Y-48414358D01*
X159646678Y-48436756D01*
X159705206Y-48436756D01*
X159759278Y-48414358D01*
X159800662Y-48372974D01*
X159823060Y-48318902D01*
X159825942Y-48289638D01*
X159824008Y-47375685D01*
X159842654Y-47337257D01*
X160668799Y-47337257D01*
X160671429Y-47885565D01*
X160669977Y-47889923D01*
X160671557Y-47912164D01*
X160671681Y-47937949D01*
X160673742Y-47942926D01*
X160674125Y-47948304D01*
X160684635Y-47975767D01*
X160782014Y-48164866D01*
X160789316Y-48182496D01*
X160794084Y-48188306D01*
X160795538Y-48191129D01*
X160798531Y-48193725D01*
X160807970Y-48205226D01*
X160906048Y-48299917D01*
X160917307Y-48312899D01*
X160923592Y-48316855D01*
X160925939Y-48319121D01*
X160929601Y-48320637D01*
X160942193Y-48328564D01*
X161113969Y-48411912D01*
X161116415Y-48414358D01*
X161134145Y-48421702D01*
X161160133Y-48434312D01*
X161165508Y-48434693D01*
X161170487Y-48436756D01*
X161199751Y-48439638D01*
X161557926Y-48437121D01*
X161561942Y-48438460D01*
X161583286Y-48436943D01*
X161609968Y-48436756D01*
X161614945Y-48434694D01*
X161620323Y-48434312D01*
X161647786Y-48423802D01*
X161680461Y-48406975D01*
X161687844Y-48414358D01*
X161741916Y-48436756D01*
X161800444Y-48436756D01*
X161854516Y-48414358D01*
X161895900Y-48372974D01*
X161918298Y-48318902D01*
X161921180Y-48289638D01*
X161919406Y-47041156D01*
X161920002Y-47032781D01*
X161919392Y-47030952D01*
X161918298Y-46260374D01*
X161895900Y-46206302D01*
X161854516Y-46164918D01*
X161800444Y-46142520D01*
X161741916Y-46142520D01*
X161687844Y-46164918D01*
X161646460Y-46206302D01*
X161624062Y-46260374D01*
X161621180Y-46289638D01*
X161621922Y-46812406D01*
X161620323Y-46811630D01*
X161614945Y-46811247D01*
X161609968Y-46809186D01*
X161580704Y-46806304D01*
X161222528Y-46808820D01*
X161218513Y-46807482D01*
X161197168Y-46808998D01*
X161170487Y-46809186D01*
X161165508Y-46811248D01*
X161160133Y-46811630D01*
X161132669Y-46822140D01*
X160943570Y-46919518D01*
X160925940Y-46926821D01*
X160920129Y-46931589D01*
X160917307Y-46933043D01*
X160914710Y-46936036D01*
X160903209Y-46945476D01*
X160808524Y-47043548D01*
X160795538Y-47054812D01*
X160791579Y-47061100D01*
X160789316Y-47063445D01*
X160787800Y-47067104D01*
X160779873Y-47079698D01*
X160696523Y-47251476D01*
X160694079Y-47253921D01*
X160686735Y-47271650D01*
X160674125Y-47297639D01*
X160673743Y-47303014D01*
X160671681Y-47307993D01*
X160668799Y-47337257D01*
X159842654Y-47337257D01*
X159890045Y-47239588D01*
X159950535Y-47176933D01*
X160088495Y-47105889D01*
X160276635Y-47103422D01*
X160330707Y-47081024D01*
X160372091Y-47039640D01*
X160394489Y-46985568D01*
X160394489Y-46927040D01*
X160372091Y-46872968D01*
X160330707Y-46831584D01*
X160276635Y-46809186D01*
X160247371Y-46806304D01*
X160078756Y-46808515D01*
X160075656Y-46807482D01*
X160057116Y-46808799D01*
X160027630Y-46809186D01*
X160022651Y-46811248D01*
X160017276Y-46811630D01*
X159989812Y-46822140D01*
X159816563Y-46911356D01*
X159800662Y-46872968D01*
X159759278Y-46831584D01*
X159705206Y-46809186D01*
X159646678Y-46809186D01*
X159592606Y-46831584D01*
X159551222Y-46872968D01*
X159528824Y-46927040D01*
X159525942Y-46956304D01*
X158743051Y-46956304D01*
X158732617Y-46947255D01*
X158720291Y-46933043D01*
X158705480Y-46923720D01*
X158702607Y-46921228D01*
X158700299Y-46920458D01*
X158695405Y-46917378D01*
X158523627Y-46834028D01*
X158521183Y-46831584D01*
X158503458Y-46824242D01*
X158477466Y-46811630D01*
X158472088Y-46811247D01*
X158467111Y-46809186D01*
X158437847Y-46806304D01*
X158079671Y-46808820D01*
X158075656Y-46807482D01*
X158054311Y-46808998D01*
X158027630Y-46809186D01*
X158022651Y-46811248D01*
X158017276Y-46811630D01*
X157989812Y-46822140D01*
X157774450Y-46933043D01*
X157736104Y-46977258D01*
X157717596Y-47032780D01*
X157721744Y-47091161D01*
X157747919Y-47143510D01*
X157792134Y-47181856D01*
X157847656Y-47200364D01*
X157906037Y-47196216D01*
X157933500Y-47185706D01*
X158088116Y-47106084D01*
X158398456Y-47103904D01*
X158515932Y-47160905D01*
X158573643Y-47272975D01*
X158573825Y-47340894D01*
X158501943Y-47377910D01*
X158079874Y-47380317D01*
X158075656Y-47378911D01*
X158053771Y-47380465D01*
X158027630Y-47380615D01*
X158022651Y-47382677D01*
X158017276Y-47383059D01*
X157989812Y-47393569D01*
X157807050Y-47487684D01*
X157792134Y-47492656D01*
X157784443Y-47499325D01*
X157774450Y-47504472D01*
X157762128Y-47518679D01*
X157747919Y-47531003D01*
X157738596Y-47545812D01*
X157736104Y-47548687D01*
X157735334Y-47550994D01*
X157732254Y-47555889D01*
X157648904Y-47727666D01*
X157646460Y-47730111D01*
X157639118Y-47747835D01*
X157626506Y-47773828D01*
X157626123Y-47779205D01*
X157624062Y-47784183D01*
X157621180Y-47813447D01*
X157158818Y-47813447D01*
X157156644Y-47360377D01*
X157158097Y-47356019D01*
X157156516Y-47333777D01*
X157156393Y-47307993D01*
X157154330Y-47303014D01*
X157153949Y-47297639D01*
X157143439Y-47270176D01*
X157046063Y-47081081D01*
X157038758Y-47063445D01*
X157033988Y-47057633D01*
X157032536Y-47054813D01*
X157029544Y-47052218D01*
X157020103Y-47040714D01*
X156922030Y-46946029D01*
X156910767Y-46933043D01*
X156904478Y-46929084D01*
X156902134Y-46926821D01*
X156898474Y-46925305D01*
X156885881Y-46917378D01*
X156714103Y-46834028D01*
X156711659Y-46831584D01*
X156693934Y-46824242D01*
X156667942Y-46811630D01*
X156662564Y-46811247D01*
X156657587Y-46809186D01*
X156628323Y-46806304D01*
X156365062Y-46808712D01*
X156361370Y-46807482D01*
X156340941Y-46808933D01*
X156313344Y-46809186D01*
X156308365Y-46811248D01*
X156302990Y-46811630D01*
X156275526Y-46822140D01*
X156086427Y-46919518D01*
X156068797Y-46926821D01*
X156062986Y-46931589D01*
X156060164Y-46933043D01*
X156057567Y-46936036D01*
X156046066Y-46945476D01*
X155951381Y-47043548D01*
X155938395Y-47054812D01*
X155934436Y-47061100D01*
X155932173Y-47063445D01*
X155930657Y-47067104D01*
X155922730Y-47079698D01*
X155839380Y-47251476D01*
X155836936Y-47253921D01*
X155829592Y-47271650D01*
X155816982Y-47297639D01*
X155816600Y-47303014D01*
X155814538Y-47307993D01*
X155811656Y-47337257D01*
X155219466Y-47337257D01*
X155210579Y-47326429D01*
X155128929Y-47247600D01*
X155127774Y-47245290D01*
X155115597Y-47234729D01*
X155092610Y-47212536D01*
X155087630Y-47210473D01*
X155083560Y-47206943D01*
X155070185Y-47200971D01*
X155114788Y-47154771D01*
X155127774Y-47143510D01*
X155131732Y-47137221D01*
X155133996Y-47134877D01*
X155135511Y-47131217D01*
X155143439Y-47118624D01*
X155226787Y-46946847D01*
X155229233Y-46944402D01*
X155236577Y-46926671D01*
X155249187Y-46900684D01*
X155249568Y-46895308D01*
X155251631Y-46890330D01*
X155254513Y-46861066D01*
X155252301Y-46692452D01*
X155253335Y-46689352D01*
X155252017Y-46670812D01*
X155251631Y-46641326D01*
X155249568Y-46636347D01*
X155249187Y-46630972D01*
X155238677Y-46603508D01*
X155141298Y-46414409D01*
X155133996Y-46396779D01*
X155129227Y-46390968D01*
X155127774Y-46388146D01*
X155124780Y-46385549D01*
X155115341Y-46374048D01*
X155017268Y-46279363D01*
X155006005Y-46266377D01*
X154999716Y-46262418D01*
X154997372Y-46260155D01*
X154993712Y-46258639D01*
X154981119Y-46250712D01*
X154809341Y-46167362D01*
X154806897Y-46164918D01*
X154789172Y-46157576D01*
X154763180Y-46144964D01*
X154757802Y-46144581D01*
X154752825Y-46142520D01*
X154723561Y-46139638D01*
X154027630Y-46142520D01*
X153973558Y-46164918D01*
X153932174Y-46206302D01*
X153909776Y-46260374D01*
X153906894Y-46289638D01*
X151537393Y-46289638D01*
X151537345Y-46260374D01*
X151514947Y-46206302D01*
X151473563Y-46164918D01*
X151419491Y-46142520D01*
X151360963Y-46142520D01*
X151306891Y-46164918D01*
X151265507Y-46206302D01*
X151243109Y-46260374D01*
X151240227Y-46289638D01*
X151241084Y-46808581D01*
X151075249Y-46809186D01*
X151021177Y-46831584D01*
X150979793Y-46872968D01*
X150957395Y-46927040D01*
X150957395Y-46985568D01*
X150570931Y-46985568D01*
X150568161Y-46977258D01*
X150529814Y-46933043D01*
X150504928Y-46917378D01*
X150333149Y-46834028D01*
X150330705Y-46831584D01*
X150312975Y-46824240D01*
X150286987Y-46811630D01*
X150281611Y-46811248D01*
X150276633Y-46809186D01*
X150247369Y-46806304D01*
X149984109Y-46808712D01*
X149980417Y-46807482D01*
X149959988Y-46808933D01*
X149932391Y-46809186D01*
X149927412Y-46811248D01*
X149922037Y-46811630D01*
X149894573Y-46822140D01*
X149711812Y-46916254D01*
X149696895Y-46921227D01*
X149689204Y-46927896D01*
X149679211Y-46933043D01*
X149666889Y-46947250D01*
X149652680Y-46959574D01*
X149643357Y-46974383D01*
X149640865Y-46977258D01*
X149640095Y-46979565D01*
X149637015Y-46984460D01*
X149553665Y-47156238D01*
X149551221Y-47158683D01*
X149543877Y-47176412D01*
X149531267Y-47202401D01*
X149530885Y-47207776D01*
X149528823Y-47212755D01*
X149525941Y-47242019D01*
X149061537Y-47242019D01*
X149061154Y-47212755D01*
X149059091Y-47207776D01*
X149058710Y-47202401D01*
X149048200Y-47174938D01*
X148954086Y-46992177D01*
X148949113Y-46977258D01*
X148942442Y-46969566D01*
X148937297Y-46959575D01*
X148923092Y-46947255D01*
X148910766Y-46933043D01*
X148895955Y-46923720D01*
X148893082Y-46921228D01*
X148890774Y-46920458D01*
X148885880Y-46917378D01*
X148714102Y-46834028D01*
X148711658Y-46831584D01*
X148693933Y-46824242D01*
X148667941Y-46811630D01*
X148662563Y-46811247D01*
X148657586Y-46809186D01*
X148628322Y-46806304D01*
X148270146Y-46808820D01*
X148266131Y-46807482D01*
X148244786Y-46808998D01*
X148218105Y-46809186D01*
X148213126Y-46811248D01*
X148207751Y-46811630D01*
X148180287Y-46822140D01*
X147997526Y-46916254D01*
X147982609Y-46921227D01*
X147974918Y-46927896D01*
X147964925Y-46933043D01*
X147952603Y-46947250D01*
X147938394Y-46959574D01*
X147929071Y-46974383D01*
X147926579Y-46977258D01*
X147925809Y-46979565D01*
X147922729Y-46984460D01*
X147839379Y-47156238D01*
X147836935Y-47158683D01*
X147829591Y-47176412D01*
X147816981Y-47202401D01*
X147816599Y-47207776D01*
X147814537Y-47212755D01*
X147811655Y-47242019D01*
X147813018Y-47616236D01*
X147811655Y-47623127D01*
X146967850Y-47623127D01*
X146966167Y-46437870D01*
X147419490Y-46436756D01*
X147473562Y-46414358D01*
X147514946Y-46372974D01*
X147537344Y-46318902D01*
X147537344Y-46260374D01*
X147514946Y-46206302D01*
X147473562Y-46164918D01*
X147419490Y-46142520D01*
X147390226Y-46139638D01*
X146218105Y-46142520D01*
X146164033Y-46164918D01*
X146122649Y-46206302D01*
X146100251Y-46260374D01*
X146100251Y-46318902D01*
X144204092Y-46318902D01*
X144204054Y-46291850D01*
X144205153Y-46266863D01*
X144204014Y-46263732D01*
X144204010Y-46260374D01*
X144194046Y-46236321D01*
X144185152Y-46211861D01*
X144182892Y-46209394D01*
X144181612Y-46206302D01*
X144163196Y-46187886D01*
X144145624Y-46168698D01*
X144142593Y-46167283D01*
X144140228Y-46164918D01*
X144116169Y-46154952D01*
X144092587Y-46143947D01*
X144089246Y-46143800D01*
X144086156Y-46142520D01*
X144060108Y-46142520D01*
X144034116Y-46141378D01*
X144030975Y-46142520D01*
X144027628Y-46142520D01*
X144003574Y-46152483D01*
X143979114Y-46161378D01*
X143976646Y-46163637D01*
X143973556Y-46164918D01*
X143955151Y-46183322D01*
X143935951Y-46200906D01*
X143933601Y-46204872D01*
X143932172Y-46206302D01*
X143930817Y-46209572D01*
X143920964Y-46226206D01*
X143391156Y-47366846D01*
X142857746Y-46229157D01*
X142848279Y-46206302D01*
X142845928Y-46203951D01*
X142844500Y-46200905D01*
X142825292Y-46183315D01*
X142806895Y-46164918D01*
X142803804Y-46163637D01*
X142801337Y-46161378D01*
X142776871Y-46152481D01*
X142752823Y-46142520D01*
X142749477Y-46142520D01*
X142746334Y-46141377D01*
X142720329Y-46142520D01*
X142694295Y-46142520D01*
X142691204Y-46143800D01*
X142687863Y-46143947D01*
X142664263Y-46154959D01*
X142640223Y-46164918D01*
X142637859Y-46167281D01*
X142634826Y-46168697D01*
X142617236Y-46187904D01*
X142598839Y-46206302D01*
X142597558Y-46209392D01*
X142595299Y-46211860D01*
X142586402Y-46236325D01*
X142576441Y-46260374D01*
X142575989Y-46264962D01*
X142575298Y-46266863D01*
X142575453Y-46270401D01*
X142573559Y-46289638D01*
X141789814Y-46289638D01*
X141779171Y-46279363D01*
X141767908Y-46266377D01*
X141761619Y-46262418D01*
X141759275Y-46260155D01*
X141755615Y-46258639D01*
X141743022Y-46250712D01*
X141571244Y-46167362D01*
X141568800Y-46164918D01*
X141551075Y-46157576D01*
X141525083Y-46144964D01*
X141519705Y-46144581D01*
X141514728Y-46142520D01*
X141485464Y-46139638D01*
X140694295Y-46142520D01*
X140640223Y-46164918D01*
X140598839Y-46206302D01*
X140576441Y-46260374D01*
X140573559Y-46289638D01*
X139918338Y-46289638D01*
X139918296Y-46260374D01*
X139895898Y-46206302D01*
X139854514Y-46164918D01*
X139800442Y-46142520D01*
X139741914Y-46142520D01*
X139687842Y-46164918D01*
X139646458Y-46206302D01*
X139624060Y-46260374D01*
X139621178Y-46289638D01*
X137346915Y-46289638D01*
X137346867Y-46260374D01*
X137324469Y-46206302D01*
X137283085Y-46164918D01*
X137229013Y-46142520D01*
X137170485Y-46142520D01*
X137116413Y-46164918D01*
X137075029Y-46206302D01*
X137052631Y-46260374D01*
X137049749Y-46289638D01*
X136299296Y-46289638D01*
X136299248Y-46260374D01*
X136276850Y-46206302D01*
X136235466Y-46164918D01*
X136181394Y-46142520D01*
X136122866Y-46142520D01*
X136068794Y-46164918D01*
X136027410Y-46206302D01*
X136005012Y-46260374D01*
X136002130Y-46289638D01*
X126204150Y-46289638D01*
X126205152Y-46266863D01*
X126204013Y-46263732D01*
X126204009Y-46260374D01*
X126194045Y-46236321D01*
X126185151Y-46211861D01*
X126182891Y-46209394D01*
X126181611Y-46206302D01*
X126163195Y-46187886D01*
X126145623Y-46168698D01*
X126142592Y-46167283D01*
X126140227Y-46164918D01*
X126116168Y-46154952D01*
X126092586Y-46143947D01*
X126089245Y-46143800D01*
X126086155Y-46142520D01*
X126060107Y-46142520D01*
X126034115Y-46141378D01*
X126030974Y-46142520D01*
X126027627Y-46142520D01*
X126003573Y-46152483D01*
X125979113Y-46161378D01*
X125976645Y-46163637D01*
X125973555Y-46164918D01*
X125955150Y-46183322D01*
X125935950Y-46200906D01*
X125933600Y-46204872D01*
X125932171Y-46206302D01*
X125930816Y-46209572D01*
X125920963Y-46226206D01*
X125391155Y-47366846D01*
X124857745Y-46229157D01*
X124848278Y-46206302D01*
X124845927Y-46203951D01*
X124844499Y-46200905D01*
X124825291Y-46183315D01*
X124806894Y-46164918D01*
X124803803Y-46163637D01*
X124801336Y-46161378D01*
X124776870Y-46152481D01*
X124752822Y-46142520D01*
X124749476Y-46142520D01*
X124746333Y-46141377D01*
X124720328Y-46142520D01*
X124694294Y-46142520D01*
X124691203Y-46143800D01*
X124687862Y-46143947D01*
X124664262Y-46154959D01*
X124640222Y-46164918D01*
X124637858Y-46167281D01*
X124634825Y-46168697D01*
X124617235Y-46187904D01*
X124598838Y-46206302D01*
X124597557Y-46209392D01*
X124595298Y-46211860D01*
X124586401Y-46236325D01*
X124576440Y-46260374D01*
X124575988Y-46264962D01*
X124575297Y-46266863D01*
X124575452Y-46270401D01*
X124573558Y-46289638D01*
X124351336Y-46289638D01*
X124351336Y-45917416D01*
X162143402Y-45917416D01*
X162143402Y-48661860D01*
G37*
D12*
G36*
X187421910Y-68241446D02*
G01*
X185390146Y-68241446D01*
X185390146Y-67988071D01*
X185556813Y-67988071D01*
X185569151Y-68025087D01*
X185594716Y-68054563D01*
X185629615Y-68072013D01*
X185668535Y-68074779D01*
X185687651Y-68070432D01*
X187175468Y-67572508D01*
X187182441Y-67572013D01*
X187193556Y-67566455D01*
X187205551Y-67562441D01*
X187210950Y-67557757D01*
X187217340Y-67554563D01*
X187225555Y-67545090D01*
X187235028Y-67536875D01*
X187238222Y-67530485D01*
X187242905Y-67525087D01*
X187246870Y-67513190D01*
X187252477Y-67501977D01*
X187252983Y-67494849D01*
X187255243Y-67488071D01*
X187254354Y-67475564D01*
X187255243Y-67463057D01*
X187252983Y-67456278D01*
X187252477Y-67449151D01*
X187246870Y-67437937D01*
X187242905Y-67426041D01*
X187238222Y-67420642D01*
X187235028Y-67414253D01*
X187225555Y-67406037D01*
X187217340Y-67396565D01*
X187210950Y-67393370D01*
X187205551Y-67388687D01*
X187187651Y-67380696D01*
X185668535Y-66876349D01*
X185629615Y-66879115D01*
X185594716Y-66896565D01*
X185569151Y-66926041D01*
X185556813Y-66963057D01*
X185559579Y-67001977D01*
X185577029Y-67036876D01*
X185606505Y-67062441D01*
X185624405Y-67070432D01*
X186842800Y-67474939D01*
X185606505Y-67888687D01*
X185577029Y-67914252D01*
X185559579Y-67949151D01*
X185556813Y-67988071D01*
X185390146Y-67988071D01*
X185390146Y-65923645D01*
X185915092Y-65923645D01*
X185930024Y-65959693D01*
X185957614Y-65987283D01*
X185993662Y-66002215D01*
X186013171Y-66004136D01*
X186485708Y-66003355D01*
X186486521Y-66495074D01*
X186501453Y-66531122D01*
X186529043Y-66558712D01*
X186565091Y-66573644D01*
X186604109Y-66573644D01*
X186640157Y-66558712D01*
X186667747Y-66531122D01*
X186682679Y-66495074D01*
X186684600Y-66475565D01*
X186683819Y-66003027D01*
X187175537Y-66002215D01*
X187211585Y-65987283D01*
X187239175Y-65959693D01*
X187254107Y-65923645D01*
X187254107Y-65884627D01*
X187239175Y-65848579D01*
X187211585Y-65820989D01*
X187175537Y-65806057D01*
X187156028Y-65804136D01*
X186683491Y-65804916D01*
X186682679Y-65313199D01*
X186667747Y-65277151D01*
X186640157Y-65249561D01*
X186604109Y-65234629D01*
X186565091Y-65234629D01*
X186529043Y-65249561D01*
X186501453Y-65277151D01*
X186486521Y-65313199D01*
X186484600Y-65332708D01*
X186485380Y-65805244D01*
X185993662Y-65806057D01*
X185957614Y-65820989D01*
X185930024Y-65848579D01*
X185915092Y-65884627D01*
X185915092Y-65923645D01*
X185390146Y-65923645D01*
X185390146Y-62559500D01*
X185556813Y-62559500D01*
X185569151Y-62596516D01*
X185594716Y-62625992D01*
X185629615Y-62643442D01*
X185668535Y-62646208D01*
X185687651Y-62641861D01*
X187175468Y-62143937D01*
X187182441Y-62143442D01*
X187193556Y-62137884D01*
X187205551Y-62133870D01*
X187210950Y-62129186D01*
X187217340Y-62125992D01*
X187225555Y-62116519D01*
X187235028Y-62108304D01*
X187238222Y-62101914D01*
X187242905Y-62096516D01*
X187246870Y-62084619D01*
X187252477Y-62073406D01*
X187252983Y-62066278D01*
X187255243Y-62059500D01*
X187254354Y-62046993D01*
X187255243Y-62034486D01*
X187252983Y-62027707D01*
X187252477Y-62020580D01*
X187246870Y-62009366D01*
X187242905Y-61997470D01*
X187238222Y-61992071D01*
X187235028Y-61985682D01*
X187225555Y-61977466D01*
X187217340Y-61967994D01*
X187210950Y-61964799D01*
X187205551Y-61960116D01*
X187187651Y-61952125D01*
X185668535Y-61447778D01*
X185629615Y-61450544D01*
X185594716Y-61467994D01*
X185569151Y-61497470D01*
X185556813Y-61534486D01*
X185559579Y-61573406D01*
X185577029Y-61608305D01*
X185606505Y-61633870D01*
X185624405Y-61641861D01*
X186842800Y-62046368D01*
X185606505Y-62460116D01*
X185577029Y-62485681D01*
X185559579Y-62520580D01*
X185556813Y-62559500D01*
X185390146Y-62559500D01*
X185390146Y-59904137D01*
X186484600Y-59904137D01*
X186486521Y-61066503D01*
X186501453Y-61102551D01*
X186529043Y-61130141D01*
X186565091Y-61145073D01*
X186604109Y-61145073D01*
X186640157Y-61130141D01*
X186667747Y-61102551D01*
X186682679Y-61066503D01*
X186684600Y-61046994D01*
X186682679Y-59884628D01*
X186667747Y-59848580D01*
X186640157Y-59820990D01*
X186604109Y-59806058D01*
X186565091Y-59806058D01*
X186529043Y-59820990D01*
X186501453Y-59848580D01*
X186486521Y-59884628D01*
X186484600Y-59904137D01*
X185390146Y-59904137D01*
X185390146Y-59639391D01*
X187421910Y-59639391D01*
X187421910Y-68241446D01*
G37*
G36*
X187071910Y-113141446D02*
G01*
X185040146Y-113141446D01*
X185040146Y-112888071D01*
X185206813Y-112888071D01*
X185219151Y-112925087D01*
X185244716Y-112954563D01*
X185279615Y-112972013D01*
X185318535Y-112974779D01*
X185337651Y-112970432D01*
X186825468Y-112472508D01*
X186832441Y-112472013D01*
X186843556Y-112466455D01*
X186855551Y-112462441D01*
X186860950Y-112457757D01*
X186867340Y-112454563D01*
X186875555Y-112445090D01*
X186885028Y-112436875D01*
X186888222Y-112430485D01*
X186892905Y-112425087D01*
X186896870Y-112413190D01*
X186902477Y-112401977D01*
X186902983Y-112394849D01*
X186905243Y-112388071D01*
X186904354Y-112375564D01*
X186905243Y-112363057D01*
X186902983Y-112356278D01*
X186902477Y-112349151D01*
X186896870Y-112337937D01*
X186892905Y-112326041D01*
X186888222Y-112320642D01*
X186885028Y-112314253D01*
X186875555Y-112306037D01*
X186867340Y-112296565D01*
X186860950Y-112293370D01*
X186855551Y-112288687D01*
X186837651Y-112280696D01*
X185318535Y-111776349D01*
X185279615Y-111779115D01*
X185244716Y-111796565D01*
X185219151Y-111826041D01*
X185206813Y-111863057D01*
X185209579Y-111901977D01*
X185227029Y-111936876D01*
X185256505Y-111962441D01*
X185274405Y-111970432D01*
X186492800Y-112374939D01*
X185256505Y-112788687D01*
X185227029Y-112814252D01*
X185209579Y-112849151D01*
X185206813Y-112888071D01*
X185040146Y-112888071D01*
X185040146Y-110823645D01*
X185565092Y-110823645D01*
X185580024Y-110859693D01*
X185607614Y-110887283D01*
X185643662Y-110902215D01*
X185663171Y-110904136D01*
X186135708Y-110903355D01*
X186136521Y-111395074D01*
X186151453Y-111431122D01*
X186179043Y-111458712D01*
X186215091Y-111473644D01*
X186254109Y-111473644D01*
X186290157Y-111458712D01*
X186317747Y-111431122D01*
X186332679Y-111395074D01*
X186334600Y-111375565D01*
X186333819Y-110903027D01*
X186825537Y-110902215D01*
X186861585Y-110887283D01*
X186889175Y-110859693D01*
X186904107Y-110823645D01*
X186904107Y-110784627D01*
X186889175Y-110748579D01*
X186861585Y-110720989D01*
X186825537Y-110706057D01*
X186806028Y-110704136D01*
X186333491Y-110704916D01*
X186332679Y-110213199D01*
X186317747Y-110177151D01*
X186290157Y-110149561D01*
X186254109Y-110134629D01*
X186215091Y-110134629D01*
X186179043Y-110149561D01*
X186151453Y-110177151D01*
X186136521Y-110213199D01*
X186134600Y-110232708D01*
X186135380Y-110705244D01*
X185643662Y-110706057D01*
X185607614Y-110720989D01*
X185580024Y-110748579D01*
X185565092Y-110784627D01*
X185565092Y-110823645D01*
X185040146Y-110823645D01*
X185040146Y-107459500D01*
X185206813Y-107459500D01*
X185219151Y-107496516D01*
X185244716Y-107525992D01*
X185279615Y-107543442D01*
X185318535Y-107546208D01*
X185337651Y-107541861D01*
X186825468Y-107043937D01*
X186832441Y-107043442D01*
X186843556Y-107037884D01*
X186855551Y-107033870D01*
X186860950Y-107029186D01*
X186867340Y-107025992D01*
X186875555Y-107016519D01*
X186885028Y-107008304D01*
X186888222Y-107001914D01*
X186892905Y-106996516D01*
X186896870Y-106984619D01*
X186902477Y-106973406D01*
X186902983Y-106966278D01*
X186905243Y-106959500D01*
X186904354Y-106946993D01*
X186905243Y-106934486D01*
X186902983Y-106927707D01*
X186902477Y-106920580D01*
X186896870Y-106909366D01*
X186892905Y-106897470D01*
X186888222Y-106892071D01*
X186885028Y-106885682D01*
X186875555Y-106877466D01*
X186867340Y-106867994D01*
X186860950Y-106864799D01*
X186855551Y-106860116D01*
X186837651Y-106852125D01*
X185318535Y-106347778D01*
X185279615Y-106350544D01*
X185244716Y-106367994D01*
X185219151Y-106397470D01*
X185206813Y-106434486D01*
X185209579Y-106473406D01*
X185227029Y-106508305D01*
X185256505Y-106533870D01*
X185274405Y-106541861D01*
X186492800Y-106946368D01*
X185256505Y-107360116D01*
X185227029Y-107385681D01*
X185209579Y-107420580D01*
X185206813Y-107459500D01*
X185040146Y-107459500D01*
X185040146Y-104804137D01*
X186134600Y-104804137D01*
X186136521Y-105966503D01*
X186151453Y-106002551D01*
X186179043Y-106030141D01*
X186215091Y-106045073D01*
X186254109Y-106045073D01*
X186290157Y-106030141D01*
X186317747Y-106002551D01*
X186332679Y-105966503D01*
X186334600Y-105946994D01*
X186332679Y-104784628D01*
X186317747Y-104748580D01*
X186290157Y-104720990D01*
X186254109Y-104706058D01*
X186215091Y-104706058D01*
X186179043Y-104720990D01*
X186151453Y-104748580D01*
X186136521Y-104784628D01*
X186134600Y-104804137D01*
X185040146Y-104804137D01*
X185040146Y-104539391D01*
X187071910Y-104539391D01*
X187071910Y-113141446D01*
G37*
D10*
G36*
X179678176Y-93886939D02*
G01*
X179709504Y-93917184D01*
X179744962Y-93986040D01*
X179745947Y-94093672D01*
X179712767Y-94162053D01*
X179682521Y-94193380D01*
X179613798Y-94228770D01*
X179363479Y-94229971D01*
X179294794Y-94196644D01*
X179263466Y-94166399D01*
X179228008Y-94097542D01*
X179227023Y-93989910D01*
X179260204Y-93921528D01*
X179290448Y-93890201D01*
X179359171Y-93854812D01*
X179609490Y-93853611D01*
X179678176Y-93886939D01*
G37*
G36*
X179744907Y-91938314D02*
G01*
X179746063Y-92141050D01*
X179717518Y-92199880D01*
X179661159Y-92228902D01*
X179600998Y-92229691D01*
X179542680Y-92201394D01*
X179513777Y-92145266D01*
X179512573Y-91934232D01*
X179513277Y-91932123D01*
X179512499Y-91921180D01*
X179512425Y-91908111D01*
X179511394Y-91905622D01*
X179511203Y-91902933D01*
X179510819Y-91901930D01*
X179725875Y-91901354D01*
X179744907Y-91938314D01*
G37*
G36*
X179744928Y-91033592D02*
G01*
X179746018Y-91188761D01*
X179712767Y-91257290D01*
X179682521Y-91288617D01*
X179613798Y-91324007D01*
X179363479Y-91325208D01*
X179294794Y-91291881D01*
X179263466Y-91261636D01*
X179228042Y-91192845D01*
X179226952Y-91037676D01*
X179246407Y-90997579D01*
X179725951Y-90996741D01*
X179744928Y-91033592D01*
G37*
G36*
X179396365Y-90420193D02*
G01*
X179315941Y-90420486D01*
X179256966Y-90391870D01*
X179228042Y-90335702D01*
X179226952Y-90180533D01*
X179255453Y-90121795D01*
X179311810Y-90092773D01*
X179329851Y-90092537D01*
X179396365Y-90420193D01*
G37*
G36*
X179678176Y-87458366D02*
G01*
X179709504Y-87488611D01*
X179744962Y-87557467D01*
X179745947Y-87665099D01*
X179712767Y-87733480D01*
X179682521Y-87764807D01*
X179613798Y-87800197D01*
X179363479Y-87801398D01*
X179294794Y-87768071D01*
X179263466Y-87737826D01*
X179228008Y-87668969D01*
X179227023Y-87561337D01*
X179260204Y-87492955D01*
X179290448Y-87461628D01*
X179359171Y-87426239D01*
X179609490Y-87425038D01*
X179678176Y-87458366D01*
G37*
G36*
X179396365Y-85086859D02*
G01*
X179315941Y-85087152D01*
X179256966Y-85058536D01*
X179228042Y-85002368D01*
X179226952Y-84847199D01*
X179255453Y-84788461D01*
X179311810Y-84759439D01*
X179329851Y-84759203D01*
X179396365Y-85086859D01*
G37*
G36*
X180339263Y-95441599D02*
G01*
X178633708Y-95441599D01*
X178633708Y-95265457D01*
X178745408Y-95265457D01*
X178754662Y-95293220D01*
X178773836Y-95315327D01*
X178800009Y-95328413D01*
X178829199Y-95330488D01*
X178843536Y-95327228D01*
X179834413Y-94995450D01*
X179839628Y-94995080D01*
X179847956Y-94990915D01*
X179856961Y-94987901D01*
X179861008Y-94984390D01*
X179865802Y-94981994D01*
X179871966Y-94974886D01*
X179879068Y-94968727D01*
X179881463Y-94963935D01*
X179884976Y-94959886D01*
X179887950Y-94950963D01*
X179892155Y-94942554D01*
X179892534Y-94937209D01*
X179894230Y-94932124D01*
X179893563Y-94922744D01*
X179894230Y-94913364D01*
X179892534Y-94908278D01*
X179892155Y-94902934D01*
X179887950Y-94894524D01*
X179884976Y-94885602D01*
X179881463Y-94881552D01*
X179879068Y-94876761D01*
X179871966Y-94870601D01*
X179865802Y-94863494D01*
X179861008Y-94861097D01*
X179856961Y-94857587D01*
X179843536Y-94851593D01*
X178829199Y-94515000D01*
X178800009Y-94517075D01*
X178773836Y-94530161D01*
X178754662Y-94552268D01*
X178745408Y-94580031D01*
X178747483Y-94609221D01*
X178760569Y-94635394D01*
X178782676Y-94654568D01*
X178796102Y-94660562D01*
X179584895Y-94922311D01*
X178782676Y-95190920D01*
X178760569Y-95210094D01*
X178747483Y-95236267D01*
X178745408Y-95265457D01*
X178633708Y-95265457D01*
X178633708Y-93970363D01*
X179078152Y-93970363D01*
X179079356Y-94101992D01*
X179078741Y-94103839D01*
X179079466Y-94114053D01*
X179079593Y-94127852D01*
X179080624Y-94130341D01*
X179080815Y-94133029D01*
X179086070Y-94146761D01*
X179134762Y-94241317D01*
X179138411Y-94250126D01*
X179140793Y-94253028D01*
X179141521Y-94254442D01*
X179143019Y-94255741D01*
X179147738Y-94261491D01*
X179196773Y-94308832D01*
X179202406Y-94315327D01*
X179205551Y-94317306D01*
X179206722Y-94318437D01*
X179208549Y-94319194D01*
X179214849Y-94323159D01*
X179300738Y-94364834D01*
X179301960Y-94366056D01*
X179310819Y-94369725D01*
X179323818Y-94376033D01*
X179326507Y-94376224D01*
X179328996Y-94377255D01*
X179343628Y-94378696D01*
X179617782Y-94377380D01*
X179619961Y-94378107D01*
X179631081Y-94377316D01*
X179643974Y-94377255D01*
X179646463Y-94376223D01*
X179649151Y-94376033D01*
X179662883Y-94370778D01*
X179757435Y-94322087D01*
X179766247Y-94318438D01*
X179769151Y-94316054D01*
X179770564Y-94315327D01*
X179771863Y-94313828D01*
X179777612Y-94309111D01*
X179824953Y-94260075D01*
X179831450Y-94254442D01*
X179833429Y-94251296D01*
X179834560Y-94250126D01*
X179835317Y-94248298D01*
X179839282Y-94241999D01*
X179880957Y-94156109D01*
X179882179Y-94154888D01*
X179885848Y-94146028D01*
X179892156Y-94133030D01*
X179892347Y-94130340D01*
X179893378Y-94127852D01*
X179894819Y-94113220D01*
X179893614Y-93981589D01*
X179894230Y-93979743D01*
X179893504Y-93969528D01*
X179893378Y-93955731D01*
X179892347Y-93953242D01*
X179892156Y-93950553D01*
X179886901Y-93936822D01*
X179838209Y-93842267D01*
X179834560Y-93833457D01*
X179832177Y-93830554D01*
X179831450Y-93829141D01*
X179829950Y-93827840D01*
X179825232Y-93822091D01*
X179776195Y-93774749D01*
X179770564Y-93768256D01*
X179767418Y-93766276D01*
X179766247Y-93765145D01*
X179764417Y-93764387D01*
X179758121Y-93760424D01*
X179672232Y-93718749D01*
X179671010Y-93717527D01*
X179662144Y-93713854D01*
X179649151Y-93707550D01*
X179646463Y-93707359D01*
X179643974Y-93706328D01*
X179629342Y-93704887D01*
X179355187Y-93706202D01*
X179353008Y-93705476D01*
X179341887Y-93706266D01*
X179328996Y-93706328D01*
X179326507Y-93707358D01*
X179323818Y-93707550D01*
X179310087Y-93712805D01*
X179215532Y-93761496D01*
X179206722Y-93765146D01*
X179203819Y-93767528D01*
X179202406Y-93768256D01*
X179201106Y-93769754D01*
X179195357Y-93774473D01*
X179148015Y-93823508D01*
X179141521Y-93829141D01*
X179139541Y-93832286D01*
X179138411Y-93833457D01*
X179137653Y-93835284D01*
X179133689Y-93841584D01*
X179092014Y-93927472D01*
X179090792Y-93928695D01*
X179087119Y-93937560D01*
X179080815Y-93950554D01*
X179080624Y-93953241D01*
X179079593Y-93955731D01*
X179078152Y-93970363D01*
X178633708Y-93970363D01*
X178633708Y-93365947D01*
X178746260Y-93365947D01*
X178757459Y-93392983D01*
X178778151Y-93413675D01*
X178805187Y-93424874D01*
X178819819Y-93426315D01*
X179665155Y-93424917D01*
X179667580Y-93425726D01*
X179679284Y-93424894D01*
X179691593Y-93424874D01*
X179694082Y-93423842D01*
X179696770Y-93423652D01*
X179710502Y-93418397D01*
X179801885Y-93371338D01*
X179809342Y-93368853D01*
X179813186Y-93365519D01*
X179818183Y-93362946D01*
X179824342Y-93355843D01*
X179831450Y-93349680D01*
X179836111Y-93342274D01*
X179837357Y-93340838D01*
X179837741Y-93339684D01*
X179839282Y-93337237D01*
X179892156Y-93228268D01*
X179894230Y-93199078D01*
X179884976Y-93171316D01*
X179865803Y-93149209D01*
X179839628Y-93136121D01*
X179810438Y-93134047D01*
X179782677Y-93143301D01*
X179760569Y-93162474D01*
X179752737Y-93174917D01*
X179717518Y-93247500D01*
X179661512Y-93276340D01*
X178805187Y-93277756D01*
X178778151Y-93288955D01*
X178757459Y-93309647D01*
X178746260Y-93336683D01*
X178746260Y-93365947D01*
X178633708Y-93365947D01*
X178633708Y-92842137D01*
X178746260Y-92842137D01*
X178757459Y-92869173D01*
X178778151Y-92889865D01*
X178805187Y-92901064D01*
X178819819Y-92902505D01*
X179079290Y-92902076D01*
X179079593Y-92984994D01*
X179090792Y-93012030D01*
X179111484Y-93032722D01*
X179138520Y-93043921D01*
X179167784Y-93043921D01*
X179194820Y-93032722D01*
X179215512Y-93012030D01*
X179226711Y-92984994D01*
X179228152Y-92970362D01*
X179227902Y-92901830D01*
X179665155Y-92901107D01*
X179667580Y-92901916D01*
X179679284Y-92901084D01*
X179691593Y-92901064D01*
X179694082Y-92900032D01*
X179696770Y-92899842D01*
X179710502Y-92894587D01*
X179801885Y-92847528D01*
X179809342Y-92845043D01*
X179813186Y-92841709D01*
X179818183Y-92839136D01*
X179824342Y-92832033D01*
X179831450Y-92825870D01*
X179836111Y-92818464D01*
X179837357Y-92817028D01*
X179837741Y-92815874D01*
X179839282Y-92813427D01*
X179880957Y-92727537D01*
X179882179Y-92726316D01*
X179885848Y-92717456D01*
X179892156Y-92704458D01*
X179892347Y-92701768D01*
X179893378Y-92699280D01*
X179894819Y-92684648D01*
X179893378Y-92574778D01*
X179882179Y-92547742D01*
X179861487Y-92527050D01*
X179834451Y-92515851D01*
X179805187Y-92515851D01*
X179778151Y-92527050D01*
X179757459Y-92547742D01*
X179746260Y-92574778D01*
X179744819Y-92589410D01*
X179745815Y-92665372D01*
X179717518Y-92723690D01*
X179661512Y-92752530D01*
X179227361Y-92753248D01*
X179226711Y-92574778D01*
X179215512Y-92547742D01*
X179194820Y-92527050D01*
X179167784Y-92515851D01*
X179138520Y-92515851D01*
X179111484Y-92527050D01*
X179090792Y-92547742D01*
X179079593Y-92574778D01*
X179078152Y-92589410D01*
X179078749Y-92753493D01*
X178805187Y-92753946D01*
X178778151Y-92765145D01*
X178757459Y-92785837D01*
X178746260Y-92812873D01*
X178746260Y-92842137D01*
X178633708Y-92842137D01*
X178633708Y-91970362D01*
X179078152Y-91970362D01*
X179079410Y-92149449D01*
X179078741Y-92151457D01*
X179079499Y-92162129D01*
X179079593Y-92175470D01*
X179080624Y-92177959D01*
X179080815Y-92180647D01*
X179086070Y-92194379D01*
X179141521Y-92302060D01*
X179163629Y-92321233D01*
X179191390Y-92330487D01*
X179220580Y-92328413D01*
X179246755Y-92315325D01*
X179265928Y-92293218D01*
X179275182Y-92265456D01*
X179273108Y-92236266D01*
X179267853Y-92222535D01*
X179228042Y-92145226D01*
X179226952Y-91990057D01*
X179255453Y-91931319D01*
X179311488Y-91902463D01*
X179345446Y-91902372D01*
X179363954Y-91938314D01*
X179365158Y-92149347D01*
X179364455Y-92151457D01*
X179365232Y-92162399D01*
X179365307Y-92175470D01*
X179366338Y-92177959D01*
X179366529Y-92180647D01*
X179371784Y-92194379D01*
X179418843Y-92285763D01*
X179421328Y-92293218D01*
X179424660Y-92297060D01*
X179427235Y-92302060D01*
X179434339Y-92308221D01*
X179440501Y-92315326D01*
X179447906Y-92319987D01*
X179449343Y-92321233D01*
X179450496Y-92321617D01*
X179452944Y-92323158D01*
X179538833Y-92364833D01*
X179540055Y-92366055D01*
X179548914Y-92369724D01*
X179561913Y-92376032D01*
X179564602Y-92376223D01*
X179567091Y-92377254D01*
X179581723Y-92378695D01*
X179666029Y-92377589D01*
X179667580Y-92378106D01*
X179676849Y-92377447D01*
X179691593Y-92377254D01*
X179694082Y-92376222D01*
X179696770Y-92376032D01*
X179710502Y-92370777D01*
X179801885Y-92323718D01*
X179809342Y-92321233D01*
X179813186Y-92317899D01*
X179818183Y-92315326D01*
X179824342Y-92308223D01*
X179831450Y-92302060D01*
X179836111Y-92294654D01*
X179837357Y-92293218D01*
X179837741Y-92292064D01*
X179839282Y-92289617D01*
X179880957Y-92203727D01*
X179882179Y-92202506D01*
X179885848Y-92193646D01*
X179892156Y-92180648D01*
X179892347Y-92177958D01*
X179893378Y-92175470D01*
X179894819Y-92160838D01*
X179893526Y-91934232D01*
X179894230Y-91932123D01*
X179893452Y-91921180D01*
X179893378Y-91908111D01*
X179892347Y-91905622D01*
X179892156Y-91902933D01*
X179886901Y-91889202D01*
X179878487Y-91872864D01*
X179882179Y-91869173D01*
X179893378Y-91842137D01*
X179893378Y-91812873D01*
X179882179Y-91785837D01*
X179861487Y-91765145D01*
X179834451Y-91753946D01*
X179819819Y-91752505D01*
X179402213Y-91753622D01*
X179400628Y-91753094D01*
X179392834Y-91753647D01*
X179307733Y-91753875D01*
X179305389Y-91753094D01*
X179293868Y-91753912D01*
X179281377Y-91753946D01*
X179278888Y-91754976D01*
X179276199Y-91755168D01*
X179262468Y-91760423D01*
X179171083Y-91807482D01*
X179163629Y-91809967D01*
X179159786Y-91813299D01*
X179154787Y-91815874D01*
X179148625Y-91822978D01*
X179141521Y-91829140D01*
X179136859Y-91836545D01*
X179135614Y-91837982D01*
X179135229Y-91839135D01*
X179133689Y-91841583D01*
X179092014Y-91927471D01*
X179090792Y-91928694D01*
X179087119Y-91937559D01*
X179080815Y-91950553D01*
X179080624Y-91953240D01*
X179079593Y-91955730D01*
X179078152Y-91970362D01*
X178633708Y-91970362D01*
X178633708Y-91017981D01*
X179078152Y-91017981D01*
X179079410Y-91197068D01*
X179078741Y-91199076D01*
X179079499Y-91209748D01*
X179079593Y-91223089D01*
X179080624Y-91225578D01*
X179080815Y-91228266D01*
X179086070Y-91241998D01*
X179134762Y-91336554D01*
X179138411Y-91345363D01*
X179140793Y-91348265D01*
X179141521Y-91349679D01*
X179143019Y-91350978D01*
X179147738Y-91356728D01*
X179196773Y-91404069D01*
X179202406Y-91410564D01*
X179205551Y-91412543D01*
X179206722Y-91413674D01*
X179208549Y-91414431D01*
X179214849Y-91418396D01*
X179300738Y-91460071D01*
X179301960Y-91461293D01*
X179310819Y-91464962D01*
X179323818Y-91471270D01*
X179326507Y-91471461D01*
X179328996Y-91472492D01*
X179343628Y-91473933D01*
X179617782Y-91472617D01*
X179619961Y-91473344D01*
X179631081Y-91472553D01*
X179643974Y-91472492D01*
X179646463Y-91471460D01*
X179649151Y-91471270D01*
X179662883Y-91466015D01*
X179757435Y-91417324D01*
X179766247Y-91413675D01*
X179769151Y-91411291D01*
X179770564Y-91410564D01*
X179771863Y-91409065D01*
X179777612Y-91404348D01*
X179824953Y-91355312D01*
X179831450Y-91349679D01*
X179833429Y-91346533D01*
X179834560Y-91345363D01*
X179835317Y-91343535D01*
X179839282Y-91337236D01*
X179880957Y-91251346D01*
X179882179Y-91250125D01*
X179885848Y-91241265D01*
X179892156Y-91228267D01*
X179892347Y-91225577D01*
X179893378Y-91223089D01*
X179894819Y-91208457D01*
X179893560Y-91029368D01*
X179894230Y-91027361D01*
X179893471Y-91016688D01*
X179893378Y-91003349D01*
X179892347Y-91000860D01*
X179892156Y-90998171D01*
X179891498Y-90996452D01*
X179942608Y-90996362D01*
X180011510Y-91029795D01*
X180042837Y-91060039D01*
X180078295Y-91128896D01*
X180079280Y-91236528D01*
X180033196Y-91331505D01*
X180031122Y-91360695D01*
X180040376Y-91388456D01*
X180059549Y-91410564D01*
X180085724Y-91423651D01*
X180114914Y-91425725D01*
X180142675Y-91416471D01*
X180164783Y-91397298D01*
X180172615Y-91384855D01*
X180214290Y-91298965D01*
X180215512Y-91297744D01*
X180219181Y-91288884D01*
X180225489Y-91275886D01*
X180225680Y-91273196D01*
X180226711Y-91270708D01*
X180228152Y-91256076D01*
X180226947Y-91124445D01*
X180227563Y-91122599D01*
X180226837Y-91112384D01*
X180226711Y-91098587D01*
X180225680Y-91096098D01*
X180225489Y-91093409D01*
X180220234Y-91079678D01*
X180171542Y-90985123D01*
X180167893Y-90976313D01*
X180165510Y-90973410D01*
X180164783Y-90971997D01*
X180163284Y-90970697D01*
X180158566Y-90964948D01*
X180109530Y-90917606D01*
X180103898Y-90911112D01*
X180100752Y-90909132D01*
X180099582Y-90908002D01*
X180097754Y-90907244D01*
X180091455Y-90903280D01*
X180005566Y-90861605D01*
X180004344Y-90860383D01*
X179995478Y-90856710D01*
X179982485Y-90850406D01*
X179979797Y-90850215D01*
X179977308Y-90849184D01*
X179962676Y-90847743D01*
X179201823Y-90849073D01*
X179191390Y-90848332D01*
X179189099Y-90849095D01*
X179138520Y-90849184D01*
X179111484Y-90860383D01*
X179090792Y-90881075D01*
X179079593Y-90908111D01*
X179079593Y-90937375D01*
X179090792Y-90964411D01*
X179095104Y-90968723D01*
X179092014Y-90975090D01*
X179090792Y-90976313D01*
X179087119Y-90985178D01*
X179080815Y-90998172D01*
X179080624Y-91000859D01*
X179079593Y-91003349D01*
X179078152Y-91017981D01*
X178633708Y-91017981D01*
X178633708Y-90160838D01*
X179078152Y-90160838D01*
X179079410Y-90339925D01*
X179078741Y-90341933D01*
X179079499Y-90352605D01*
X179079593Y-90365946D01*
X179080624Y-90368435D01*
X179080815Y-90371123D01*
X179086070Y-90384855D01*
X179133129Y-90476239D01*
X179135614Y-90483694D01*
X179138946Y-90487536D01*
X179141521Y-90492536D01*
X179148625Y-90498697D01*
X179154787Y-90505802D01*
X179162192Y-90510463D01*
X179163629Y-90511709D01*
X179164782Y-90512093D01*
X179167230Y-90513634D01*
X179253119Y-90555309D01*
X179254341Y-90556531D01*
X179263200Y-90560200D01*
X179276199Y-90566508D01*
X179278888Y-90566699D01*
X179281377Y-90567730D01*
X179296009Y-90569171D01*
X179483118Y-90568489D01*
X179486563Y-90569171D01*
X179490098Y-90568463D01*
X179665311Y-90567825D01*
X179667580Y-90568582D01*
X179678921Y-90567776D01*
X179691593Y-90567730D01*
X179694082Y-90566698D01*
X179696770Y-90566508D01*
X179710502Y-90561253D01*
X179801885Y-90514194D01*
X179809342Y-90511709D01*
X179813186Y-90508375D01*
X179818183Y-90505802D01*
X179824342Y-90498699D01*
X179831450Y-90492536D01*
X179836111Y-90485130D01*
X179837357Y-90483694D01*
X179837741Y-90482540D01*
X179839282Y-90480093D01*
X179880957Y-90394203D01*
X179882179Y-90392982D01*
X179885848Y-90384122D01*
X179892156Y-90371124D01*
X179892347Y-90368434D01*
X179893378Y-90365946D01*
X179894819Y-90351314D01*
X179893560Y-90172225D01*
X179894230Y-90170218D01*
X179893471Y-90159545D01*
X179893378Y-90146206D01*
X179892347Y-90143717D01*
X179892156Y-90141028D01*
X179886901Y-90127297D01*
X179831450Y-90019616D01*
X179809342Y-90000443D01*
X179781581Y-89991189D01*
X179752391Y-89993263D01*
X179726216Y-90006350D01*
X179707043Y-90028458D01*
X179697789Y-90056219D01*
X179699863Y-90085409D01*
X179705118Y-90099141D01*
X179744928Y-90176449D01*
X179746018Y-90331618D01*
X179717518Y-90390356D01*
X179661452Y-90419227D01*
X179547884Y-90419641D01*
X179464806Y-90010379D01*
X179464806Y-90003349D01*
X179462007Y-89996592D01*
X179460508Y-89989207D01*
X179456418Y-89983101D01*
X179453607Y-89976313D01*
X179448356Y-89971062D01*
X179444224Y-89964892D01*
X179438110Y-89960816D01*
X179432915Y-89955621D01*
X179426055Y-89952779D01*
X179419876Y-89948660D01*
X179412667Y-89947233D01*
X179405879Y-89944422D01*
X179391247Y-89942981D01*
X179391173Y-89942981D01*
X179391169Y-89942981D01*
X179391163Y-89942982D01*
X179306939Y-89944086D01*
X179305389Y-89943570D01*
X179296118Y-89944228D01*
X179281377Y-89944422D01*
X179278888Y-89945452D01*
X179276199Y-89945644D01*
X179262468Y-89950899D01*
X179171083Y-89997958D01*
X179163629Y-90000443D01*
X179159786Y-90003775D01*
X179154787Y-90006350D01*
X179148625Y-90013454D01*
X179141521Y-90019616D01*
X179136859Y-90027021D01*
X179135614Y-90028458D01*
X179135229Y-90029611D01*
X179133689Y-90032059D01*
X179092014Y-90117947D01*
X179090792Y-90119170D01*
X179087119Y-90128035D01*
X179080815Y-90141029D01*
X179080624Y-90143716D01*
X179079593Y-90146206D01*
X179078152Y-90160838D01*
X178633708Y-90160838D01*
X178633708Y-88446552D01*
X178744819Y-88446552D01*
X178746069Y-88541869D01*
X178745408Y-88551170D01*
X178746239Y-88554824D01*
X178746260Y-88556422D01*
X178747018Y-88558253D01*
X178748668Y-88565507D01*
X178793879Y-88697297D01*
X178793879Y-88699278D01*
X178797834Y-88708827D01*
X178802281Y-88721789D01*
X178804046Y-88723824D01*
X178805078Y-88726315D01*
X178814405Y-88737680D01*
X178910172Y-88831617D01*
X178916692Y-88839135D01*
X178919885Y-88841145D01*
X178921008Y-88842246D01*
X178922840Y-88843004D01*
X178929135Y-88846967D01*
X179020367Y-88891235D01*
X179025878Y-88895318D01*
X179036893Y-88899253D01*
X179038104Y-88899841D01*
X179038644Y-88899879D01*
X179039724Y-88900265D01*
X179226089Y-88945505D01*
X179233758Y-88948682D01*
X179242872Y-88949579D01*
X179244744Y-88950034D01*
X179245836Y-88949871D01*
X179248390Y-88950123D01*
X179386969Y-88948855D01*
X179394893Y-88950034D01*
X179403917Y-88948699D01*
X179405879Y-88948682D01*
X179406900Y-88948259D01*
X179409437Y-88947884D01*
X179594135Y-88900366D01*
X179601532Y-88899841D01*
X179612514Y-88895638D01*
X179613759Y-88895318D01*
X179614194Y-88894995D01*
X179615264Y-88894586D01*
X179709816Y-88845895D01*
X179718628Y-88842246D01*
X179721532Y-88839862D01*
X179722945Y-88839135D01*
X179724244Y-88837636D01*
X179729994Y-88832918D01*
X179816479Y-88744748D01*
X179818183Y-88743897D01*
X179824813Y-88736252D01*
X179834561Y-88726315D01*
X179835592Y-88723824D01*
X179837357Y-88721790D01*
X179843351Y-88708364D01*
X179889500Y-88565782D01*
X179893378Y-88556422D01*
X179893748Y-88552658D01*
X179894230Y-88551171D01*
X179894089Y-88549196D01*
X179894819Y-88541790D01*
X179893568Y-88446471D01*
X179894230Y-88437171D01*
X179893398Y-88433516D01*
X179893378Y-88431920D01*
X179892619Y-88430089D01*
X179890970Y-88422834D01*
X179845759Y-88291043D01*
X179845759Y-88289063D01*
X179841804Y-88279515D01*
X179837357Y-88266552D01*
X179835590Y-88264515D01*
X179834560Y-88262027D01*
X179825232Y-88250661D01*
X179766247Y-88193715D01*
X179739211Y-88182517D01*
X179709948Y-88182517D01*
X179682912Y-88193716D01*
X179662219Y-88214409D01*
X179651021Y-88241445D01*
X179651021Y-88270708D01*
X179662220Y-88297744D01*
X179671548Y-88309110D01*
X179706270Y-88342631D01*
X179744934Y-88455337D01*
X179745870Y-88526716D01*
X179708348Y-88642643D01*
X179635558Y-88716851D01*
X179560421Y-88755543D01*
X179386991Y-88800161D01*
X179262219Y-88801303D01*
X179089096Y-88759277D01*
X179009286Y-88720552D01*
X178933562Y-88646275D01*
X178894703Y-88533003D01*
X178893767Y-88461625D01*
X178931376Y-88345432D01*
X178977417Y-88297744D01*
X178988616Y-88270708D01*
X178988616Y-88241445D01*
X178977417Y-88214409D01*
X178956724Y-88193716D01*
X178929688Y-88182517D01*
X178900425Y-88182517D01*
X178873389Y-88193716D01*
X178862024Y-88203043D01*
X178822608Y-88243869D01*
X178821455Y-88244446D01*
X178816181Y-88250525D01*
X178805078Y-88262027D01*
X178804046Y-88264517D01*
X178802281Y-88266553D01*
X178796287Y-88279978D01*
X178750138Y-88422556D01*
X178746260Y-88431920D01*
X178745889Y-88435685D01*
X178745408Y-88437172D01*
X178745548Y-88439146D01*
X178744819Y-88446552D01*
X178633708Y-88446552D01*
X178633708Y-87541790D01*
X179078152Y-87541790D01*
X179079356Y-87673419D01*
X179078741Y-87675266D01*
X179079466Y-87685480D01*
X179079593Y-87699279D01*
X179080624Y-87701768D01*
X179080815Y-87704456D01*
X179086070Y-87718188D01*
X179134762Y-87812744D01*
X179138411Y-87821553D01*
X179140793Y-87824455D01*
X179141521Y-87825869D01*
X179143019Y-87827168D01*
X179147738Y-87832918D01*
X179196773Y-87880259D01*
X179202406Y-87886754D01*
X179205551Y-87888733D01*
X179206722Y-87889864D01*
X179208549Y-87890621D01*
X179214849Y-87894586D01*
X179300738Y-87936261D01*
X179301960Y-87937483D01*
X179310819Y-87941152D01*
X179323818Y-87947460D01*
X179326507Y-87947651D01*
X179328996Y-87948682D01*
X179343628Y-87950123D01*
X179617782Y-87948807D01*
X179619961Y-87949534D01*
X179631081Y-87948743D01*
X179643974Y-87948682D01*
X179646463Y-87947650D01*
X179649151Y-87947460D01*
X179662883Y-87942205D01*
X179757435Y-87893514D01*
X179766247Y-87889865D01*
X179769151Y-87887481D01*
X179770564Y-87886754D01*
X179771863Y-87885255D01*
X179777612Y-87880538D01*
X179824953Y-87831502D01*
X179831450Y-87825869D01*
X179833429Y-87822723D01*
X179834560Y-87821553D01*
X179835317Y-87819725D01*
X179839282Y-87813426D01*
X179880957Y-87727536D01*
X179882179Y-87726315D01*
X179885848Y-87717455D01*
X179892156Y-87704457D01*
X179892347Y-87701767D01*
X179893378Y-87699279D01*
X179894819Y-87684647D01*
X179893614Y-87553016D01*
X179894230Y-87551170D01*
X179893504Y-87540955D01*
X179893378Y-87527158D01*
X179892347Y-87524669D01*
X179892156Y-87521980D01*
X179886901Y-87508249D01*
X179838209Y-87413694D01*
X179834560Y-87404884D01*
X179832177Y-87401981D01*
X179831450Y-87400568D01*
X179829950Y-87399267D01*
X179825232Y-87393518D01*
X179776195Y-87346176D01*
X179770564Y-87339683D01*
X179767418Y-87337703D01*
X179766247Y-87336572D01*
X179764417Y-87335814D01*
X179758121Y-87331851D01*
X179672232Y-87290176D01*
X179671010Y-87288954D01*
X179662144Y-87285281D01*
X179649151Y-87278977D01*
X179646463Y-87278786D01*
X179643974Y-87277755D01*
X179629342Y-87276314D01*
X179355187Y-87277629D01*
X179353008Y-87276903D01*
X179341887Y-87277693D01*
X179328996Y-87277755D01*
X179326507Y-87278785D01*
X179323818Y-87278977D01*
X179310087Y-87284232D01*
X179215532Y-87332923D01*
X179206722Y-87336573D01*
X179203819Y-87338955D01*
X179202406Y-87339683D01*
X179201106Y-87341181D01*
X179195357Y-87345900D01*
X179148015Y-87394935D01*
X179141521Y-87400568D01*
X179139541Y-87403713D01*
X179138411Y-87404884D01*
X179137653Y-87406711D01*
X179133689Y-87413011D01*
X179092014Y-87498899D01*
X179090792Y-87500122D01*
X179087119Y-87508987D01*
X179080815Y-87521981D01*
X179080624Y-87524668D01*
X179079593Y-87527158D01*
X179078152Y-87541790D01*
X178633708Y-87541790D01*
X178633708Y-86637028D01*
X179078152Y-86637028D01*
X179079356Y-86768657D01*
X179078741Y-86770504D01*
X179079466Y-86780718D01*
X179079593Y-86794517D01*
X179080624Y-86797006D01*
X179080815Y-86799694D01*
X179086070Y-86813426D01*
X179110669Y-86861196D01*
X179090792Y-86881074D01*
X179079593Y-86908110D01*
X179079593Y-86937374D01*
X179090792Y-86964410D01*
X179111484Y-86985102D01*
X179138520Y-86996301D01*
X179153152Y-86997742D01*
X179834451Y-86996301D01*
X179861487Y-86985102D01*
X179882179Y-86964410D01*
X179893378Y-86937374D01*
X179893378Y-86908110D01*
X179882179Y-86881074D01*
X179861487Y-86860382D01*
X179834451Y-86849183D01*
X179819819Y-86847742D01*
X179279852Y-86848884D01*
X179263466Y-86833064D01*
X179228008Y-86764207D01*
X179227023Y-86656575D01*
X179255453Y-86597985D01*
X179311488Y-86569129D01*
X179834451Y-86567730D01*
X179861487Y-86556531D01*
X179882179Y-86535839D01*
X179893378Y-86508803D01*
X179893378Y-86479539D01*
X179882179Y-86452503D01*
X179861487Y-86431811D01*
X179834451Y-86420612D01*
X179819819Y-86419171D01*
X179307733Y-86420541D01*
X179305389Y-86419760D01*
X179293868Y-86420578D01*
X179281377Y-86420612D01*
X179278888Y-86421642D01*
X179276199Y-86421834D01*
X179262468Y-86427089D01*
X179171083Y-86474148D01*
X179163629Y-86476633D01*
X179159786Y-86479965D01*
X179154787Y-86482540D01*
X179148625Y-86489644D01*
X179141521Y-86495806D01*
X179136859Y-86503211D01*
X179135614Y-86504648D01*
X179135229Y-86505801D01*
X179133689Y-86508249D01*
X179092014Y-86594137D01*
X179090792Y-86595360D01*
X179087119Y-86604225D01*
X179080815Y-86617219D01*
X179080624Y-86619906D01*
X179079593Y-86622396D01*
X179078152Y-86637028D01*
X178633708Y-86637028D01*
X178633708Y-85732266D01*
X179078152Y-85732266D01*
X179079356Y-85863895D01*
X179078741Y-85865742D01*
X179079466Y-85875956D01*
X179079593Y-85889755D01*
X179080624Y-85892244D01*
X179080815Y-85894932D01*
X179086070Y-85908664D01*
X179110669Y-85956434D01*
X179090792Y-85976312D01*
X179079593Y-86003348D01*
X179079593Y-86032612D01*
X179090792Y-86059648D01*
X179111484Y-86080340D01*
X179138520Y-86091539D01*
X179153152Y-86092980D01*
X179834451Y-86091539D01*
X179861487Y-86080340D01*
X179882179Y-86059648D01*
X179893378Y-86032612D01*
X179893378Y-86003348D01*
X179882179Y-85976312D01*
X179861487Y-85955620D01*
X179834451Y-85944421D01*
X179819819Y-85942980D01*
X179279852Y-85944122D01*
X179263466Y-85928302D01*
X179228008Y-85859445D01*
X179227023Y-85751813D01*
X179255453Y-85693223D01*
X179311488Y-85664367D01*
X179834451Y-85662968D01*
X179861487Y-85651769D01*
X179882179Y-85631077D01*
X179893378Y-85604041D01*
X179893378Y-85574777D01*
X179882179Y-85547741D01*
X179861487Y-85527049D01*
X179834451Y-85515850D01*
X179819819Y-85514409D01*
X179307733Y-85515779D01*
X179305389Y-85514998D01*
X179293868Y-85515816D01*
X179281377Y-85515850D01*
X179278888Y-85516880D01*
X179276199Y-85517072D01*
X179262468Y-85522327D01*
X179171083Y-85569386D01*
X179163629Y-85571871D01*
X179159786Y-85575203D01*
X179154787Y-85577778D01*
X179148625Y-85584882D01*
X179141521Y-85591044D01*
X179136859Y-85598449D01*
X179135614Y-85599886D01*
X179135229Y-85601039D01*
X179133689Y-85603487D01*
X179092014Y-85689375D01*
X179090792Y-85690598D01*
X179087119Y-85699463D01*
X179080815Y-85712457D01*
X179080624Y-85715144D01*
X179079593Y-85717634D01*
X179078152Y-85732266D01*
X178633708Y-85732266D01*
X178633708Y-84827504D01*
X179078152Y-84827504D01*
X179079410Y-85006591D01*
X179078741Y-85008599D01*
X179079499Y-85019271D01*
X179079593Y-85032612D01*
X179080624Y-85035101D01*
X179080815Y-85037789D01*
X179086070Y-85051521D01*
X179133129Y-85142905D01*
X179135614Y-85150360D01*
X179138946Y-85154202D01*
X179141521Y-85159202D01*
X179148625Y-85165363D01*
X179154787Y-85172468D01*
X179162192Y-85177129D01*
X179163629Y-85178375D01*
X179164782Y-85178759D01*
X179167230Y-85180300D01*
X179253119Y-85221975D01*
X179254341Y-85223197D01*
X179263200Y-85226866D01*
X179276199Y-85233174D01*
X179278888Y-85233365D01*
X179281377Y-85234396D01*
X179296009Y-85235837D01*
X179483118Y-85235155D01*
X179486563Y-85235837D01*
X179490098Y-85235129D01*
X179665311Y-85234491D01*
X179667580Y-85235248D01*
X179678921Y-85234442D01*
X179691593Y-85234396D01*
X179694082Y-85233364D01*
X179696770Y-85233174D01*
X179710502Y-85227919D01*
X179801885Y-85180860D01*
X179809342Y-85178375D01*
X179813186Y-85175041D01*
X179818183Y-85172468D01*
X179824342Y-85165365D01*
X179831450Y-85159202D01*
X179836111Y-85151796D01*
X179837357Y-85150360D01*
X179837741Y-85149206D01*
X179839282Y-85146759D01*
X179880957Y-85060869D01*
X179882179Y-85059648D01*
X179885848Y-85050788D01*
X179892156Y-85037790D01*
X179892347Y-85035100D01*
X179893378Y-85032612D01*
X179894819Y-85017980D01*
X179893560Y-84838891D01*
X179894230Y-84836884D01*
X179893471Y-84826211D01*
X179893378Y-84812872D01*
X179892347Y-84810383D01*
X179892156Y-84807694D01*
X179886901Y-84793963D01*
X179831450Y-84686282D01*
X179809342Y-84667109D01*
X179781581Y-84657855D01*
X179752391Y-84659929D01*
X179726216Y-84673016D01*
X179707043Y-84695124D01*
X179697789Y-84722885D01*
X179699863Y-84752075D01*
X179705118Y-84765807D01*
X179744928Y-84843115D01*
X179746018Y-84998284D01*
X179717518Y-85057022D01*
X179661452Y-85085893D01*
X179547884Y-85086307D01*
X179464806Y-84677045D01*
X179464806Y-84670015D01*
X179462007Y-84663258D01*
X179460508Y-84655873D01*
X179456418Y-84649767D01*
X179453607Y-84642979D01*
X179448356Y-84637728D01*
X179444224Y-84631558D01*
X179438110Y-84627482D01*
X179432915Y-84622287D01*
X179426055Y-84619445D01*
X179419876Y-84615326D01*
X179412667Y-84613899D01*
X179405879Y-84611088D01*
X179391247Y-84609647D01*
X179391173Y-84609647D01*
X179391169Y-84609647D01*
X179391163Y-84609648D01*
X179306939Y-84610752D01*
X179305389Y-84610236D01*
X179296118Y-84610894D01*
X179281377Y-84611088D01*
X179278888Y-84612118D01*
X179276199Y-84612310D01*
X179262468Y-84617565D01*
X179171083Y-84664624D01*
X179163629Y-84667109D01*
X179159786Y-84670441D01*
X179154787Y-84673016D01*
X179148625Y-84680120D01*
X179141521Y-84686282D01*
X179136859Y-84693687D01*
X179135614Y-84695124D01*
X179135229Y-84696277D01*
X179133689Y-84698725D01*
X179092014Y-84784613D01*
X179090792Y-84785836D01*
X179087119Y-84794701D01*
X179080815Y-84807695D01*
X179080624Y-84810382D01*
X179079593Y-84812872D01*
X179078152Y-84827504D01*
X178633708Y-84827504D01*
X178633708Y-83922742D01*
X179078152Y-83922742D01*
X179079410Y-84101829D01*
X179078741Y-84103837D01*
X179079499Y-84114509D01*
X179079593Y-84127850D01*
X179080624Y-84130339D01*
X179080815Y-84133027D01*
X179086070Y-84146759D01*
X179134762Y-84241315D01*
X179138411Y-84250124D01*
X179140793Y-84253026D01*
X179141521Y-84254440D01*
X179143019Y-84255739D01*
X179147738Y-84261489D01*
X179196773Y-84308830D01*
X179202406Y-84315325D01*
X179205551Y-84317304D01*
X179206722Y-84318435D01*
X179208549Y-84319192D01*
X179214849Y-84323157D01*
X179300738Y-84364832D01*
X179301960Y-84366054D01*
X179310819Y-84369723D01*
X179323818Y-84376031D01*
X179326507Y-84376222D01*
X179328996Y-84377253D01*
X179343628Y-84378694D01*
X179617782Y-84377378D01*
X179619961Y-84378105D01*
X179631081Y-84377314D01*
X179643974Y-84377253D01*
X179646463Y-84376221D01*
X179649151Y-84376031D01*
X179662883Y-84370776D01*
X179757435Y-84322085D01*
X179766247Y-84318436D01*
X179769151Y-84316052D01*
X179770564Y-84315325D01*
X179771863Y-84313826D01*
X179777612Y-84309109D01*
X179824953Y-84260073D01*
X179831450Y-84254440D01*
X179833429Y-84251294D01*
X179834560Y-84250124D01*
X179835317Y-84248296D01*
X179839282Y-84241997D01*
X179880957Y-84156107D01*
X179882179Y-84154886D01*
X179885848Y-84146026D01*
X179892156Y-84133028D01*
X179892347Y-84130338D01*
X179893378Y-84127850D01*
X179894819Y-84113218D01*
X179893560Y-83934129D01*
X179894230Y-83932122D01*
X179893471Y-83921449D01*
X179893378Y-83908110D01*
X179892347Y-83905621D01*
X179892156Y-83902932D01*
X179886901Y-83889201D01*
X179831450Y-83781520D01*
X179809342Y-83762347D01*
X179781581Y-83753093D01*
X179752391Y-83755167D01*
X179726216Y-83768254D01*
X179707043Y-83790362D01*
X179697789Y-83818123D01*
X179699863Y-83847313D01*
X179705118Y-83861045D01*
X179744928Y-83938353D01*
X179746018Y-84093522D01*
X179712767Y-84162051D01*
X179682521Y-84193378D01*
X179613798Y-84228768D01*
X179363479Y-84229969D01*
X179294794Y-84196642D01*
X179263466Y-84166397D01*
X179228042Y-84097606D01*
X179226952Y-83942437D01*
X179273108Y-83847314D01*
X179275182Y-83818124D01*
X179265928Y-83790362D01*
X179246755Y-83768255D01*
X179220580Y-83755167D01*
X179191390Y-83753093D01*
X179163629Y-83762347D01*
X179141521Y-83781520D01*
X179133689Y-83793963D01*
X179092014Y-83879851D01*
X179090792Y-83881074D01*
X179087119Y-83889939D01*
X179080815Y-83902933D01*
X179080624Y-83905620D01*
X179079593Y-83908110D01*
X179078152Y-83922742D01*
X178633708Y-83922742D01*
X178633708Y-83413564D01*
X178746260Y-83413564D01*
X178757459Y-83440600D01*
X178778151Y-83461292D01*
X178805187Y-83472491D01*
X178819819Y-83473932D01*
X179079290Y-83473503D01*
X179079593Y-83556421D01*
X179090792Y-83583457D01*
X179111484Y-83604149D01*
X179138520Y-83615348D01*
X179167784Y-83615348D01*
X179194820Y-83604149D01*
X179215512Y-83583457D01*
X179226711Y-83556421D01*
X179228152Y-83541789D01*
X179227902Y-83473257D01*
X179665155Y-83472534D01*
X179667580Y-83473343D01*
X179679284Y-83472511D01*
X179691593Y-83472491D01*
X179694082Y-83471459D01*
X179696770Y-83471269D01*
X179710502Y-83466014D01*
X179801885Y-83418955D01*
X179809342Y-83416470D01*
X179813186Y-83413136D01*
X179818183Y-83410563D01*
X179824342Y-83403460D01*
X179831450Y-83397297D01*
X179836111Y-83389891D01*
X179837357Y-83388455D01*
X179837741Y-83387301D01*
X179839282Y-83384854D01*
X179880957Y-83298964D01*
X179882179Y-83297743D01*
X179885848Y-83288883D01*
X179892156Y-83275885D01*
X179892347Y-83273195D01*
X179893378Y-83270707D01*
X179894819Y-83256075D01*
X179893378Y-83146205D01*
X179882179Y-83119169D01*
X179861487Y-83098477D01*
X179834451Y-83087278D01*
X179805187Y-83087278D01*
X179778151Y-83098477D01*
X179757459Y-83119169D01*
X179746260Y-83146205D01*
X179744819Y-83160837D01*
X179745815Y-83236799D01*
X179717518Y-83295117D01*
X179661512Y-83323957D01*
X179227361Y-83324675D01*
X179226711Y-83146205D01*
X179215512Y-83119169D01*
X179194820Y-83098477D01*
X179167784Y-83087278D01*
X179138520Y-83087278D01*
X179111484Y-83098477D01*
X179090792Y-83119169D01*
X179079593Y-83146205D01*
X179078152Y-83160837D01*
X179078749Y-83324920D01*
X178805187Y-83325373D01*
X178778151Y-83336572D01*
X178757459Y-83357264D01*
X178746260Y-83384300D01*
X178746260Y-83413564D01*
X178633708Y-83413564D01*
X178633708Y-82976167D01*
X180339263Y-82976167D01*
X180339263Y-95441599D01*
G37*
D11*
G36*
X105140512Y-78753645D02*
G01*
X104331185Y-79024634D01*
X104329599Y-78484556D01*
X105140512Y-78753645D01*
G37*
G36*
X106077821Y-85698161D02*
G01*
X102761949Y-85698161D01*
X102761949Y-85315462D01*
X103460727Y-85315462D01*
X103463243Y-85335253D01*
X103463243Y-85355203D01*
X103466902Y-85364036D01*
X103468108Y-85373522D01*
X103478006Y-85390844D01*
X103485641Y-85409275D01*
X103492401Y-85416035D01*
X103497146Y-85424338D01*
X103512917Y-85436551D01*
X103527025Y-85450659D01*
X103535860Y-85454318D01*
X103543420Y-85460173D01*
X103562664Y-85465421D01*
X103581097Y-85473057D01*
X103596063Y-85474530D01*
X103599884Y-85475573D01*
X103602835Y-85475197D01*
X103610361Y-85475939D01*
X105639625Y-85473057D01*
X105693697Y-85450659D01*
X105735081Y-85409275D01*
X105757479Y-85355203D01*
X105757479Y-85296675D01*
X105735081Y-85242603D01*
X105693697Y-85201219D01*
X105639625Y-85178821D01*
X105610361Y-85175939D01*
X104170222Y-85177984D01*
X105675610Y-84315293D01*
X105693697Y-84307802D01*
X105700426Y-84301072D01*
X105708760Y-84296297D01*
X105720973Y-84280525D01*
X105735081Y-84266418D01*
X105738740Y-84257582D01*
X105744595Y-84250023D01*
X105749842Y-84230780D01*
X105757479Y-84212346D01*
X105757479Y-84202781D01*
X105759994Y-84193560D01*
X105757479Y-84173773D01*
X105757479Y-84153818D01*
X105753819Y-84144983D01*
X105752614Y-84135499D01*
X105742715Y-84118176D01*
X105735081Y-84099746D01*
X105728320Y-84092985D01*
X105723576Y-84084683D01*
X105707804Y-84072469D01*
X105693697Y-84058362D01*
X105684861Y-84054702D01*
X105677302Y-84048848D01*
X105658060Y-84043600D01*
X105639625Y-84035964D01*
X105624653Y-84034489D01*
X105620838Y-84033449D01*
X105617891Y-84033823D01*
X105610361Y-84033082D01*
X103581097Y-84035964D01*
X103527025Y-84058362D01*
X103485641Y-84099746D01*
X103463243Y-84153818D01*
X103463243Y-84212346D01*
X103485641Y-84266418D01*
X103527025Y-84307802D01*
X103581097Y-84330200D01*
X103610361Y-84333082D01*
X105050499Y-84331036D01*
X103545111Y-85193727D01*
X103527025Y-85201219D01*
X103520295Y-85207948D01*
X103511962Y-85212724D01*
X103499748Y-85228495D01*
X103485641Y-85242603D01*
X103481981Y-85251438D01*
X103476127Y-85258998D01*
X103470878Y-85278242D01*
X103463243Y-85296675D01*
X103463243Y-85306237D01*
X103460727Y-85315462D01*
X102761949Y-85315462D01*
X102761949Y-81802288D01*
X102984171Y-81802288D01*
X102995649Y-81859677D01*
X103028216Y-81908307D01*
X103050966Y-81926938D01*
X105648342Y-83655057D01*
X105705757Y-83666415D01*
X105763146Y-83654937D01*
X105811776Y-83622370D01*
X105844242Y-83573672D01*
X105855599Y-83516257D01*
X105844122Y-83458868D01*
X105811555Y-83410238D01*
X105788805Y-83391607D01*
X103191428Y-81663488D01*
X103134013Y-81652130D01*
X103076624Y-81663608D01*
X103027994Y-81696175D01*
X102995529Y-81744873D01*
X102984171Y-81802288D01*
X102761949Y-81802288D01*
X102761949Y-80659273D01*
X103460361Y-80659273D01*
X103462861Y-80849905D01*
X103461539Y-80868510D01*
X103463201Y-80875819D01*
X103463243Y-80879013D01*
X103464759Y-80882674D01*
X103468059Y-80897184D01*
X103558482Y-81160764D01*
X103558482Y-81164726D01*
X103566393Y-81183825D01*
X103575286Y-81209748D01*
X103578816Y-81213818D01*
X103580879Y-81218798D01*
X103599534Y-81241529D01*
X103717503Y-81355422D01*
X103771575Y-81377819D01*
X103830101Y-81377819D01*
X103884173Y-81355422D01*
X103925559Y-81314036D01*
X103947956Y-81259964D01*
X103947956Y-81201438D01*
X103925559Y-81147366D01*
X103906904Y-81124635D01*
X103837460Y-81057590D01*
X103760130Y-80832176D01*
X103758258Y-80689420D01*
X103833303Y-80457564D01*
X103978882Y-80309148D01*
X104129155Y-80231763D01*
X104476013Y-80142528D01*
X104725563Y-80140244D01*
X105071808Y-80224298D01*
X105231425Y-80301746D01*
X105382874Y-80450300D01*
X105460591Y-80676845D01*
X105462463Y-80819601D01*
X105387247Y-81051987D01*
X105295164Y-81147366D01*
X105272767Y-81201438D01*
X105272767Y-81259964D01*
X105295164Y-81314036D01*
X105336550Y-81355422D01*
X105390622Y-81377819D01*
X105449148Y-81377819D01*
X105503220Y-81355422D01*
X105525951Y-81336767D01*
X105604779Y-81255117D01*
X105607090Y-81253962D01*
X105617650Y-81241785D01*
X105639844Y-81218798D01*
X105641906Y-81213818D01*
X105645437Y-81209748D01*
X105657425Y-81182897D01*
X105749723Y-80897736D01*
X105757479Y-80879013D01*
X105758220Y-80871483D01*
X105759183Y-80868510D01*
X105758902Y-80864560D01*
X105760361Y-80849749D01*
X105757860Y-80659125D01*
X105759184Y-80640513D01*
X105757520Y-80633198D01*
X105757479Y-80630009D01*
X105755963Y-80626351D01*
X105752664Y-80611839D01*
X105662241Y-80348256D01*
X105662241Y-80344295D01*
X105654329Y-80325194D01*
X105645437Y-80299273D01*
X105641906Y-80295202D01*
X105639844Y-80290223D01*
X105621189Y-80267492D01*
X105429662Y-80079626D01*
X105416615Y-80064583D01*
X105410223Y-80060559D01*
X105407982Y-80058361D01*
X105404322Y-80056845D01*
X105391729Y-80048918D01*
X105209263Y-79960382D01*
X105198242Y-79952216D01*
X105176214Y-79944346D01*
X105173790Y-79943170D01*
X105172706Y-79943093D01*
X105170551Y-79942323D01*
X104797815Y-79851839D01*
X104782483Y-79845488D01*
X104764260Y-79843693D01*
X104760510Y-79842783D01*
X104758322Y-79843108D01*
X104753219Y-79842606D01*
X104476063Y-79845141D01*
X104460213Y-79842783D01*
X104442164Y-79845452D01*
X104438240Y-79845488D01*
X104436195Y-79846334D01*
X104431123Y-79847085D01*
X104061727Y-79942118D01*
X104046934Y-79943170D01*
X104024968Y-79951575D01*
X104022480Y-79952216D01*
X104021608Y-79952861D01*
X104019470Y-79953680D01*
X103830371Y-80051058D01*
X103812741Y-80058361D01*
X103806930Y-80063129D01*
X103804108Y-80064583D01*
X103801511Y-80067576D01*
X103790010Y-80077016D01*
X103617042Y-80253354D01*
X103613634Y-80255059D01*
X103600368Y-80270353D01*
X103580879Y-80290223D01*
X103578816Y-80295202D01*
X103575286Y-80299273D01*
X103563298Y-80326124D01*
X103470999Y-80611284D01*
X103463243Y-80630009D01*
X103462501Y-80637538D01*
X103461539Y-80640512D01*
X103461819Y-80644461D01*
X103460361Y-80659273D01*
X102761949Y-80659273D01*
X102761949Y-79439938D01*
X103461539Y-79439938D01*
X103480047Y-79495462D01*
X103518394Y-79539676D01*
X103570741Y-79565850D01*
X103629122Y-79569999D01*
X103657795Y-79563479D01*
X105639546Y-78899924D01*
X105649981Y-78899183D01*
X105666642Y-78890852D01*
X105684646Y-78884824D01*
X105692742Y-78877801D01*
X105702328Y-78873009D01*
X105714651Y-78858800D01*
X105728860Y-78846477D01*
X105733652Y-78836891D01*
X105740675Y-78828795D01*
X105746623Y-78810951D01*
X105755034Y-78794130D01*
X105755793Y-78783441D01*
X105759184Y-78773271D01*
X105757850Y-78754505D01*
X105759183Y-78735750D01*
X105755794Y-78725583D01*
X105755034Y-78714890D01*
X105746622Y-78698066D01*
X105740675Y-78680225D01*
X105733653Y-78672128D01*
X105728860Y-78662543D01*
X105714648Y-78650217D01*
X105702327Y-78636011D01*
X105692743Y-78631219D01*
X105684646Y-78624196D01*
X105657795Y-78612208D01*
X104222293Y-78135857D01*
X104211054Y-78131202D01*
X104208263Y-78131202D01*
X103629121Y-77939022D01*
X103570741Y-77943171D01*
X103518394Y-77969345D01*
X103480047Y-78013559D01*
X103461539Y-78069084D01*
X103465688Y-78127464D01*
X103491862Y-78179811D01*
X103536076Y-78218158D01*
X103562927Y-78230147D01*
X104032105Y-78385837D01*
X104034272Y-79124050D01*
X103536076Y-79290863D01*
X103491862Y-79329210D01*
X103465688Y-79381557D01*
X103461539Y-79439938D01*
X102761949Y-79439938D01*
X102761949Y-77716800D01*
X106077821Y-77716800D01*
X106077821Y-85698161D01*
G37*
G36*
X105140512Y-63903645D02*
G01*
X104331185Y-64174634D01*
X104329599Y-63634556D01*
X105140512Y-63903645D01*
G37*
G36*
X106077821Y-70654803D02*
G01*
X102761949Y-70654803D01*
X102761949Y-69333082D01*
X103460361Y-69333082D01*
X103463243Y-70314727D01*
X103485641Y-70368799D01*
X103527025Y-70410183D01*
X103581097Y-70432581D01*
X103639625Y-70432581D01*
X103693697Y-70410183D01*
X103735081Y-70368799D01*
X103757479Y-70314727D01*
X103760361Y-70285463D01*
X103758004Y-69482872D01*
X105639625Y-69480200D01*
X105693697Y-69457802D01*
X105735081Y-69416418D01*
X105757479Y-69362346D01*
X105757479Y-69303818D01*
X105735081Y-69249746D01*
X105693697Y-69208362D01*
X105639625Y-69185964D01*
X105610361Y-69183082D01*
X103581097Y-69185964D01*
X103527025Y-69208362D01*
X103485641Y-69249746D01*
X103463243Y-69303818D01*
X103460361Y-69333082D01*
X102761949Y-69333082D01*
X102761949Y-66952288D01*
X102984171Y-66952288D01*
X102995649Y-67009677D01*
X103028216Y-67058307D01*
X103050966Y-67076938D01*
X105648342Y-68805057D01*
X105705757Y-68816415D01*
X105763146Y-68804937D01*
X105811776Y-68772370D01*
X105844242Y-68723672D01*
X105855599Y-68666257D01*
X105844122Y-68608868D01*
X105811555Y-68560238D01*
X105788805Y-68541607D01*
X103191428Y-66813488D01*
X103134013Y-66802130D01*
X103076624Y-66813608D01*
X103027994Y-66846175D01*
X102995529Y-66894873D01*
X102984171Y-66952288D01*
X102761949Y-66952288D01*
X102761949Y-65809273D01*
X103460361Y-65809273D01*
X103462861Y-65999905D01*
X103461539Y-66018510D01*
X103463201Y-66025819D01*
X103463243Y-66029013D01*
X103464759Y-66032674D01*
X103468059Y-66047184D01*
X103558482Y-66310764D01*
X103558482Y-66314726D01*
X103566393Y-66333825D01*
X103575286Y-66359748D01*
X103578816Y-66363818D01*
X103580879Y-66368798D01*
X103599534Y-66391529D01*
X103717503Y-66505422D01*
X103771575Y-66527819D01*
X103830101Y-66527819D01*
X103884173Y-66505422D01*
X103925559Y-66464036D01*
X103947956Y-66409964D01*
X103947956Y-66351438D01*
X103925559Y-66297366D01*
X103906904Y-66274635D01*
X103837460Y-66207590D01*
X103760130Y-65982176D01*
X103758258Y-65839420D01*
X103833303Y-65607564D01*
X103978882Y-65459148D01*
X104129155Y-65381763D01*
X104476013Y-65292528D01*
X104725563Y-65290244D01*
X105071808Y-65374298D01*
X105231425Y-65451746D01*
X105382874Y-65600300D01*
X105460591Y-65826845D01*
X105462463Y-65969601D01*
X105387247Y-66201987D01*
X105295164Y-66297366D01*
X105272767Y-66351438D01*
X105272767Y-66409964D01*
X105295164Y-66464036D01*
X105336550Y-66505422D01*
X105390622Y-66527819D01*
X105449148Y-66527819D01*
X105503220Y-66505422D01*
X105525951Y-66486767D01*
X105604779Y-66405117D01*
X105607090Y-66403962D01*
X105617650Y-66391785D01*
X105639844Y-66368798D01*
X105641906Y-66363818D01*
X105645437Y-66359748D01*
X105657425Y-66332897D01*
X105749723Y-66047736D01*
X105757479Y-66029013D01*
X105758220Y-66021483D01*
X105759183Y-66018510D01*
X105758902Y-66014560D01*
X105760361Y-65999749D01*
X105757860Y-65809125D01*
X105759184Y-65790513D01*
X105757520Y-65783198D01*
X105757479Y-65780009D01*
X105755963Y-65776351D01*
X105752664Y-65761839D01*
X105662241Y-65498256D01*
X105662241Y-65494295D01*
X105654329Y-65475194D01*
X105645437Y-65449273D01*
X105641906Y-65445202D01*
X105639844Y-65440223D01*
X105621189Y-65417492D01*
X105429662Y-65229626D01*
X105416615Y-65214583D01*
X105410223Y-65210559D01*
X105407982Y-65208361D01*
X105404322Y-65206845D01*
X105391729Y-65198918D01*
X105209263Y-65110382D01*
X105198242Y-65102216D01*
X105176214Y-65094346D01*
X105173790Y-65093170D01*
X105172706Y-65093093D01*
X105170551Y-65092323D01*
X104797815Y-65001839D01*
X104782483Y-64995488D01*
X104764260Y-64993693D01*
X104760510Y-64992783D01*
X104758322Y-64993108D01*
X104753219Y-64992606D01*
X104476063Y-64995141D01*
X104460213Y-64992783D01*
X104442164Y-64995452D01*
X104438240Y-64995488D01*
X104436195Y-64996334D01*
X104431123Y-64997085D01*
X104061727Y-65092118D01*
X104046934Y-65093170D01*
X104024968Y-65101575D01*
X104022480Y-65102216D01*
X104021608Y-65102861D01*
X104019470Y-65103680D01*
X103830371Y-65201058D01*
X103812741Y-65208361D01*
X103806930Y-65213129D01*
X103804108Y-65214583D01*
X103801511Y-65217576D01*
X103790010Y-65227016D01*
X103617042Y-65403354D01*
X103613634Y-65405059D01*
X103600368Y-65420353D01*
X103580879Y-65440223D01*
X103578816Y-65445202D01*
X103575286Y-65449273D01*
X103563298Y-65476124D01*
X103470999Y-65761284D01*
X103463243Y-65780009D01*
X103462501Y-65787538D01*
X103461539Y-65790512D01*
X103461819Y-65794461D01*
X103460361Y-65809273D01*
X102761949Y-65809273D01*
X102761949Y-64589938D01*
X103461539Y-64589938D01*
X103480047Y-64645462D01*
X103518394Y-64689676D01*
X103570741Y-64715850D01*
X103629122Y-64719999D01*
X103657795Y-64713479D01*
X105639546Y-64049924D01*
X105649981Y-64049183D01*
X105666642Y-64040852D01*
X105684646Y-64034824D01*
X105692742Y-64027801D01*
X105702328Y-64023009D01*
X105714651Y-64008800D01*
X105728860Y-63996477D01*
X105733652Y-63986891D01*
X105740675Y-63978795D01*
X105746623Y-63960951D01*
X105755034Y-63944130D01*
X105755793Y-63933441D01*
X105759184Y-63923271D01*
X105757850Y-63904505D01*
X105759183Y-63885750D01*
X105755794Y-63875583D01*
X105755034Y-63864890D01*
X105746622Y-63848066D01*
X105740675Y-63830225D01*
X105733653Y-63822128D01*
X105728860Y-63812543D01*
X105714648Y-63800217D01*
X105702327Y-63786011D01*
X105692743Y-63781219D01*
X105684646Y-63774196D01*
X105657795Y-63762208D01*
X104222293Y-63285857D01*
X104211054Y-63281202D01*
X104208263Y-63281202D01*
X103629121Y-63089022D01*
X103570741Y-63093171D01*
X103518394Y-63119345D01*
X103480047Y-63163559D01*
X103461539Y-63219084D01*
X103465688Y-63277464D01*
X103491862Y-63329811D01*
X103536076Y-63368158D01*
X103562927Y-63380147D01*
X104032105Y-63535837D01*
X104034272Y-64274050D01*
X103536076Y-64440863D01*
X103491862Y-64479210D01*
X103465688Y-64531557D01*
X103461539Y-64589938D01*
X102761949Y-64589938D01*
X102761949Y-62866800D01*
X106077821Y-62866800D01*
X106077821Y-70654803D01*
G37*
D10*
X176185714Y-130104819D02*
X176185714Y-129104819D01*
X176185714Y-129104819D02*
X176566666Y-129104819D01*
X176566666Y-129104819D02*
X176661904Y-129152438D01*
X176661904Y-129152438D02*
X176709523Y-129200057D01*
X176709523Y-129200057D02*
X176757142Y-129295295D01*
X176757142Y-129295295D02*
X176757142Y-129438152D01*
X176757142Y-129438152D02*
X176709523Y-129533390D01*
X176709523Y-129533390D02*
X176661904Y-129581009D01*
X176661904Y-129581009D02*
X176566666Y-129628628D01*
X176566666Y-129628628D02*
X176185714Y-129628628D01*
X177138095Y-130057200D02*
X177280952Y-130104819D01*
X177280952Y-130104819D02*
X177519047Y-130104819D01*
X177519047Y-130104819D02*
X177614285Y-130057200D01*
X177614285Y-130057200D02*
X177661904Y-130009580D01*
X177661904Y-130009580D02*
X177709523Y-129914342D01*
X177709523Y-129914342D02*
X177709523Y-129819104D01*
X177709523Y-129819104D02*
X177661904Y-129723866D01*
X177661904Y-129723866D02*
X177614285Y-129676247D01*
X177614285Y-129676247D02*
X177519047Y-129628628D01*
X177519047Y-129628628D02*
X177328571Y-129581009D01*
X177328571Y-129581009D02*
X177233333Y-129533390D01*
X177233333Y-129533390D02*
X177185714Y-129485771D01*
X177185714Y-129485771D02*
X177138095Y-129390533D01*
X177138095Y-129390533D02*
X177138095Y-129295295D01*
X177138095Y-129295295D02*
X177185714Y-129200057D01*
X177185714Y-129200057D02*
X177233333Y-129152438D01*
X177233333Y-129152438D02*
X177328571Y-129104819D01*
X177328571Y-129104819D02*
X177566666Y-129104819D01*
X177566666Y-129104819D02*
X177709523Y-129152438D01*
X178090476Y-129200057D02*
X178138095Y-129152438D01*
X178138095Y-129152438D02*
X178233333Y-129104819D01*
X178233333Y-129104819D02*
X178471428Y-129104819D01*
X178471428Y-129104819D02*
X178566666Y-129152438D01*
X178566666Y-129152438D02*
X178614285Y-129200057D01*
X178614285Y-129200057D02*
X178661904Y-129295295D01*
X178661904Y-129295295D02*
X178661904Y-129390533D01*
X178661904Y-129390533D02*
X178614285Y-129533390D01*
X178614285Y-129533390D02*
X178042857Y-130104819D01*
X178042857Y-130104819D02*
X178661904Y-130104819D01*
G36*
X156390497Y-107705341D02*
G01*
X154258400Y-107705341D01*
X154258400Y-106529199D01*
X154369511Y-106529199D01*
X154372771Y-106543536D01*
X154704548Y-107534413D01*
X154704919Y-107539629D01*
X154709083Y-107547959D01*
X154712098Y-107556961D01*
X154715608Y-107561008D01*
X154718005Y-107565802D01*
X154725113Y-107571967D01*
X154731272Y-107579068D01*
X154736061Y-107581462D01*
X154740112Y-107584976D01*
X154749037Y-107587950D01*
X154757445Y-107592155D01*
X154762789Y-107592534D01*
X154767875Y-107594230D01*
X154777255Y-107593563D01*
X154786635Y-107594230D01*
X154791720Y-107592534D01*
X154797065Y-107592155D01*
X154805475Y-107587949D01*
X154814397Y-107584976D01*
X154818444Y-107581465D01*
X154823238Y-107579069D01*
X154829401Y-107571963D01*
X154836505Y-107565802D01*
X154838900Y-107561010D01*
X154842412Y-107556962D01*
X154848406Y-107543536D01*
X154977835Y-107153498D01*
X155370363Y-107153498D01*
X155381562Y-107180534D01*
X155402254Y-107201226D01*
X155429290Y-107212425D01*
X155443922Y-107213866D01*
X155750719Y-107213296D01*
X155751315Y-107534451D01*
X155762514Y-107561487D01*
X155783206Y-107582179D01*
X155810242Y-107593378D01*
X155839506Y-107593378D01*
X155866542Y-107582179D01*
X155887234Y-107561487D01*
X155898433Y-107534451D01*
X155899874Y-107519819D01*
X155899304Y-107213020D01*
X156220459Y-107212425D01*
X156247495Y-107201226D01*
X156268187Y-107180534D01*
X156279386Y-107153498D01*
X156279386Y-107124234D01*
X156268187Y-107097198D01*
X156247495Y-107076506D01*
X156220459Y-107065307D01*
X156205827Y-107063866D01*
X155899028Y-107064435D01*
X155898433Y-106743282D01*
X155887234Y-106716246D01*
X155866542Y-106695554D01*
X155839506Y-106684355D01*
X155810242Y-106684355D01*
X155783206Y-106695554D01*
X155762514Y-106716246D01*
X155751315Y-106743282D01*
X155749874Y-106757914D01*
X155750443Y-107064711D01*
X155429290Y-107065307D01*
X155402254Y-107076506D01*
X155381562Y-107097198D01*
X155370363Y-107124234D01*
X155370363Y-107153498D01*
X154977835Y-107153498D01*
X155184999Y-106529200D01*
X155182924Y-106500010D01*
X155169838Y-106473836D01*
X155147730Y-106454662D01*
X155119968Y-106445408D01*
X155090778Y-106447483D01*
X155064605Y-106460570D01*
X155045431Y-106482677D01*
X155039437Y-106496102D01*
X154777687Y-107284895D01*
X154509079Y-106482676D01*
X154489905Y-106460569D01*
X154463732Y-106447483D01*
X154434542Y-106445408D01*
X154406779Y-106454662D01*
X154384672Y-106473836D01*
X154371586Y-106500009D01*
X154369511Y-106529199D01*
X154258400Y-106529199D01*
X154258400Y-106334297D01*
X156390497Y-106334297D01*
X156390497Y-107705341D01*
G37*
G36*
X115562317Y-94409406D02*
G01*
X115292277Y-94410199D01*
X115426822Y-94004742D01*
X115562317Y-94409406D01*
G37*
G36*
X118802401Y-95194025D02*
G01*
X114908400Y-95194025D01*
X114908400Y-95007993D01*
X116876065Y-95007993D01*
X116881804Y-95036687D01*
X116898087Y-95061002D01*
X116922436Y-95077235D01*
X116951144Y-95082914D01*
X116979838Y-95077175D01*
X117004153Y-95060892D01*
X117013469Y-95049516D01*
X117864893Y-93769819D01*
X118066541Y-93769819D01*
X118067982Y-94784451D01*
X118079181Y-94811487D01*
X118099873Y-94832179D01*
X118126909Y-94843378D01*
X118141541Y-94844819D01*
X118632363Y-94843378D01*
X118659399Y-94832179D01*
X118680091Y-94811487D01*
X118691290Y-94784451D01*
X118691290Y-94755187D01*
X118680091Y-94728151D01*
X118659399Y-94707459D01*
X118632363Y-94696260D01*
X118617731Y-94694819D01*
X118216436Y-94695997D01*
X118215100Y-93755187D01*
X118203901Y-93728151D01*
X118183209Y-93707459D01*
X118156173Y-93696260D01*
X118126909Y-93696260D01*
X118099873Y-93707459D01*
X118079181Y-93728151D01*
X118067982Y-93755187D01*
X118066541Y-93769819D01*
X117864893Y-93769819D01*
X117877528Y-93750828D01*
X117883207Y-93722121D01*
X117877468Y-93693426D01*
X117861185Y-93669111D01*
X117836836Y-93652878D01*
X117808128Y-93647200D01*
X117779434Y-93652939D01*
X117755119Y-93669222D01*
X117745803Y-93680597D01*
X116881744Y-94979285D01*
X116876065Y-95007993D01*
X114908400Y-95007993D01*
X114908400Y-94760439D01*
X115019511Y-94760439D01*
X115021586Y-94789629D01*
X115034672Y-94815802D01*
X115056779Y-94834976D01*
X115084542Y-94844230D01*
X115113732Y-94842155D01*
X115139905Y-94829069D01*
X115159079Y-94806962D01*
X115165073Y-94793536D01*
X115242918Y-94558946D01*
X115612024Y-94557862D01*
X115695431Y-94806961D01*
X115714605Y-94829068D01*
X115740778Y-94842155D01*
X115769968Y-94844230D01*
X115797730Y-94834976D01*
X115819838Y-94815802D01*
X115832924Y-94789628D01*
X115834999Y-94760438D01*
X115831739Y-94746102D01*
X115648347Y-94198390D01*
X115971303Y-94198390D01*
X115972570Y-94336969D01*
X115971392Y-94344893D01*
X115972726Y-94353917D01*
X115972744Y-94355879D01*
X115973166Y-94356900D01*
X115973542Y-94359437D01*
X116021059Y-94544135D01*
X116021585Y-94551532D01*
X116025787Y-94562514D01*
X116026108Y-94563759D01*
X116026430Y-94564194D01*
X116026840Y-94565264D01*
X116075530Y-94659816D01*
X116079180Y-94668628D01*
X116081563Y-94671532D01*
X116082291Y-94672945D01*
X116083789Y-94674244D01*
X116088508Y-94679994D01*
X116176677Y-94766479D01*
X116177529Y-94768183D01*
X116185173Y-94774813D01*
X116195111Y-94784561D01*
X116197601Y-94785592D01*
X116199636Y-94787357D01*
X116213062Y-94793351D01*
X116355643Y-94839500D01*
X116365004Y-94843378D01*
X116368767Y-94843748D01*
X116370255Y-94844230D01*
X116372229Y-94844089D01*
X116379636Y-94844819D01*
X116474953Y-94843568D01*
X116484254Y-94844230D01*
X116487908Y-94843398D01*
X116489506Y-94843378D01*
X116491337Y-94842619D01*
X116498591Y-94840970D01*
X116630381Y-94795759D01*
X116632363Y-94795759D01*
X116641915Y-94791802D01*
X116654873Y-94787357D01*
X116656908Y-94785591D01*
X116659399Y-94784560D01*
X116670765Y-94775232D01*
X116727711Y-94716247D01*
X116738909Y-94689211D01*
X116738909Y-94659948D01*
X116727710Y-94632912D01*
X116707017Y-94612219D01*
X116679981Y-94601021D01*
X116650718Y-94601021D01*
X116623682Y-94612220D01*
X116612316Y-94621548D01*
X116578794Y-94656269D01*
X116466087Y-94694934D01*
X116394709Y-94695870D01*
X116278782Y-94658348D01*
X116204574Y-94585558D01*
X116165882Y-94510421D01*
X116121264Y-94336991D01*
X116120122Y-94212219D01*
X116162148Y-94039096D01*
X116200873Y-93959286D01*
X116275152Y-93883561D01*
X116388421Y-93844703D01*
X116459800Y-93843767D01*
X116575993Y-93881376D01*
X116623682Y-93927417D01*
X116650718Y-93938616D01*
X116679981Y-93938616D01*
X116707017Y-93927417D01*
X116727710Y-93906724D01*
X116738909Y-93879688D01*
X116738909Y-93850425D01*
X116727710Y-93823389D01*
X116718383Y-93812024D01*
X116677556Y-93772608D01*
X116676980Y-93771455D01*
X116670900Y-93766181D01*
X116659399Y-93755078D01*
X116656908Y-93754046D01*
X116654873Y-93752281D01*
X116641448Y-93746287D01*
X116498869Y-93700138D01*
X116489506Y-93696260D01*
X116485740Y-93695889D01*
X116484254Y-93695408D01*
X116482279Y-93695548D01*
X116474874Y-93694819D01*
X116379555Y-93696069D01*
X116370255Y-93695408D01*
X116366600Y-93696239D01*
X116365004Y-93696260D01*
X116363173Y-93697018D01*
X116355918Y-93698668D01*
X116224128Y-93743879D01*
X116222148Y-93743879D01*
X116212598Y-93747834D01*
X116199636Y-93752281D01*
X116197601Y-93754045D01*
X116195111Y-93755077D01*
X116183746Y-93764405D01*
X116089814Y-93860167D01*
X116082291Y-93866692D01*
X116080278Y-93869888D01*
X116079181Y-93871008D01*
X116078423Y-93872835D01*
X116074459Y-93879135D01*
X116030192Y-93970366D01*
X116026108Y-93975878D01*
X116022170Y-93986897D01*
X116021585Y-93988105D01*
X116021546Y-93988644D01*
X116021161Y-93989724D01*
X115975920Y-94176089D01*
X115972744Y-94183758D01*
X115971846Y-94192872D01*
X115971392Y-94194744D01*
X115971554Y-94195836D01*
X115971303Y-94198390D01*
X115648347Y-94198390D01*
X115499961Y-93755223D01*
X115499591Y-93750010D01*
X115495427Y-93741683D01*
X115492412Y-93732676D01*
X115488900Y-93728627D01*
X115486505Y-93723836D01*
X115479401Y-93717674D01*
X115473238Y-93710569D01*
X115468444Y-93708172D01*
X115464397Y-93704662D01*
X115455475Y-93701688D01*
X115447065Y-93697483D01*
X115441720Y-93697103D01*
X115436635Y-93695408D01*
X115427255Y-93696074D01*
X115417875Y-93695408D01*
X115412789Y-93697103D01*
X115407445Y-93697483D01*
X115399037Y-93701687D01*
X115390112Y-93704662D01*
X115386061Y-93708175D01*
X115381272Y-93710570D01*
X115375113Y-93717670D01*
X115368005Y-93723836D01*
X115365608Y-93728629D01*
X115362098Y-93732677D01*
X115356104Y-93746102D01*
X115117929Y-94463850D01*
X115115601Y-94469472D01*
X115115601Y-94470867D01*
X115019511Y-94760439D01*
X114908400Y-94760439D01*
X114908400Y-93536089D01*
X118802401Y-93536089D01*
X118802401Y-95194025D01*
G37*
G36*
X115512317Y-99909406D02*
G01*
X115242277Y-99910199D01*
X115376822Y-99504742D01*
X115512317Y-99909406D01*
G37*
G36*
X118849080Y-100694025D02*
G01*
X114858400Y-100694025D01*
X114858400Y-100507993D01*
X116826065Y-100507993D01*
X116831804Y-100536687D01*
X116848087Y-100561002D01*
X116872436Y-100577235D01*
X116901144Y-100582914D01*
X116929838Y-100577175D01*
X116954153Y-100560892D01*
X116963469Y-100549516D01*
X117814893Y-99269819D01*
X118016541Y-99269819D01*
X118017982Y-100284451D01*
X118029181Y-100311487D01*
X118049873Y-100332179D01*
X118076909Y-100343378D01*
X118106173Y-100343378D01*
X118133209Y-100332179D01*
X118153901Y-100311487D01*
X118165100Y-100284451D01*
X118166541Y-100269819D01*
X118165518Y-99549749D01*
X118596865Y-100302448D01*
X118600609Y-100311487D01*
X118603971Y-100314849D01*
X118606361Y-100319019D01*
X118614249Y-100325127D01*
X118621301Y-100332179D01*
X118625719Y-100334009D01*
X118629499Y-100336936D01*
X118639120Y-100339560D01*
X118648337Y-100343378D01*
X118653118Y-100343378D01*
X118657730Y-100344636D01*
X118667627Y-100343378D01*
X118677601Y-100343378D01*
X118682016Y-100341548D01*
X118686760Y-100340946D01*
X118695424Y-100335995D01*
X118704637Y-100332179D01*
X118708015Y-100328800D01*
X118712169Y-100326427D01*
X118718278Y-100318537D01*
X118725329Y-100311487D01*
X118727158Y-100307070D01*
X118730086Y-100303290D01*
X118732710Y-100293666D01*
X118736528Y-100284451D01*
X118737264Y-100276968D01*
X118737786Y-100275058D01*
X118737598Y-100273582D01*
X118737969Y-100269819D01*
X118736528Y-99255187D01*
X118725329Y-99228151D01*
X118704637Y-99207459D01*
X118677601Y-99196260D01*
X118648337Y-99196260D01*
X118621301Y-99207459D01*
X118600609Y-99228151D01*
X118589410Y-99255187D01*
X118587969Y-99269819D01*
X118588991Y-99989888D01*
X118157644Y-99237189D01*
X118153901Y-99228151D01*
X118150538Y-99224788D01*
X118148149Y-99220619D01*
X118140259Y-99214509D01*
X118133209Y-99207459D01*
X118128792Y-99205629D01*
X118125012Y-99202702D01*
X118115388Y-99200077D01*
X118106173Y-99196260D01*
X118101392Y-99196260D01*
X118096780Y-99195002D01*
X118086883Y-99196260D01*
X118076909Y-99196260D01*
X118072493Y-99198089D01*
X118067750Y-99198692D01*
X118059085Y-99203642D01*
X118049873Y-99207459D01*
X118046494Y-99210837D01*
X118042341Y-99213211D01*
X118036231Y-99221100D01*
X118029181Y-99228151D01*
X118027351Y-99232567D01*
X118024424Y-99236348D01*
X118021799Y-99245971D01*
X118017982Y-99255187D01*
X118017245Y-99262669D01*
X118016724Y-99264580D01*
X118016911Y-99266055D01*
X118016541Y-99269819D01*
X117814893Y-99269819D01*
X117827528Y-99250828D01*
X117833207Y-99222121D01*
X117827468Y-99193426D01*
X117811185Y-99169111D01*
X117786836Y-99152878D01*
X117758128Y-99147200D01*
X117729434Y-99152939D01*
X117705119Y-99169222D01*
X117695803Y-99180597D01*
X116831744Y-100479285D01*
X116826065Y-100507993D01*
X114858400Y-100507993D01*
X114858400Y-100260439D01*
X114969511Y-100260439D01*
X114971586Y-100289629D01*
X114984672Y-100315802D01*
X115006779Y-100334976D01*
X115034542Y-100344230D01*
X115063732Y-100342155D01*
X115089905Y-100329069D01*
X115109079Y-100306962D01*
X115115073Y-100293536D01*
X115192918Y-100058946D01*
X115562024Y-100057862D01*
X115645431Y-100306961D01*
X115664605Y-100329068D01*
X115690778Y-100342155D01*
X115719968Y-100344230D01*
X115747730Y-100334976D01*
X115769838Y-100315802D01*
X115782924Y-100289628D01*
X115784999Y-100260438D01*
X115781739Y-100246102D01*
X115598347Y-99698390D01*
X115921303Y-99698390D01*
X115922570Y-99836969D01*
X115921392Y-99844893D01*
X115922726Y-99853917D01*
X115922744Y-99855879D01*
X115923166Y-99856900D01*
X115923542Y-99859437D01*
X115971059Y-100044135D01*
X115971585Y-100051532D01*
X115975787Y-100062514D01*
X115976108Y-100063759D01*
X115976430Y-100064194D01*
X115976840Y-100065264D01*
X116025530Y-100159816D01*
X116029180Y-100168628D01*
X116031563Y-100171532D01*
X116032291Y-100172945D01*
X116033789Y-100174244D01*
X116038508Y-100179994D01*
X116126677Y-100266479D01*
X116127529Y-100268183D01*
X116135173Y-100274813D01*
X116145111Y-100284561D01*
X116147601Y-100285592D01*
X116149636Y-100287357D01*
X116163062Y-100293351D01*
X116305643Y-100339500D01*
X116315004Y-100343378D01*
X116318767Y-100343748D01*
X116320255Y-100344230D01*
X116322229Y-100344089D01*
X116329636Y-100344819D01*
X116424953Y-100343568D01*
X116434254Y-100344230D01*
X116437908Y-100343398D01*
X116439506Y-100343378D01*
X116441337Y-100342619D01*
X116448591Y-100340970D01*
X116580381Y-100295759D01*
X116582363Y-100295759D01*
X116591915Y-100291802D01*
X116604873Y-100287357D01*
X116606908Y-100285591D01*
X116609399Y-100284560D01*
X116620765Y-100275232D01*
X116677711Y-100216247D01*
X116688909Y-100189211D01*
X116688909Y-100159948D01*
X116677710Y-100132912D01*
X116657017Y-100112219D01*
X116629981Y-100101021D01*
X116600718Y-100101021D01*
X116573682Y-100112220D01*
X116562316Y-100121548D01*
X116528794Y-100156269D01*
X116416087Y-100194934D01*
X116344709Y-100195870D01*
X116228782Y-100158348D01*
X116154574Y-100085558D01*
X116115882Y-100010421D01*
X116071264Y-99836991D01*
X116070122Y-99712219D01*
X116112148Y-99539096D01*
X116150873Y-99459286D01*
X116225152Y-99383561D01*
X116338421Y-99344703D01*
X116409800Y-99343767D01*
X116525993Y-99381376D01*
X116573682Y-99427417D01*
X116600718Y-99438616D01*
X116629981Y-99438616D01*
X116657017Y-99427417D01*
X116677710Y-99406724D01*
X116688909Y-99379688D01*
X116688909Y-99350425D01*
X116677710Y-99323389D01*
X116668383Y-99312024D01*
X116627556Y-99272608D01*
X116626980Y-99271455D01*
X116620900Y-99266181D01*
X116609399Y-99255078D01*
X116606908Y-99254046D01*
X116604873Y-99252281D01*
X116591448Y-99246287D01*
X116448869Y-99200138D01*
X116439506Y-99196260D01*
X116435740Y-99195889D01*
X116434254Y-99195408D01*
X116432279Y-99195548D01*
X116424874Y-99194819D01*
X116329555Y-99196069D01*
X116320255Y-99195408D01*
X116316600Y-99196239D01*
X116315004Y-99196260D01*
X116313173Y-99197018D01*
X116305918Y-99198668D01*
X116174128Y-99243879D01*
X116172148Y-99243879D01*
X116162598Y-99247834D01*
X116149636Y-99252281D01*
X116147601Y-99254045D01*
X116145111Y-99255077D01*
X116133746Y-99264405D01*
X116039814Y-99360167D01*
X116032291Y-99366692D01*
X116030278Y-99369888D01*
X116029181Y-99371008D01*
X116028423Y-99372835D01*
X116024459Y-99379135D01*
X115980192Y-99470366D01*
X115976108Y-99475878D01*
X115972170Y-99486897D01*
X115971585Y-99488105D01*
X115971546Y-99488644D01*
X115971161Y-99489724D01*
X115925920Y-99676089D01*
X115922744Y-99683758D01*
X115921846Y-99692872D01*
X115921392Y-99694744D01*
X115921554Y-99695836D01*
X115921303Y-99698390D01*
X115598347Y-99698390D01*
X115449961Y-99255223D01*
X115449591Y-99250010D01*
X115445427Y-99241683D01*
X115442412Y-99232676D01*
X115438900Y-99228627D01*
X115436505Y-99223836D01*
X115429401Y-99217674D01*
X115423238Y-99210569D01*
X115418444Y-99208172D01*
X115414397Y-99204662D01*
X115405475Y-99201688D01*
X115397065Y-99197483D01*
X115391720Y-99197103D01*
X115386635Y-99195408D01*
X115377255Y-99196074D01*
X115367875Y-99195408D01*
X115362789Y-99197103D01*
X115357445Y-99197483D01*
X115349037Y-99201687D01*
X115340112Y-99204662D01*
X115336061Y-99208175D01*
X115331272Y-99210570D01*
X115325113Y-99217670D01*
X115318005Y-99223836D01*
X115315608Y-99228629D01*
X115312098Y-99232677D01*
X115306104Y-99246102D01*
X115067929Y-99963850D01*
X115065601Y-99969472D01*
X115065601Y-99970867D01*
X114969511Y-100260439D01*
X114858400Y-100260439D01*
X114858400Y-99036089D01*
X118849080Y-99036089D01*
X118849080Y-100694025D01*
G37*
G36*
X115512317Y-115209406D02*
G01*
X115242277Y-115210199D01*
X115376822Y-114804742D01*
X115512317Y-115209406D01*
G37*
G36*
X118849080Y-115994025D02*
G01*
X114858400Y-115994025D01*
X114858400Y-115807993D01*
X116826065Y-115807993D01*
X116831804Y-115836687D01*
X116848087Y-115861002D01*
X116872436Y-115877235D01*
X116901144Y-115882914D01*
X116929838Y-115877175D01*
X116954153Y-115860892D01*
X116963469Y-115849516D01*
X117814893Y-114569819D01*
X118016541Y-114569819D01*
X118017982Y-115584451D01*
X118029181Y-115611487D01*
X118049873Y-115632179D01*
X118076909Y-115643378D01*
X118106173Y-115643378D01*
X118133209Y-115632179D01*
X118153901Y-115611487D01*
X118165100Y-115584451D01*
X118166541Y-115569819D01*
X118165518Y-114849749D01*
X118596865Y-115602448D01*
X118600609Y-115611487D01*
X118603971Y-115614849D01*
X118606361Y-115619019D01*
X118614249Y-115625127D01*
X118621301Y-115632179D01*
X118625719Y-115634009D01*
X118629499Y-115636936D01*
X118639120Y-115639560D01*
X118648337Y-115643378D01*
X118653118Y-115643378D01*
X118657730Y-115644636D01*
X118667627Y-115643378D01*
X118677601Y-115643378D01*
X118682016Y-115641548D01*
X118686760Y-115640946D01*
X118695424Y-115635995D01*
X118704637Y-115632179D01*
X118708015Y-115628800D01*
X118712169Y-115626427D01*
X118718278Y-115618537D01*
X118725329Y-115611487D01*
X118727158Y-115607070D01*
X118730086Y-115603290D01*
X118732710Y-115593666D01*
X118736528Y-115584451D01*
X118737264Y-115576968D01*
X118737786Y-115575058D01*
X118737598Y-115573582D01*
X118737969Y-115569819D01*
X118736528Y-114555187D01*
X118725329Y-114528151D01*
X118704637Y-114507459D01*
X118677601Y-114496260D01*
X118648337Y-114496260D01*
X118621301Y-114507459D01*
X118600609Y-114528151D01*
X118589410Y-114555187D01*
X118587969Y-114569819D01*
X118588991Y-115289888D01*
X118157644Y-114537189D01*
X118153901Y-114528151D01*
X118150538Y-114524788D01*
X118148149Y-114520619D01*
X118140259Y-114514509D01*
X118133209Y-114507459D01*
X118128792Y-114505629D01*
X118125012Y-114502702D01*
X118115388Y-114500077D01*
X118106173Y-114496260D01*
X118101392Y-114496260D01*
X118096780Y-114495002D01*
X118086883Y-114496260D01*
X118076909Y-114496260D01*
X118072493Y-114498089D01*
X118067750Y-114498692D01*
X118059085Y-114503642D01*
X118049873Y-114507459D01*
X118046494Y-114510837D01*
X118042341Y-114513211D01*
X118036231Y-114521100D01*
X118029181Y-114528151D01*
X118027351Y-114532567D01*
X118024424Y-114536348D01*
X118021799Y-114545971D01*
X118017982Y-114555187D01*
X118017245Y-114562669D01*
X118016724Y-114564580D01*
X118016911Y-114566055D01*
X118016541Y-114569819D01*
X117814893Y-114569819D01*
X117827528Y-114550828D01*
X117833207Y-114522121D01*
X117827468Y-114493426D01*
X117811185Y-114469111D01*
X117786836Y-114452878D01*
X117758128Y-114447200D01*
X117729434Y-114452939D01*
X117705119Y-114469222D01*
X117695803Y-114480597D01*
X116831744Y-115779285D01*
X116826065Y-115807993D01*
X114858400Y-115807993D01*
X114858400Y-115560439D01*
X114969511Y-115560439D01*
X114971586Y-115589629D01*
X114984672Y-115615802D01*
X115006779Y-115634976D01*
X115034542Y-115644230D01*
X115063732Y-115642155D01*
X115089905Y-115629069D01*
X115109079Y-115606962D01*
X115115073Y-115593536D01*
X115192918Y-115358946D01*
X115562024Y-115357862D01*
X115645431Y-115606961D01*
X115664605Y-115629068D01*
X115690778Y-115642155D01*
X115719968Y-115644230D01*
X115747730Y-115634976D01*
X115769838Y-115615802D01*
X115782924Y-115589628D01*
X115784999Y-115560438D01*
X115781739Y-115546102D01*
X115598347Y-114998390D01*
X115921303Y-114998390D01*
X115922570Y-115136969D01*
X115921392Y-115144893D01*
X115922726Y-115153917D01*
X115922744Y-115155879D01*
X115923166Y-115156900D01*
X115923542Y-115159437D01*
X115971059Y-115344135D01*
X115971585Y-115351532D01*
X115975787Y-115362514D01*
X115976108Y-115363759D01*
X115976430Y-115364194D01*
X115976840Y-115365264D01*
X116025530Y-115459816D01*
X116029180Y-115468628D01*
X116031563Y-115471532D01*
X116032291Y-115472945D01*
X116033789Y-115474244D01*
X116038508Y-115479994D01*
X116126677Y-115566479D01*
X116127529Y-115568183D01*
X116135173Y-115574813D01*
X116145111Y-115584561D01*
X116147601Y-115585592D01*
X116149636Y-115587357D01*
X116163062Y-115593351D01*
X116305643Y-115639500D01*
X116315004Y-115643378D01*
X116318767Y-115643748D01*
X116320255Y-115644230D01*
X116322229Y-115644089D01*
X116329636Y-115644819D01*
X116424953Y-115643568D01*
X116434254Y-115644230D01*
X116437908Y-115643398D01*
X116439506Y-115643378D01*
X116441337Y-115642619D01*
X116448591Y-115640970D01*
X116580381Y-115595759D01*
X116582363Y-115595759D01*
X116591915Y-115591802D01*
X116604873Y-115587357D01*
X116606908Y-115585591D01*
X116609399Y-115584560D01*
X116620765Y-115575232D01*
X116677711Y-115516247D01*
X116688909Y-115489211D01*
X116688909Y-115459948D01*
X116677710Y-115432912D01*
X116657017Y-115412219D01*
X116629981Y-115401021D01*
X116600718Y-115401021D01*
X116573682Y-115412220D01*
X116562316Y-115421548D01*
X116528794Y-115456269D01*
X116416087Y-115494934D01*
X116344709Y-115495870D01*
X116228782Y-115458348D01*
X116154574Y-115385558D01*
X116115882Y-115310421D01*
X116071264Y-115136991D01*
X116070122Y-115012219D01*
X116112148Y-114839096D01*
X116150873Y-114759286D01*
X116225152Y-114683561D01*
X116338421Y-114644703D01*
X116409800Y-114643767D01*
X116525993Y-114681376D01*
X116573682Y-114727417D01*
X116600718Y-114738616D01*
X116629981Y-114738616D01*
X116657017Y-114727417D01*
X116677710Y-114706724D01*
X116688909Y-114679688D01*
X116688909Y-114650425D01*
X116677710Y-114623389D01*
X116668383Y-114612024D01*
X116627556Y-114572608D01*
X116626980Y-114571455D01*
X116620900Y-114566181D01*
X116609399Y-114555078D01*
X116606908Y-114554046D01*
X116604873Y-114552281D01*
X116591448Y-114546287D01*
X116448869Y-114500138D01*
X116439506Y-114496260D01*
X116435740Y-114495889D01*
X116434254Y-114495408D01*
X116432279Y-114495548D01*
X116424874Y-114494819D01*
X116329555Y-114496069D01*
X116320255Y-114495408D01*
X116316600Y-114496239D01*
X116315004Y-114496260D01*
X116313173Y-114497018D01*
X116305918Y-114498668D01*
X116174128Y-114543879D01*
X116172148Y-114543879D01*
X116162598Y-114547834D01*
X116149636Y-114552281D01*
X116147601Y-114554045D01*
X116145111Y-114555077D01*
X116133746Y-114564405D01*
X116039814Y-114660167D01*
X116032291Y-114666692D01*
X116030278Y-114669888D01*
X116029181Y-114671008D01*
X116028423Y-114672835D01*
X116024459Y-114679135D01*
X115980192Y-114770366D01*
X115976108Y-114775878D01*
X115972170Y-114786897D01*
X115971585Y-114788105D01*
X115971546Y-114788644D01*
X115971161Y-114789724D01*
X115925920Y-114976089D01*
X115922744Y-114983758D01*
X115921846Y-114992872D01*
X115921392Y-114994744D01*
X115921554Y-114995836D01*
X115921303Y-114998390D01*
X115598347Y-114998390D01*
X115449961Y-114555223D01*
X115449591Y-114550010D01*
X115445427Y-114541683D01*
X115442412Y-114532676D01*
X115438900Y-114528627D01*
X115436505Y-114523836D01*
X115429401Y-114517674D01*
X115423238Y-114510569D01*
X115418444Y-114508172D01*
X115414397Y-114504662D01*
X115405475Y-114501688D01*
X115397065Y-114497483D01*
X115391720Y-114497103D01*
X115386635Y-114495408D01*
X115377255Y-114496074D01*
X115367875Y-114495408D01*
X115362789Y-114497103D01*
X115357445Y-114497483D01*
X115349037Y-114501687D01*
X115340112Y-114504662D01*
X115336061Y-114508175D01*
X115331272Y-114510570D01*
X115325113Y-114517670D01*
X115318005Y-114523836D01*
X115315608Y-114528629D01*
X115312098Y-114532677D01*
X115306104Y-114546102D01*
X115067929Y-115263850D01*
X115065601Y-115269472D01*
X115065601Y-115270867D01*
X114969511Y-115560439D01*
X114858400Y-115560439D01*
X114858400Y-114336089D01*
X118849080Y-114336089D01*
X118849080Y-115994025D01*
G37*
G36*
X172890497Y-103855341D02*
G01*
X170758400Y-103855341D01*
X170758400Y-102679199D01*
X170869511Y-102679199D01*
X170872771Y-102693536D01*
X171204548Y-103684413D01*
X171204919Y-103689629D01*
X171209083Y-103697959D01*
X171212098Y-103706961D01*
X171215608Y-103711008D01*
X171218005Y-103715802D01*
X171225113Y-103721967D01*
X171231272Y-103729068D01*
X171236061Y-103731462D01*
X171240112Y-103734976D01*
X171249037Y-103737950D01*
X171257445Y-103742155D01*
X171262789Y-103742534D01*
X171267875Y-103744230D01*
X171277255Y-103743563D01*
X171286635Y-103744230D01*
X171291720Y-103742534D01*
X171297065Y-103742155D01*
X171305475Y-103737949D01*
X171314397Y-103734976D01*
X171318444Y-103731465D01*
X171323238Y-103729069D01*
X171329401Y-103721963D01*
X171336505Y-103715802D01*
X171338900Y-103711010D01*
X171342412Y-103706962D01*
X171348406Y-103693536D01*
X171477835Y-103303498D01*
X171870363Y-103303498D01*
X171881562Y-103330534D01*
X171902254Y-103351226D01*
X171929290Y-103362425D01*
X171943922Y-103363866D01*
X172250719Y-103363296D01*
X172251315Y-103684451D01*
X172262514Y-103711487D01*
X172283206Y-103732179D01*
X172310242Y-103743378D01*
X172339506Y-103743378D01*
X172366542Y-103732179D01*
X172387234Y-103711487D01*
X172398433Y-103684451D01*
X172399874Y-103669819D01*
X172399304Y-103363020D01*
X172720459Y-103362425D01*
X172747495Y-103351226D01*
X172768187Y-103330534D01*
X172779386Y-103303498D01*
X172779386Y-103274234D01*
X172768187Y-103247198D01*
X172747495Y-103226506D01*
X172720459Y-103215307D01*
X172705827Y-103213866D01*
X172399028Y-103214435D01*
X172398433Y-102893282D01*
X172387234Y-102866246D01*
X172366542Y-102845554D01*
X172339506Y-102834355D01*
X172310242Y-102834355D01*
X172283206Y-102845554D01*
X172262514Y-102866246D01*
X172251315Y-102893282D01*
X172249874Y-102907914D01*
X172250443Y-103214711D01*
X171929290Y-103215307D01*
X171902254Y-103226506D01*
X171881562Y-103247198D01*
X171870363Y-103274234D01*
X171870363Y-103303498D01*
X171477835Y-103303498D01*
X171684999Y-102679200D01*
X171682924Y-102650010D01*
X171669838Y-102623836D01*
X171647730Y-102604662D01*
X171619968Y-102595408D01*
X171590778Y-102597483D01*
X171564605Y-102610570D01*
X171545431Y-102632677D01*
X171539437Y-102646102D01*
X171277687Y-103434895D01*
X171009079Y-102632676D01*
X170989905Y-102610569D01*
X170963732Y-102597483D01*
X170934542Y-102595408D01*
X170906779Y-102604662D01*
X170884672Y-102623836D01*
X170871586Y-102650009D01*
X170869511Y-102679199D01*
X170758400Y-102679199D01*
X170758400Y-102484297D01*
X172890497Y-102484297D01*
X172890497Y-103855341D01*
G37*
G36*
X156440497Y-115855341D02*
G01*
X154308400Y-115855341D01*
X154308400Y-114679199D01*
X154419511Y-114679199D01*
X154422771Y-114693536D01*
X154754548Y-115684413D01*
X154754919Y-115689629D01*
X154759083Y-115697959D01*
X154762098Y-115706961D01*
X154765608Y-115711008D01*
X154768005Y-115715802D01*
X154775113Y-115721967D01*
X154781272Y-115729068D01*
X154786061Y-115731462D01*
X154790112Y-115734976D01*
X154799037Y-115737950D01*
X154807445Y-115742155D01*
X154812789Y-115742534D01*
X154817875Y-115744230D01*
X154827255Y-115743563D01*
X154836635Y-115744230D01*
X154841720Y-115742534D01*
X154847065Y-115742155D01*
X154855475Y-115737949D01*
X154864397Y-115734976D01*
X154868444Y-115731465D01*
X154873238Y-115729069D01*
X154879401Y-115721963D01*
X154886505Y-115715802D01*
X154888900Y-115711010D01*
X154892412Y-115706962D01*
X154898406Y-115693536D01*
X155027835Y-115303498D01*
X155420363Y-115303498D01*
X155431562Y-115330534D01*
X155452254Y-115351226D01*
X155479290Y-115362425D01*
X155493922Y-115363866D01*
X156270459Y-115362425D01*
X156297495Y-115351226D01*
X156318187Y-115330534D01*
X156329386Y-115303498D01*
X156329386Y-115274234D01*
X156318187Y-115247198D01*
X156297495Y-115226506D01*
X156270459Y-115215307D01*
X156255827Y-115213866D01*
X155479290Y-115215307D01*
X155452254Y-115226506D01*
X155431562Y-115247198D01*
X155420363Y-115274234D01*
X155420363Y-115303498D01*
X155027835Y-115303498D01*
X155234999Y-114679200D01*
X155232924Y-114650010D01*
X155219838Y-114623836D01*
X155197730Y-114604662D01*
X155169968Y-114595408D01*
X155140778Y-114597483D01*
X155114605Y-114610570D01*
X155095431Y-114632677D01*
X155089437Y-114646102D01*
X154827687Y-115434895D01*
X154559079Y-114632676D01*
X154539905Y-114610569D01*
X154513732Y-114597483D01*
X154484542Y-114595408D01*
X154456779Y-114604662D01*
X154434672Y-114623836D01*
X154421586Y-114650009D01*
X154419511Y-114679199D01*
X154308400Y-114679199D01*
X154308400Y-114484297D01*
X156440497Y-114484297D01*
X156440497Y-115855341D01*
G37*
G36*
X172940497Y-95005341D02*
G01*
X170808400Y-95005341D01*
X170808400Y-93829199D01*
X170919511Y-93829199D01*
X170922771Y-93843536D01*
X171254548Y-94834413D01*
X171254919Y-94839629D01*
X171259083Y-94847959D01*
X171262098Y-94856961D01*
X171265608Y-94861008D01*
X171268005Y-94865802D01*
X171275113Y-94871967D01*
X171281272Y-94879068D01*
X171286061Y-94881462D01*
X171290112Y-94884976D01*
X171299037Y-94887950D01*
X171307445Y-94892155D01*
X171312789Y-94892534D01*
X171317875Y-94894230D01*
X171327255Y-94893563D01*
X171336635Y-94894230D01*
X171341720Y-94892534D01*
X171347065Y-94892155D01*
X171355475Y-94887949D01*
X171364397Y-94884976D01*
X171368444Y-94881465D01*
X171373238Y-94879069D01*
X171379401Y-94871963D01*
X171386505Y-94865802D01*
X171388900Y-94861010D01*
X171392412Y-94856962D01*
X171398406Y-94843536D01*
X171527835Y-94453498D01*
X171920363Y-94453498D01*
X171931562Y-94480534D01*
X171952254Y-94501226D01*
X171979290Y-94512425D01*
X171993922Y-94513866D01*
X172770459Y-94512425D01*
X172797495Y-94501226D01*
X172818187Y-94480534D01*
X172829386Y-94453498D01*
X172829386Y-94424234D01*
X172818187Y-94397198D01*
X172797495Y-94376506D01*
X172770459Y-94365307D01*
X172755827Y-94363866D01*
X171979290Y-94365307D01*
X171952254Y-94376506D01*
X171931562Y-94397198D01*
X171920363Y-94424234D01*
X171920363Y-94453498D01*
X171527835Y-94453498D01*
X171734999Y-93829200D01*
X171732924Y-93800010D01*
X171719838Y-93773836D01*
X171697730Y-93754662D01*
X171669968Y-93745408D01*
X171640778Y-93747483D01*
X171614605Y-93760570D01*
X171595431Y-93782677D01*
X171589437Y-93796102D01*
X171327687Y-94584895D01*
X171059079Y-93782676D01*
X171039905Y-93760569D01*
X171013732Y-93747483D01*
X170984542Y-93745408D01*
X170956779Y-93754662D01*
X170934672Y-93773836D01*
X170921586Y-93800009D01*
X170919511Y-93829199D01*
X170808400Y-93829199D01*
X170808400Y-93634297D01*
X172940497Y-93634297D01*
X172940497Y-95005341D01*
G37*
X175885714Y-49054819D02*
X175885714Y-48054819D01*
X175885714Y-48054819D02*
X176266666Y-48054819D01*
X176266666Y-48054819D02*
X176361904Y-48102438D01*
X176361904Y-48102438D02*
X176409523Y-48150057D01*
X176409523Y-48150057D02*
X176457142Y-48245295D01*
X176457142Y-48245295D02*
X176457142Y-48388152D01*
X176457142Y-48388152D02*
X176409523Y-48483390D01*
X176409523Y-48483390D02*
X176361904Y-48531009D01*
X176361904Y-48531009D02*
X176266666Y-48578628D01*
X176266666Y-48578628D02*
X175885714Y-48578628D01*
X176838095Y-49007200D02*
X176980952Y-49054819D01*
X176980952Y-49054819D02*
X177219047Y-49054819D01*
X177219047Y-49054819D02*
X177314285Y-49007200D01*
X177314285Y-49007200D02*
X177361904Y-48959580D01*
X177361904Y-48959580D02*
X177409523Y-48864342D01*
X177409523Y-48864342D02*
X177409523Y-48769104D01*
X177409523Y-48769104D02*
X177361904Y-48673866D01*
X177361904Y-48673866D02*
X177314285Y-48626247D01*
X177314285Y-48626247D02*
X177219047Y-48578628D01*
X177219047Y-48578628D02*
X177028571Y-48531009D01*
X177028571Y-48531009D02*
X176933333Y-48483390D01*
X176933333Y-48483390D02*
X176885714Y-48435771D01*
X176885714Y-48435771D02*
X176838095Y-48340533D01*
X176838095Y-48340533D02*
X176838095Y-48245295D01*
X176838095Y-48245295D02*
X176885714Y-48150057D01*
X176885714Y-48150057D02*
X176933333Y-48102438D01*
X176933333Y-48102438D02*
X177028571Y-48054819D01*
X177028571Y-48054819D02*
X177266666Y-48054819D01*
X177266666Y-48054819D02*
X177409523Y-48102438D01*
X178361904Y-49054819D02*
X177790476Y-49054819D01*
X178076190Y-49054819D02*
X178076190Y-48054819D01*
X178076190Y-48054819D02*
X177980952Y-48197676D01*
X177980952Y-48197676D02*
X177885714Y-48292914D01*
X177885714Y-48292914D02*
X177790476Y-48340533D01*
G36*
X156390497Y-67455341D02*
G01*
X154258400Y-67455341D01*
X154258400Y-66279199D01*
X154369511Y-66279199D01*
X154372771Y-66293536D01*
X154704548Y-67284413D01*
X154704919Y-67289629D01*
X154709083Y-67297959D01*
X154712098Y-67306961D01*
X154715608Y-67311008D01*
X154718005Y-67315802D01*
X154725113Y-67321967D01*
X154731272Y-67329068D01*
X154736061Y-67331462D01*
X154740112Y-67334976D01*
X154749037Y-67337950D01*
X154757445Y-67342155D01*
X154762789Y-67342534D01*
X154767875Y-67344230D01*
X154777255Y-67343563D01*
X154786635Y-67344230D01*
X154791720Y-67342534D01*
X154797065Y-67342155D01*
X154805475Y-67337949D01*
X154814397Y-67334976D01*
X154818444Y-67331465D01*
X154823238Y-67329069D01*
X154829401Y-67321963D01*
X154836505Y-67315802D01*
X154838900Y-67311010D01*
X154842412Y-67306962D01*
X154848406Y-67293536D01*
X154977835Y-66903498D01*
X155370363Y-66903498D01*
X155381562Y-66930534D01*
X155402254Y-66951226D01*
X155429290Y-66962425D01*
X155443922Y-66963866D01*
X155750719Y-66963296D01*
X155751315Y-67284451D01*
X155762514Y-67311487D01*
X155783206Y-67332179D01*
X155810242Y-67343378D01*
X155839506Y-67343378D01*
X155866542Y-67332179D01*
X155887234Y-67311487D01*
X155898433Y-67284451D01*
X155899874Y-67269819D01*
X155899304Y-66963020D01*
X156220459Y-66962425D01*
X156247495Y-66951226D01*
X156268187Y-66930534D01*
X156279386Y-66903498D01*
X156279386Y-66874234D01*
X156268187Y-66847198D01*
X156247495Y-66826506D01*
X156220459Y-66815307D01*
X156205827Y-66813866D01*
X155899028Y-66814435D01*
X155898433Y-66493282D01*
X155887234Y-66466246D01*
X155866542Y-66445554D01*
X155839506Y-66434355D01*
X155810242Y-66434355D01*
X155783206Y-66445554D01*
X155762514Y-66466246D01*
X155751315Y-66493282D01*
X155749874Y-66507914D01*
X155750443Y-66814711D01*
X155429290Y-66815307D01*
X155402254Y-66826506D01*
X155381562Y-66847198D01*
X155370363Y-66874234D01*
X155370363Y-66903498D01*
X154977835Y-66903498D01*
X155184999Y-66279200D01*
X155182924Y-66250010D01*
X155169838Y-66223836D01*
X155147730Y-66204662D01*
X155119968Y-66195408D01*
X155090778Y-66197483D01*
X155064605Y-66210570D01*
X155045431Y-66232677D01*
X155039437Y-66246102D01*
X154777687Y-67034895D01*
X154509079Y-66232676D01*
X154489905Y-66210569D01*
X154463732Y-66197483D01*
X154434542Y-66195408D01*
X154406779Y-66204662D01*
X154384672Y-66223836D01*
X154371586Y-66250009D01*
X154369511Y-66279199D01*
X154258400Y-66279199D01*
X154258400Y-66084297D01*
X156390497Y-66084297D01*
X156390497Y-67455341D01*
G37*
G36*
X115562317Y-54159406D02*
G01*
X115292277Y-54160199D01*
X115426822Y-53754742D01*
X115562317Y-54159406D01*
G37*
G36*
X118802401Y-54944025D02*
G01*
X114908400Y-54944025D01*
X114908400Y-54757993D01*
X116876065Y-54757993D01*
X116881804Y-54786687D01*
X116898087Y-54811002D01*
X116922436Y-54827235D01*
X116951144Y-54832914D01*
X116979838Y-54827175D01*
X117004153Y-54810892D01*
X117013469Y-54799516D01*
X117864893Y-53519819D01*
X118066541Y-53519819D01*
X118067982Y-54534451D01*
X118079181Y-54561487D01*
X118099873Y-54582179D01*
X118126909Y-54593378D01*
X118141541Y-54594819D01*
X118632363Y-54593378D01*
X118659399Y-54582179D01*
X118680091Y-54561487D01*
X118691290Y-54534451D01*
X118691290Y-54505187D01*
X118680091Y-54478151D01*
X118659399Y-54457459D01*
X118632363Y-54446260D01*
X118617731Y-54444819D01*
X118216436Y-54445997D01*
X118215100Y-53505187D01*
X118203901Y-53478151D01*
X118183209Y-53457459D01*
X118156173Y-53446260D01*
X118126909Y-53446260D01*
X118099873Y-53457459D01*
X118079181Y-53478151D01*
X118067982Y-53505187D01*
X118066541Y-53519819D01*
X117864893Y-53519819D01*
X117877528Y-53500828D01*
X117883207Y-53472121D01*
X117877468Y-53443426D01*
X117861185Y-53419111D01*
X117836836Y-53402878D01*
X117808128Y-53397200D01*
X117779434Y-53402939D01*
X117755119Y-53419222D01*
X117745803Y-53430597D01*
X116881744Y-54729285D01*
X116876065Y-54757993D01*
X114908400Y-54757993D01*
X114908400Y-54510439D01*
X115019511Y-54510439D01*
X115021586Y-54539629D01*
X115034672Y-54565802D01*
X115056779Y-54584976D01*
X115084542Y-54594230D01*
X115113732Y-54592155D01*
X115139905Y-54579069D01*
X115159079Y-54556962D01*
X115165073Y-54543536D01*
X115242918Y-54308946D01*
X115612024Y-54307862D01*
X115695431Y-54556961D01*
X115714605Y-54579068D01*
X115740778Y-54592155D01*
X115769968Y-54594230D01*
X115797730Y-54584976D01*
X115819838Y-54565802D01*
X115832924Y-54539628D01*
X115834999Y-54510438D01*
X115831739Y-54496102D01*
X115648347Y-53948390D01*
X115971303Y-53948390D01*
X115972570Y-54086969D01*
X115971392Y-54094893D01*
X115972726Y-54103917D01*
X115972744Y-54105879D01*
X115973166Y-54106900D01*
X115973542Y-54109437D01*
X116021059Y-54294135D01*
X116021585Y-54301532D01*
X116025787Y-54312514D01*
X116026108Y-54313759D01*
X116026430Y-54314194D01*
X116026840Y-54315264D01*
X116075530Y-54409816D01*
X116079180Y-54418628D01*
X116081563Y-54421532D01*
X116082291Y-54422945D01*
X116083789Y-54424244D01*
X116088508Y-54429994D01*
X116176677Y-54516479D01*
X116177529Y-54518183D01*
X116185173Y-54524813D01*
X116195111Y-54534561D01*
X116197601Y-54535592D01*
X116199636Y-54537357D01*
X116213062Y-54543351D01*
X116355643Y-54589500D01*
X116365004Y-54593378D01*
X116368767Y-54593748D01*
X116370255Y-54594230D01*
X116372229Y-54594089D01*
X116379636Y-54594819D01*
X116474953Y-54593568D01*
X116484254Y-54594230D01*
X116487908Y-54593398D01*
X116489506Y-54593378D01*
X116491337Y-54592619D01*
X116498591Y-54590970D01*
X116630381Y-54545759D01*
X116632363Y-54545759D01*
X116641915Y-54541802D01*
X116654873Y-54537357D01*
X116656908Y-54535591D01*
X116659399Y-54534560D01*
X116670765Y-54525232D01*
X116727711Y-54466247D01*
X116738909Y-54439211D01*
X116738909Y-54409948D01*
X116727710Y-54382912D01*
X116707017Y-54362219D01*
X116679981Y-54351021D01*
X116650718Y-54351021D01*
X116623682Y-54362220D01*
X116612316Y-54371548D01*
X116578794Y-54406269D01*
X116466087Y-54444934D01*
X116394709Y-54445870D01*
X116278782Y-54408348D01*
X116204574Y-54335558D01*
X116165882Y-54260421D01*
X116121264Y-54086991D01*
X116120122Y-53962219D01*
X116162148Y-53789096D01*
X116200873Y-53709286D01*
X116275152Y-53633561D01*
X116388421Y-53594703D01*
X116459800Y-53593767D01*
X116575993Y-53631376D01*
X116623682Y-53677417D01*
X116650718Y-53688616D01*
X116679981Y-53688616D01*
X116707017Y-53677417D01*
X116727710Y-53656724D01*
X116738909Y-53629688D01*
X116738909Y-53600425D01*
X116727710Y-53573389D01*
X116718383Y-53562024D01*
X116677556Y-53522608D01*
X116676980Y-53521455D01*
X116670900Y-53516181D01*
X116659399Y-53505078D01*
X116656908Y-53504046D01*
X116654873Y-53502281D01*
X116641448Y-53496287D01*
X116498869Y-53450138D01*
X116489506Y-53446260D01*
X116485740Y-53445889D01*
X116484254Y-53445408D01*
X116482279Y-53445548D01*
X116474874Y-53444819D01*
X116379555Y-53446069D01*
X116370255Y-53445408D01*
X116366600Y-53446239D01*
X116365004Y-53446260D01*
X116363173Y-53447018D01*
X116355918Y-53448668D01*
X116224128Y-53493879D01*
X116222148Y-53493879D01*
X116212598Y-53497834D01*
X116199636Y-53502281D01*
X116197601Y-53504045D01*
X116195111Y-53505077D01*
X116183746Y-53514405D01*
X116089814Y-53610167D01*
X116082291Y-53616692D01*
X116080278Y-53619888D01*
X116079181Y-53621008D01*
X116078423Y-53622835D01*
X116074459Y-53629135D01*
X116030192Y-53720366D01*
X116026108Y-53725878D01*
X116022170Y-53736897D01*
X116021585Y-53738105D01*
X116021546Y-53738644D01*
X116021161Y-53739724D01*
X115975920Y-53926089D01*
X115972744Y-53933758D01*
X115971846Y-53942872D01*
X115971392Y-53944744D01*
X115971554Y-53945836D01*
X115971303Y-53948390D01*
X115648347Y-53948390D01*
X115499961Y-53505223D01*
X115499591Y-53500010D01*
X115495427Y-53491683D01*
X115492412Y-53482676D01*
X115488900Y-53478627D01*
X115486505Y-53473836D01*
X115479401Y-53467674D01*
X115473238Y-53460569D01*
X115468444Y-53458172D01*
X115464397Y-53454662D01*
X115455475Y-53451688D01*
X115447065Y-53447483D01*
X115441720Y-53447103D01*
X115436635Y-53445408D01*
X115427255Y-53446074D01*
X115417875Y-53445408D01*
X115412789Y-53447103D01*
X115407445Y-53447483D01*
X115399037Y-53451687D01*
X115390112Y-53454662D01*
X115386061Y-53458175D01*
X115381272Y-53460570D01*
X115375113Y-53467670D01*
X115368005Y-53473836D01*
X115365608Y-53478629D01*
X115362098Y-53482677D01*
X115356104Y-53496102D01*
X115117929Y-54213850D01*
X115115601Y-54219472D01*
X115115601Y-54220867D01*
X115019511Y-54510439D01*
X114908400Y-54510439D01*
X114908400Y-53286089D01*
X118802401Y-53286089D01*
X118802401Y-54944025D01*
G37*
G36*
X115512317Y-59659406D02*
G01*
X115242277Y-59660199D01*
X115376822Y-59254742D01*
X115512317Y-59659406D01*
G37*
G36*
X118849080Y-60444025D02*
G01*
X114858400Y-60444025D01*
X114858400Y-60257993D01*
X116826065Y-60257993D01*
X116831804Y-60286687D01*
X116848087Y-60311002D01*
X116872436Y-60327235D01*
X116901144Y-60332914D01*
X116929838Y-60327175D01*
X116954153Y-60310892D01*
X116963469Y-60299516D01*
X117814893Y-59019819D01*
X118016541Y-59019819D01*
X118017982Y-60034451D01*
X118029181Y-60061487D01*
X118049873Y-60082179D01*
X118076909Y-60093378D01*
X118106173Y-60093378D01*
X118133209Y-60082179D01*
X118153901Y-60061487D01*
X118165100Y-60034451D01*
X118166541Y-60019819D01*
X118165518Y-59299749D01*
X118596865Y-60052448D01*
X118600609Y-60061487D01*
X118603971Y-60064849D01*
X118606361Y-60069019D01*
X118614249Y-60075127D01*
X118621301Y-60082179D01*
X118625719Y-60084009D01*
X118629499Y-60086936D01*
X118639120Y-60089560D01*
X118648337Y-60093378D01*
X118653118Y-60093378D01*
X118657730Y-60094636D01*
X118667627Y-60093378D01*
X118677601Y-60093378D01*
X118682016Y-60091548D01*
X118686760Y-60090946D01*
X118695424Y-60085995D01*
X118704637Y-60082179D01*
X118708015Y-60078800D01*
X118712169Y-60076427D01*
X118718278Y-60068537D01*
X118725329Y-60061487D01*
X118727158Y-60057070D01*
X118730086Y-60053290D01*
X118732710Y-60043666D01*
X118736528Y-60034451D01*
X118737264Y-60026968D01*
X118737786Y-60025058D01*
X118737598Y-60023582D01*
X118737969Y-60019819D01*
X118736528Y-59005187D01*
X118725329Y-58978151D01*
X118704637Y-58957459D01*
X118677601Y-58946260D01*
X118648337Y-58946260D01*
X118621301Y-58957459D01*
X118600609Y-58978151D01*
X118589410Y-59005187D01*
X118587969Y-59019819D01*
X118588991Y-59739888D01*
X118157644Y-58987189D01*
X118153901Y-58978151D01*
X118150538Y-58974788D01*
X118148149Y-58970619D01*
X118140259Y-58964509D01*
X118133209Y-58957459D01*
X118128792Y-58955629D01*
X118125012Y-58952702D01*
X118115388Y-58950077D01*
X118106173Y-58946260D01*
X118101392Y-58946260D01*
X118096780Y-58945002D01*
X118086883Y-58946260D01*
X118076909Y-58946260D01*
X118072493Y-58948089D01*
X118067750Y-58948692D01*
X118059085Y-58953642D01*
X118049873Y-58957459D01*
X118046494Y-58960837D01*
X118042341Y-58963211D01*
X118036231Y-58971100D01*
X118029181Y-58978151D01*
X118027351Y-58982567D01*
X118024424Y-58986348D01*
X118021799Y-58995971D01*
X118017982Y-59005187D01*
X118017245Y-59012669D01*
X118016724Y-59014580D01*
X118016911Y-59016055D01*
X118016541Y-59019819D01*
X117814893Y-59019819D01*
X117827528Y-59000828D01*
X117833207Y-58972121D01*
X117827468Y-58943426D01*
X117811185Y-58919111D01*
X117786836Y-58902878D01*
X117758128Y-58897200D01*
X117729434Y-58902939D01*
X117705119Y-58919222D01*
X117695803Y-58930597D01*
X116831744Y-60229285D01*
X116826065Y-60257993D01*
X114858400Y-60257993D01*
X114858400Y-60010439D01*
X114969511Y-60010439D01*
X114971586Y-60039629D01*
X114984672Y-60065802D01*
X115006779Y-60084976D01*
X115034542Y-60094230D01*
X115063732Y-60092155D01*
X115089905Y-60079069D01*
X115109079Y-60056962D01*
X115115073Y-60043536D01*
X115192918Y-59808946D01*
X115562024Y-59807862D01*
X115645431Y-60056961D01*
X115664605Y-60079068D01*
X115690778Y-60092155D01*
X115719968Y-60094230D01*
X115747730Y-60084976D01*
X115769838Y-60065802D01*
X115782924Y-60039628D01*
X115784999Y-60010438D01*
X115781739Y-59996102D01*
X115598347Y-59448390D01*
X115921303Y-59448390D01*
X115922570Y-59586969D01*
X115921392Y-59594893D01*
X115922726Y-59603917D01*
X115922744Y-59605879D01*
X115923166Y-59606900D01*
X115923542Y-59609437D01*
X115971059Y-59794135D01*
X115971585Y-59801532D01*
X115975787Y-59812514D01*
X115976108Y-59813759D01*
X115976430Y-59814194D01*
X115976840Y-59815264D01*
X116025530Y-59909816D01*
X116029180Y-59918628D01*
X116031563Y-59921532D01*
X116032291Y-59922945D01*
X116033789Y-59924244D01*
X116038508Y-59929994D01*
X116126677Y-60016479D01*
X116127529Y-60018183D01*
X116135173Y-60024813D01*
X116145111Y-60034561D01*
X116147601Y-60035592D01*
X116149636Y-60037357D01*
X116163062Y-60043351D01*
X116305643Y-60089500D01*
X116315004Y-60093378D01*
X116318767Y-60093748D01*
X116320255Y-60094230D01*
X116322229Y-60094089D01*
X116329636Y-60094819D01*
X116424953Y-60093568D01*
X116434254Y-60094230D01*
X116437908Y-60093398D01*
X116439506Y-60093378D01*
X116441337Y-60092619D01*
X116448591Y-60090970D01*
X116580381Y-60045759D01*
X116582363Y-60045759D01*
X116591915Y-60041802D01*
X116604873Y-60037357D01*
X116606908Y-60035591D01*
X116609399Y-60034560D01*
X116620765Y-60025232D01*
X116677711Y-59966247D01*
X116688909Y-59939211D01*
X116688909Y-59909948D01*
X116677710Y-59882912D01*
X116657017Y-59862219D01*
X116629981Y-59851021D01*
X116600718Y-59851021D01*
X116573682Y-59862220D01*
X116562316Y-59871548D01*
X116528794Y-59906269D01*
X116416087Y-59944934D01*
X116344709Y-59945870D01*
X116228782Y-59908348D01*
X116154574Y-59835558D01*
X116115882Y-59760421D01*
X116071264Y-59586991D01*
X116070122Y-59462219D01*
X116112148Y-59289096D01*
X116150873Y-59209286D01*
X116225152Y-59133561D01*
X116338421Y-59094703D01*
X116409800Y-59093767D01*
X116525993Y-59131376D01*
X116573682Y-59177417D01*
X116600718Y-59188616D01*
X116629981Y-59188616D01*
X116657017Y-59177417D01*
X116677710Y-59156724D01*
X116688909Y-59129688D01*
X116688909Y-59100425D01*
X116677710Y-59073389D01*
X116668383Y-59062024D01*
X116627556Y-59022608D01*
X116626980Y-59021455D01*
X116620900Y-59016181D01*
X116609399Y-59005078D01*
X116606908Y-59004046D01*
X116604873Y-59002281D01*
X116591448Y-58996287D01*
X116448869Y-58950138D01*
X116439506Y-58946260D01*
X116435740Y-58945889D01*
X116434254Y-58945408D01*
X116432279Y-58945548D01*
X116424874Y-58944819D01*
X116329555Y-58946069D01*
X116320255Y-58945408D01*
X116316600Y-58946239D01*
X116315004Y-58946260D01*
X116313173Y-58947018D01*
X116305918Y-58948668D01*
X116174128Y-58993879D01*
X116172148Y-58993879D01*
X116162598Y-58997834D01*
X116149636Y-59002281D01*
X116147601Y-59004045D01*
X116145111Y-59005077D01*
X116133746Y-59014405D01*
X116039814Y-59110167D01*
X116032291Y-59116692D01*
X116030278Y-59119888D01*
X116029181Y-59121008D01*
X116028423Y-59122835D01*
X116024459Y-59129135D01*
X115980192Y-59220366D01*
X115976108Y-59225878D01*
X115972170Y-59236897D01*
X115971585Y-59238105D01*
X115971546Y-59238644D01*
X115971161Y-59239724D01*
X115925920Y-59426089D01*
X115922744Y-59433758D01*
X115921846Y-59442872D01*
X115921392Y-59444744D01*
X115921554Y-59445836D01*
X115921303Y-59448390D01*
X115598347Y-59448390D01*
X115449961Y-59005223D01*
X115449591Y-59000010D01*
X115445427Y-58991683D01*
X115442412Y-58982676D01*
X115438900Y-58978627D01*
X115436505Y-58973836D01*
X115429401Y-58967674D01*
X115423238Y-58960569D01*
X115418444Y-58958172D01*
X115414397Y-58954662D01*
X115405475Y-58951688D01*
X115397065Y-58947483D01*
X115391720Y-58947103D01*
X115386635Y-58945408D01*
X115377255Y-58946074D01*
X115367875Y-58945408D01*
X115362789Y-58947103D01*
X115357445Y-58947483D01*
X115349037Y-58951687D01*
X115340112Y-58954662D01*
X115336061Y-58958175D01*
X115331272Y-58960570D01*
X115325113Y-58967670D01*
X115318005Y-58973836D01*
X115315608Y-58978629D01*
X115312098Y-58982677D01*
X115306104Y-58996102D01*
X115067929Y-59713850D01*
X115065601Y-59719472D01*
X115065601Y-59720867D01*
X114969511Y-60010439D01*
X114858400Y-60010439D01*
X114858400Y-58786089D01*
X118849080Y-58786089D01*
X118849080Y-60444025D01*
G37*
G36*
X115512317Y-74959406D02*
G01*
X115242277Y-74960199D01*
X115376822Y-74554742D01*
X115512317Y-74959406D01*
G37*
G36*
X118849080Y-75744025D02*
G01*
X114858400Y-75744025D01*
X114858400Y-75557993D01*
X116826065Y-75557993D01*
X116831804Y-75586687D01*
X116848087Y-75611002D01*
X116872436Y-75627235D01*
X116901144Y-75632914D01*
X116929838Y-75627175D01*
X116954153Y-75610892D01*
X116963469Y-75599516D01*
X117814893Y-74319819D01*
X118016541Y-74319819D01*
X118017982Y-75334451D01*
X118029181Y-75361487D01*
X118049873Y-75382179D01*
X118076909Y-75393378D01*
X118106173Y-75393378D01*
X118133209Y-75382179D01*
X118153901Y-75361487D01*
X118165100Y-75334451D01*
X118166541Y-75319819D01*
X118165518Y-74599749D01*
X118596865Y-75352448D01*
X118600609Y-75361487D01*
X118603971Y-75364849D01*
X118606361Y-75369019D01*
X118614249Y-75375127D01*
X118621301Y-75382179D01*
X118625719Y-75384009D01*
X118629499Y-75386936D01*
X118639120Y-75389560D01*
X118648337Y-75393378D01*
X118653118Y-75393378D01*
X118657730Y-75394636D01*
X118667627Y-75393378D01*
X118677601Y-75393378D01*
X118682016Y-75391548D01*
X118686760Y-75390946D01*
X118695424Y-75385995D01*
X118704637Y-75382179D01*
X118708015Y-75378800D01*
X118712169Y-75376427D01*
X118718278Y-75368537D01*
X118725329Y-75361487D01*
X118727158Y-75357070D01*
X118730086Y-75353290D01*
X118732710Y-75343666D01*
X118736528Y-75334451D01*
X118737264Y-75326968D01*
X118737786Y-75325058D01*
X118737598Y-75323582D01*
X118737969Y-75319819D01*
X118736528Y-74305187D01*
X118725329Y-74278151D01*
X118704637Y-74257459D01*
X118677601Y-74246260D01*
X118648337Y-74246260D01*
X118621301Y-74257459D01*
X118600609Y-74278151D01*
X118589410Y-74305187D01*
X118587969Y-74319819D01*
X118588991Y-75039888D01*
X118157644Y-74287189D01*
X118153901Y-74278151D01*
X118150538Y-74274788D01*
X118148149Y-74270619D01*
X118140259Y-74264509D01*
X118133209Y-74257459D01*
X118128792Y-74255629D01*
X118125012Y-74252702D01*
X118115388Y-74250077D01*
X118106173Y-74246260D01*
X118101392Y-74246260D01*
X118096780Y-74245002D01*
X118086883Y-74246260D01*
X118076909Y-74246260D01*
X118072493Y-74248089D01*
X118067750Y-74248692D01*
X118059085Y-74253642D01*
X118049873Y-74257459D01*
X118046494Y-74260837D01*
X118042341Y-74263211D01*
X118036231Y-74271100D01*
X118029181Y-74278151D01*
X118027351Y-74282567D01*
X118024424Y-74286348D01*
X118021799Y-74295971D01*
X118017982Y-74305187D01*
X118017245Y-74312669D01*
X118016724Y-74314580D01*
X118016911Y-74316055D01*
X118016541Y-74319819D01*
X117814893Y-74319819D01*
X117827528Y-74300828D01*
X117833207Y-74272121D01*
X117827468Y-74243426D01*
X117811185Y-74219111D01*
X117786836Y-74202878D01*
X117758128Y-74197200D01*
X117729434Y-74202939D01*
X117705119Y-74219222D01*
X117695803Y-74230597D01*
X116831744Y-75529285D01*
X116826065Y-75557993D01*
X114858400Y-75557993D01*
X114858400Y-75310439D01*
X114969511Y-75310439D01*
X114971586Y-75339629D01*
X114984672Y-75365802D01*
X115006779Y-75384976D01*
X115034542Y-75394230D01*
X115063732Y-75392155D01*
X115089905Y-75379069D01*
X115109079Y-75356962D01*
X115115073Y-75343536D01*
X115192918Y-75108946D01*
X115562024Y-75107862D01*
X115645431Y-75356961D01*
X115664605Y-75379068D01*
X115690778Y-75392155D01*
X115719968Y-75394230D01*
X115747730Y-75384976D01*
X115769838Y-75365802D01*
X115782924Y-75339628D01*
X115784999Y-75310438D01*
X115781739Y-75296102D01*
X115598347Y-74748390D01*
X115921303Y-74748390D01*
X115922570Y-74886969D01*
X115921392Y-74894893D01*
X115922726Y-74903917D01*
X115922744Y-74905879D01*
X115923166Y-74906900D01*
X115923542Y-74909437D01*
X115971059Y-75094135D01*
X115971585Y-75101532D01*
X115975787Y-75112514D01*
X115976108Y-75113759D01*
X115976430Y-75114194D01*
X115976840Y-75115264D01*
X116025530Y-75209816D01*
X116029180Y-75218628D01*
X116031563Y-75221532D01*
X116032291Y-75222945D01*
X116033789Y-75224244D01*
X116038508Y-75229994D01*
X116126677Y-75316479D01*
X116127529Y-75318183D01*
X116135173Y-75324813D01*
X116145111Y-75334561D01*
X116147601Y-75335592D01*
X116149636Y-75337357D01*
X116163062Y-75343351D01*
X116305643Y-75389500D01*
X116315004Y-75393378D01*
X116318767Y-75393748D01*
X116320255Y-75394230D01*
X116322229Y-75394089D01*
X116329636Y-75394819D01*
X116424953Y-75393568D01*
X116434254Y-75394230D01*
X116437908Y-75393398D01*
X116439506Y-75393378D01*
X116441337Y-75392619D01*
X116448591Y-75390970D01*
X116580381Y-75345759D01*
X116582363Y-75345759D01*
X116591915Y-75341802D01*
X116604873Y-75337357D01*
X116606908Y-75335591D01*
X116609399Y-75334560D01*
X116620765Y-75325232D01*
X116677711Y-75266247D01*
X116688909Y-75239211D01*
X116688909Y-75209948D01*
X116677710Y-75182912D01*
X116657017Y-75162219D01*
X116629981Y-75151021D01*
X116600718Y-75151021D01*
X116573682Y-75162220D01*
X116562316Y-75171548D01*
X116528794Y-75206269D01*
X116416087Y-75244934D01*
X116344709Y-75245870D01*
X116228782Y-75208348D01*
X116154574Y-75135558D01*
X116115882Y-75060421D01*
X116071264Y-74886991D01*
X116070122Y-74762219D01*
X116112148Y-74589096D01*
X116150873Y-74509286D01*
X116225152Y-74433561D01*
X116338421Y-74394703D01*
X116409800Y-74393767D01*
X116525993Y-74431376D01*
X116573682Y-74477417D01*
X116600718Y-74488616D01*
X116629981Y-74488616D01*
X116657017Y-74477417D01*
X116677710Y-74456724D01*
X116688909Y-74429688D01*
X116688909Y-74400425D01*
X116677710Y-74373389D01*
X116668383Y-74362024D01*
X116627556Y-74322608D01*
X116626980Y-74321455D01*
X116620900Y-74316181D01*
X116609399Y-74305078D01*
X116606908Y-74304046D01*
X116604873Y-74302281D01*
X116591448Y-74296287D01*
X116448869Y-74250138D01*
X116439506Y-74246260D01*
X116435740Y-74245889D01*
X116434254Y-74245408D01*
X116432279Y-74245548D01*
X116424874Y-74244819D01*
X116329555Y-74246069D01*
X116320255Y-74245408D01*
X116316600Y-74246239D01*
X116315004Y-74246260D01*
X116313173Y-74247018D01*
X116305918Y-74248668D01*
X116174128Y-74293879D01*
X116172148Y-74293879D01*
X116162598Y-74297834D01*
X116149636Y-74302281D01*
X116147601Y-74304045D01*
X116145111Y-74305077D01*
X116133746Y-74314405D01*
X116039814Y-74410167D01*
X116032291Y-74416692D01*
X116030278Y-74419888D01*
X116029181Y-74421008D01*
X116028423Y-74422835D01*
X116024459Y-74429135D01*
X115980192Y-74520366D01*
X115976108Y-74525878D01*
X115972170Y-74536897D01*
X115971585Y-74538105D01*
X115971546Y-74538644D01*
X115971161Y-74539724D01*
X115925920Y-74726089D01*
X115922744Y-74733758D01*
X115921846Y-74742872D01*
X115921392Y-74744744D01*
X115921554Y-74745836D01*
X115921303Y-74748390D01*
X115598347Y-74748390D01*
X115449961Y-74305223D01*
X115449591Y-74300010D01*
X115445427Y-74291683D01*
X115442412Y-74282676D01*
X115438900Y-74278627D01*
X115436505Y-74273836D01*
X115429401Y-74267674D01*
X115423238Y-74260569D01*
X115418444Y-74258172D01*
X115414397Y-74254662D01*
X115405475Y-74251688D01*
X115397065Y-74247483D01*
X115391720Y-74247103D01*
X115386635Y-74245408D01*
X115377255Y-74246074D01*
X115367875Y-74245408D01*
X115362789Y-74247103D01*
X115357445Y-74247483D01*
X115349037Y-74251687D01*
X115340112Y-74254662D01*
X115336061Y-74258175D01*
X115331272Y-74260570D01*
X115325113Y-74267670D01*
X115318005Y-74273836D01*
X115315608Y-74278629D01*
X115312098Y-74282677D01*
X115306104Y-74296102D01*
X115067929Y-75013850D01*
X115065601Y-75019472D01*
X115065601Y-75020867D01*
X114969511Y-75310439D01*
X114858400Y-75310439D01*
X114858400Y-74086089D01*
X118849080Y-74086089D01*
X118849080Y-75744025D01*
G37*
G36*
X172890497Y-63605341D02*
G01*
X170758400Y-63605341D01*
X170758400Y-62429199D01*
X170869511Y-62429199D01*
X170872771Y-62443536D01*
X171204548Y-63434413D01*
X171204919Y-63439629D01*
X171209083Y-63447959D01*
X171212098Y-63456961D01*
X171215608Y-63461008D01*
X171218005Y-63465802D01*
X171225113Y-63471967D01*
X171231272Y-63479068D01*
X171236061Y-63481462D01*
X171240112Y-63484976D01*
X171249037Y-63487950D01*
X171257445Y-63492155D01*
X171262789Y-63492534D01*
X171267875Y-63494230D01*
X171277255Y-63493563D01*
X171286635Y-63494230D01*
X171291720Y-63492534D01*
X171297065Y-63492155D01*
X171305475Y-63487949D01*
X171314397Y-63484976D01*
X171318444Y-63481465D01*
X171323238Y-63479069D01*
X171329401Y-63471963D01*
X171336505Y-63465802D01*
X171338900Y-63461010D01*
X171342412Y-63456962D01*
X171348406Y-63443536D01*
X171477835Y-63053498D01*
X171870363Y-63053498D01*
X171881562Y-63080534D01*
X171902254Y-63101226D01*
X171929290Y-63112425D01*
X171943922Y-63113866D01*
X172250719Y-63113296D01*
X172251315Y-63434451D01*
X172262514Y-63461487D01*
X172283206Y-63482179D01*
X172310242Y-63493378D01*
X172339506Y-63493378D01*
X172366542Y-63482179D01*
X172387234Y-63461487D01*
X172398433Y-63434451D01*
X172399874Y-63419819D01*
X172399304Y-63113020D01*
X172720459Y-63112425D01*
X172747495Y-63101226D01*
X172768187Y-63080534D01*
X172779386Y-63053498D01*
X172779386Y-63024234D01*
X172768187Y-62997198D01*
X172747495Y-62976506D01*
X172720459Y-62965307D01*
X172705827Y-62963866D01*
X172399028Y-62964435D01*
X172398433Y-62643282D01*
X172387234Y-62616246D01*
X172366542Y-62595554D01*
X172339506Y-62584355D01*
X172310242Y-62584355D01*
X172283206Y-62595554D01*
X172262514Y-62616246D01*
X172251315Y-62643282D01*
X172249874Y-62657914D01*
X172250443Y-62964711D01*
X171929290Y-62965307D01*
X171902254Y-62976506D01*
X171881562Y-62997198D01*
X171870363Y-63024234D01*
X171870363Y-63053498D01*
X171477835Y-63053498D01*
X171684999Y-62429200D01*
X171682924Y-62400010D01*
X171669838Y-62373836D01*
X171647730Y-62354662D01*
X171619968Y-62345408D01*
X171590778Y-62347483D01*
X171564605Y-62360570D01*
X171545431Y-62382677D01*
X171539437Y-62396102D01*
X171277687Y-63184895D01*
X171009079Y-62382676D01*
X170989905Y-62360569D01*
X170963732Y-62347483D01*
X170934542Y-62345408D01*
X170906779Y-62354662D01*
X170884672Y-62373836D01*
X170871586Y-62400009D01*
X170869511Y-62429199D01*
X170758400Y-62429199D01*
X170758400Y-62234297D01*
X172890497Y-62234297D01*
X172890497Y-63605341D01*
G37*
G36*
X156440497Y-75605341D02*
G01*
X154308400Y-75605341D01*
X154308400Y-74429199D01*
X154419511Y-74429199D01*
X154422771Y-74443536D01*
X154754548Y-75434413D01*
X154754919Y-75439629D01*
X154759083Y-75447959D01*
X154762098Y-75456961D01*
X154765608Y-75461008D01*
X154768005Y-75465802D01*
X154775113Y-75471967D01*
X154781272Y-75479068D01*
X154786061Y-75481462D01*
X154790112Y-75484976D01*
X154799037Y-75487950D01*
X154807445Y-75492155D01*
X154812789Y-75492534D01*
X154817875Y-75494230D01*
X154827255Y-75493563D01*
X154836635Y-75494230D01*
X154841720Y-75492534D01*
X154847065Y-75492155D01*
X154855475Y-75487949D01*
X154864397Y-75484976D01*
X154868444Y-75481465D01*
X154873238Y-75479069D01*
X154879401Y-75471963D01*
X154886505Y-75465802D01*
X154888900Y-75461010D01*
X154892412Y-75456962D01*
X154898406Y-75443536D01*
X155027835Y-75053498D01*
X155420363Y-75053498D01*
X155431562Y-75080534D01*
X155452254Y-75101226D01*
X155479290Y-75112425D01*
X155493922Y-75113866D01*
X156270459Y-75112425D01*
X156297495Y-75101226D01*
X156318187Y-75080534D01*
X156329386Y-75053498D01*
X156329386Y-75024234D01*
X156318187Y-74997198D01*
X156297495Y-74976506D01*
X156270459Y-74965307D01*
X156255827Y-74963866D01*
X155479290Y-74965307D01*
X155452254Y-74976506D01*
X155431562Y-74997198D01*
X155420363Y-75024234D01*
X155420363Y-75053498D01*
X155027835Y-75053498D01*
X155234999Y-74429200D01*
X155232924Y-74400010D01*
X155219838Y-74373836D01*
X155197730Y-74354662D01*
X155169968Y-74345408D01*
X155140778Y-74347483D01*
X155114605Y-74360570D01*
X155095431Y-74382677D01*
X155089437Y-74396102D01*
X154827687Y-75184895D01*
X154559079Y-74382676D01*
X154539905Y-74360569D01*
X154513732Y-74347483D01*
X154484542Y-74345408D01*
X154456779Y-74354662D01*
X154434672Y-74373836D01*
X154421586Y-74400009D01*
X154419511Y-74429199D01*
X154308400Y-74429199D01*
X154308400Y-74234297D01*
X156440497Y-74234297D01*
X156440497Y-75605341D01*
G37*
G36*
X172940497Y-54755341D02*
G01*
X170808400Y-54755341D01*
X170808400Y-53579199D01*
X170919511Y-53579199D01*
X170922771Y-53593536D01*
X171254548Y-54584413D01*
X171254919Y-54589629D01*
X171259083Y-54597959D01*
X171262098Y-54606961D01*
X171265608Y-54611008D01*
X171268005Y-54615802D01*
X171275113Y-54621967D01*
X171281272Y-54629068D01*
X171286061Y-54631462D01*
X171290112Y-54634976D01*
X171299037Y-54637950D01*
X171307445Y-54642155D01*
X171312789Y-54642534D01*
X171317875Y-54644230D01*
X171327255Y-54643563D01*
X171336635Y-54644230D01*
X171341720Y-54642534D01*
X171347065Y-54642155D01*
X171355475Y-54637949D01*
X171364397Y-54634976D01*
X171368444Y-54631465D01*
X171373238Y-54629069D01*
X171379401Y-54621963D01*
X171386505Y-54615802D01*
X171388900Y-54611010D01*
X171392412Y-54606962D01*
X171398406Y-54593536D01*
X171527835Y-54203498D01*
X171920363Y-54203498D01*
X171931562Y-54230534D01*
X171952254Y-54251226D01*
X171979290Y-54262425D01*
X171993922Y-54263866D01*
X172770459Y-54262425D01*
X172797495Y-54251226D01*
X172818187Y-54230534D01*
X172829386Y-54203498D01*
X172829386Y-54174234D01*
X172818187Y-54147198D01*
X172797495Y-54126506D01*
X172770459Y-54115307D01*
X172755827Y-54113866D01*
X171979290Y-54115307D01*
X171952254Y-54126506D01*
X171931562Y-54147198D01*
X171920363Y-54174234D01*
X171920363Y-54203498D01*
X171527835Y-54203498D01*
X171734999Y-53579200D01*
X171732924Y-53550010D01*
X171719838Y-53523836D01*
X171697730Y-53504662D01*
X171669968Y-53495408D01*
X171640778Y-53497483D01*
X171614605Y-53510570D01*
X171595431Y-53532677D01*
X171589437Y-53546102D01*
X171327687Y-54334895D01*
X171059079Y-53532676D01*
X171039905Y-53510569D01*
X171013732Y-53497483D01*
X170984542Y-53495408D01*
X170956779Y-53504662D01*
X170934672Y-53523836D01*
X170921586Y-53550009D01*
X170919511Y-53579199D01*
X170808400Y-53579199D01*
X170808400Y-53384297D01*
X172940497Y-53384297D01*
X172940497Y-54755341D01*
G37*
X178954819Y-109183333D02*
X179669104Y-109183333D01*
X179669104Y-109183333D02*
X179811961Y-109230952D01*
X179811961Y-109230952D02*
X179907200Y-109326190D01*
X179907200Y-109326190D02*
X179954819Y-109469047D01*
X179954819Y-109469047D02*
X179954819Y-109564285D01*
X178954819Y-108230952D02*
X178954819Y-108707142D01*
X178954819Y-108707142D02*
X179431009Y-108754761D01*
X179431009Y-108754761D02*
X179383390Y-108707142D01*
X179383390Y-108707142D02*
X179335771Y-108611904D01*
X179335771Y-108611904D02*
X179335771Y-108373809D01*
X179335771Y-108373809D02*
X179383390Y-108278571D01*
X179383390Y-108278571D02*
X179431009Y-108230952D01*
X179431009Y-108230952D02*
X179526247Y-108183333D01*
X179526247Y-108183333D02*
X179764342Y-108183333D01*
X179764342Y-108183333D02*
X179859580Y-108230952D01*
X179859580Y-108230952D02*
X179907200Y-108278571D01*
X179907200Y-108278571D02*
X179954819Y-108373809D01*
X179954819Y-108373809D02*
X179954819Y-108611904D01*
X179954819Y-108611904D02*
X179907200Y-108707142D01*
X179907200Y-108707142D02*
X179859580Y-108754761D01*
X179354819Y-64283333D02*
X180069104Y-64283333D01*
X180069104Y-64283333D02*
X180211961Y-64330952D01*
X180211961Y-64330952D02*
X180307200Y-64426190D01*
X180307200Y-64426190D02*
X180354819Y-64569047D01*
X180354819Y-64569047D02*
X180354819Y-64664285D01*
X179688152Y-63378571D02*
X180354819Y-63378571D01*
X179307200Y-63616666D02*
X180021485Y-63854761D01*
X180021485Y-63854761D02*
X180021485Y-63235714D01*
X181966666Y-85049819D02*
X181966666Y-85764104D01*
X181966666Y-85764104D02*
X181919047Y-85906961D01*
X181919047Y-85906961D02*
X181823809Y-86002200D01*
X181823809Y-86002200D02*
X181680952Y-86049819D01*
X181680952Y-86049819D02*
X181585714Y-86049819D01*
X182347619Y-85049819D02*
X182966666Y-85049819D01*
X182966666Y-85049819D02*
X182633333Y-85430771D01*
X182633333Y-85430771D02*
X182776190Y-85430771D01*
X182776190Y-85430771D02*
X182871428Y-85478390D01*
X182871428Y-85478390D02*
X182919047Y-85526009D01*
X182919047Y-85526009D02*
X182966666Y-85621247D01*
X182966666Y-85621247D02*
X182966666Y-85859342D01*
X182966666Y-85859342D02*
X182919047Y-85954580D01*
X182919047Y-85954580D02*
X182871428Y-86002200D01*
X182871428Y-86002200D02*
X182776190Y-86049819D01*
X182776190Y-86049819D02*
X182490476Y-86049819D01*
X182490476Y-86049819D02*
X182395238Y-86002200D01*
X182395238Y-86002200D02*
X182347619Y-85954580D01*
D13*
%TO.C,PS2*%
X109630000Y-90980000D02*
X109630000Y-118420000D01*
X109630000Y-90980000D02*
X162270000Y-90980000D01*
X109630000Y-118420000D02*
X162270000Y-118420000D01*
X114150000Y-90650000D02*
X112150000Y-90650000D01*
X162270000Y-90980000D02*
X162270000Y-118420000D01*
X109150000Y-89800000D02*
X178650000Y-89800000D01*
X178650000Y-128800000D01*
X109150000Y-128800000D01*
X109150000Y-89800000D01*
%TO.C,PS1*%
X109630000Y-50730000D02*
X109630000Y-78170000D01*
X109630000Y-50730000D02*
X162270000Y-50730000D01*
X109630000Y-78170000D02*
X162270000Y-78170000D01*
X114150000Y-50400000D02*
X112150000Y-50400000D01*
X162270000Y-50730000D02*
X162270000Y-78170000D01*
X109150000Y-49550000D02*
X178650000Y-49550000D01*
X178650000Y-88550000D01*
X109150000Y-88550000D01*
X109150000Y-49550000D01*
%TO.C,J5*%
X182410000Y-113010000D02*
X184910000Y-113010000D01*
X184910000Y-113010000D02*
X184910000Y-110510000D01*
X180590000Y-112710000D02*
X184610000Y-112710000D01*
X182300000Y-112710000D02*
X182300000Y-112210000D01*
X183110000Y-112710000D02*
X183110000Y-111710000D01*
X184610000Y-112710000D02*
X184610000Y-104990000D01*
X181090000Y-112210000D02*
X181090000Y-105490000D01*
X182300000Y-112210000D02*
X181090000Y-112210000D01*
X183110000Y-111710000D02*
X184610000Y-111710000D01*
X183110000Y-105990000D02*
X184610000Y-105990000D01*
X181090000Y-105490000D02*
X182300000Y-105490000D01*
X182300000Y-105490000D02*
X182300000Y-104990000D01*
X180590000Y-104990000D02*
X180590000Y-112710000D01*
X183110000Y-104990000D02*
X183110000Y-105990000D01*
X184610000Y-104990000D02*
X180590000Y-104990000D01*
%TO.C,J4*%
X185010000Y-60090000D02*
X180990000Y-60090000D01*
X183510000Y-60090000D02*
X183510000Y-61090000D01*
X180990000Y-60090000D02*
X180990000Y-67810000D01*
X182700000Y-60590000D02*
X182700000Y-60090000D01*
X181490000Y-60590000D02*
X182700000Y-60590000D01*
X183510000Y-61090000D02*
X185010000Y-61090000D01*
X183510000Y-66810000D02*
X185010000Y-66810000D01*
X182700000Y-67310000D02*
X181490000Y-67310000D01*
X181490000Y-67310000D02*
X181490000Y-60590000D01*
X185010000Y-67810000D02*
X185010000Y-60090000D01*
X183510000Y-67810000D02*
X183510000Y-66810000D01*
X182700000Y-67810000D02*
X182700000Y-67310000D01*
X180990000Y-67810000D02*
X185010000Y-67810000D01*
X185310000Y-68110000D02*
X185310000Y-65610000D01*
X182810000Y-68110000D02*
X185310000Y-68110000D01*
%TO.C,J3*%
X180970000Y-86595000D02*
X182300000Y-86595000D01*
X180970000Y-87925000D02*
X180970000Y-86595000D01*
X180970000Y-89195000D02*
X180970000Y-91795000D01*
X180970000Y-89195000D02*
X183630000Y-89195000D01*
X180970000Y-91795000D02*
X183630000Y-91795000D01*
X183630000Y-89195000D02*
X183630000Y-91795000D01*
%TO.C,J2*%
X106100000Y-85400000D02*
X108500000Y-85400000D01*
X108500000Y-78000000D01*
X106100000Y-78000000D01*
X106100000Y-85400000D01*
%TO.C,J1*%
X106100000Y-70500000D02*
X108500000Y-70500000D01*
X108500000Y-63100000D01*
X106100000Y-63100000D01*
X106100000Y-70500000D01*
%TD*%
M02*
